%TF.GenerationSoftware,KiCad,Pcbnew,(6.0.7)*%
%TF.CreationDate,2022-10-12T10:21:12-05:00*%
%TF.ProjectId,CompaqPortableIIIexpansionbackplane,436f6d70-6171-4506-9f72-7461626c6549,rev?*%
%TF.SameCoordinates,Original*%
%TF.FileFunction,Legend,Top*%
%TF.FilePolarity,Positive*%
%FSLAX46Y46*%
G04 Gerber Fmt 4.6, Leading zero omitted, Abs format (unit mm)*
G04 Created by KiCad (PCBNEW (6.0.7)) date 2022-10-12 10:21:12*
%MOMM*%
%LPD*%
G01*
G04 APERTURE LIST*
%ADD10C,0.254000*%
%ADD11C,0.304800*%
%ADD12C,0.120000*%
%ADD13C,1.524000*%
%ADD14R,1.600000X1.600000*%
%ADD15O,1.600000X1.600000*%
%ADD16R,1.000000X1.500000*%
%ADD17O,1.000000X1.500000*%
%ADD18C,4.400000*%
%ADD19C,1.016000*%
G04 APERTURE END LIST*
D10*
X94887142Y-92770476D02*
X94947619Y-92710000D01*
X95068571Y-92649523D01*
X95370952Y-92649523D01*
X95491904Y-92710000D01*
X95552380Y-92770476D01*
X95612857Y-92891428D01*
X95612857Y-93012380D01*
X95552380Y-93193809D01*
X94826666Y-93919523D01*
X95612857Y-93919523D01*
D11*
X127199571Y-109604628D02*
X127199571Y-110693200D01*
X127127000Y-110910914D01*
X126981857Y-111056057D01*
X126764142Y-111128628D01*
X126619000Y-111128628D01*
X128651000Y-111128628D02*
X127925285Y-111128628D01*
X127925285Y-109604628D01*
X130029857Y-110983485D02*
X129957285Y-111056057D01*
X129739571Y-111128628D01*
X129594428Y-111128628D01*
X129376714Y-111056057D01*
X129231571Y-110910914D01*
X129159000Y-110765771D01*
X129086428Y-110475485D01*
X129086428Y-110257771D01*
X129159000Y-109967485D01*
X129231571Y-109822342D01*
X129376714Y-109677200D01*
X129594428Y-109604628D01*
X129739571Y-109604628D01*
X129957285Y-109677200D01*
X130029857Y-109749771D01*
X131118428Y-109604628D02*
X131118428Y-110693200D01*
X131045857Y-110910914D01*
X130900714Y-111056057D01*
X130683000Y-111128628D01*
X130537857Y-111128628D01*
X132569857Y-111128628D02*
X131844142Y-111128628D01*
X131844142Y-109604628D01*
X133948714Y-110983485D02*
X133876142Y-111056057D01*
X133658428Y-111128628D01*
X133513285Y-111128628D01*
X133295571Y-111056057D01*
X133150428Y-110910914D01*
X133077857Y-110765771D01*
X133005285Y-110475485D01*
X133005285Y-110257771D01*
X133077857Y-109967485D01*
X133150428Y-109822342D01*
X133295571Y-109677200D01*
X133513285Y-109604628D01*
X133658428Y-109604628D01*
X133876142Y-109677200D01*
X133948714Y-109749771D01*
X135037285Y-109604628D02*
X135037285Y-110693200D01*
X134964714Y-110910914D01*
X134819571Y-111056057D01*
X134601857Y-111128628D01*
X134456714Y-111128628D01*
X136488714Y-111128628D02*
X135763000Y-111128628D01*
X135763000Y-109604628D01*
X137867571Y-110983485D02*
X137795000Y-111056057D01*
X137577285Y-111128628D01*
X137432142Y-111128628D01*
X137214428Y-111056057D01*
X137069285Y-110910914D01*
X136996714Y-110765771D01*
X136924142Y-110475485D01*
X136924142Y-110257771D01*
X136996714Y-109967485D01*
X137069285Y-109822342D01*
X137214428Y-109677200D01*
X137432142Y-109604628D01*
X137577285Y-109604628D01*
X137795000Y-109677200D01*
X137867571Y-109749771D01*
X138956142Y-109604628D02*
X138956142Y-110693200D01*
X138883571Y-110910914D01*
X138738428Y-111056057D01*
X138520714Y-111128628D01*
X138375571Y-111128628D01*
X140407571Y-111128628D02*
X139681857Y-111128628D01*
X139681857Y-109604628D01*
X141786428Y-110983485D02*
X141713857Y-111056057D01*
X141496142Y-111128628D01*
X141351000Y-111128628D01*
X141133285Y-111056057D01*
X140988142Y-110910914D01*
X140915571Y-110765771D01*
X140843000Y-110475485D01*
X140843000Y-110257771D01*
X140915571Y-109967485D01*
X140988142Y-109822342D01*
X141133285Y-109677200D01*
X141351000Y-109604628D01*
X141496142Y-109604628D01*
X141713857Y-109677200D01*
X141786428Y-109749771D01*
D10*
X95522142Y-112757857D02*
X95522142Y-113604523D01*
X95219761Y-112274047D02*
X94917380Y-113181190D01*
X95703571Y-113181190D01*
X96852619Y-113604523D02*
X96126904Y-113604523D01*
X96489761Y-113604523D02*
X96489761Y-112334523D01*
X96368809Y-112515952D01*
X96247857Y-112636904D01*
X96126904Y-112697380D01*
X199934285Y-116053809D02*
X199813333Y-115993333D01*
X199752857Y-115932857D01*
X199692380Y-115811904D01*
X199692380Y-115751428D01*
X199752857Y-115630476D01*
X199813333Y-115570000D01*
X199934285Y-115509523D01*
X200176190Y-115509523D01*
X200297142Y-115570000D01*
X200357619Y-115630476D01*
X200418095Y-115751428D01*
X200418095Y-115811904D01*
X200357619Y-115932857D01*
X200297142Y-115993333D01*
X200176190Y-116053809D01*
X199934285Y-116053809D01*
X199813333Y-116114285D01*
X199752857Y-116174761D01*
X199692380Y-116295714D01*
X199692380Y-116537619D01*
X199752857Y-116658571D01*
X199813333Y-116719047D01*
X199934285Y-116779523D01*
X200176190Y-116779523D01*
X200297142Y-116719047D01*
X200357619Y-116658571D01*
X200418095Y-116537619D01*
X200418095Y-116295714D01*
X200357619Y-116174761D01*
X200297142Y-116114285D01*
X200176190Y-116053809D01*
X201204285Y-115509523D02*
X201325238Y-115509523D01*
X201446190Y-115570000D01*
X201506666Y-115630476D01*
X201567142Y-115751428D01*
X201627619Y-115993333D01*
X201627619Y-116295714D01*
X201567142Y-116537619D01*
X201506666Y-116658571D01*
X201446190Y-116719047D01*
X201325238Y-116779523D01*
X201204285Y-116779523D01*
X201083333Y-116719047D01*
X201022857Y-116658571D01*
X200962380Y-116537619D01*
X200901904Y-116295714D01*
X200901904Y-115993333D01*
X200962380Y-115751428D01*
X201022857Y-115630476D01*
X201083333Y-115570000D01*
X201204285Y-115509523D01*
X95612857Y-88204523D02*
X94887142Y-88204523D01*
X95250000Y-88204523D02*
X95250000Y-86934523D01*
X95129047Y-87115952D01*
X95008095Y-87236904D01*
X94887142Y-87297380D01*
X128572380Y-95945476D02*
X128632857Y-95885000D01*
X128753809Y-95824523D01*
X129056190Y-95824523D01*
X129177142Y-95885000D01*
X129237619Y-95945476D01*
X129298095Y-96066428D01*
X129298095Y-96187380D01*
X129237619Y-96368809D01*
X128511904Y-97094523D01*
X129298095Y-97094523D01*
X130386666Y-96247857D02*
X130386666Y-97094523D01*
X130084285Y-95764047D02*
X129781904Y-96671190D01*
X130568095Y-96671190D01*
X96247857Y-107889523D02*
X95522142Y-107889523D01*
X95885000Y-107889523D02*
X95885000Y-106619523D01*
X95764047Y-106800952D01*
X95643095Y-106921904D01*
X95522142Y-106982380D01*
X87539285Y-82398809D02*
X87418333Y-82338333D01*
X87357857Y-82277857D01*
X87297380Y-82156904D01*
X87297380Y-82096428D01*
X87357857Y-81975476D01*
X87418333Y-81915000D01*
X87539285Y-81854523D01*
X87781190Y-81854523D01*
X87902142Y-81915000D01*
X87962619Y-81975476D01*
X88023095Y-82096428D01*
X88023095Y-82156904D01*
X87962619Y-82277857D01*
X87902142Y-82338333D01*
X87781190Y-82398809D01*
X87539285Y-82398809D01*
X87418333Y-82459285D01*
X87357857Y-82519761D01*
X87297380Y-82640714D01*
X87297380Y-82882619D01*
X87357857Y-83003571D01*
X87418333Y-83064047D01*
X87539285Y-83124523D01*
X87781190Y-83124523D01*
X87902142Y-83064047D01*
X87962619Y-83003571D01*
X88023095Y-82882619D01*
X88023095Y-82640714D01*
X87962619Y-82519761D01*
X87902142Y-82459285D01*
X87781190Y-82398809D01*
X89111666Y-82277857D02*
X89111666Y-83124523D01*
X88809285Y-81794047D02*
X88506904Y-82701190D01*
X89293095Y-82701190D01*
X159747857Y-79949523D02*
X159022142Y-79949523D01*
X159385000Y-79949523D02*
X159385000Y-78679523D01*
X159264047Y-78860952D01*
X159143095Y-78981904D01*
X159022142Y-79042380D01*
X159022142Y-83245476D02*
X159082619Y-83185000D01*
X159203571Y-83124523D01*
X159505952Y-83124523D01*
X159626904Y-83185000D01*
X159687380Y-83245476D01*
X159747857Y-83366428D01*
X159747857Y-83487380D01*
X159687380Y-83668809D01*
X158961666Y-84394523D01*
X159747857Y-84394523D01*
X136827380Y-85785476D02*
X136887857Y-85725000D01*
X137008809Y-85664523D01*
X137311190Y-85664523D01*
X137432142Y-85725000D01*
X137492619Y-85785476D01*
X137553095Y-85906428D01*
X137553095Y-86027380D01*
X137492619Y-86208809D01*
X136766904Y-86934523D01*
X137553095Y-86934523D01*
X137976428Y-85664523D02*
X138762619Y-85664523D01*
X138339285Y-86148333D01*
X138520714Y-86148333D01*
X138641666Y-86208809D01*
X138702142Y-86269285D01*
X138762619Y-86390238D01*
X138762619Y-86692619D01*
X138702142Y-86813571D01*
X138641666Y-86874047D01*
X138520714Y-86934523D01*
X138157857Y-86934523D01*
X138036904Y-86874047D01*
X137976428Y-86813571D01*
X88174285Y-79858809D02*
X88053333Y-79798333D01*
X87992857Y-79737857D01*
X87932380Y-79616904D01*
X87932380Y-79556428D01*
X87992857Y-79435476D01*
X88053333Y-79375000D01*
X88174285Y-79314523D01*
X88416190Y-79314523D01*
X88537142Y-79375000D01*
X88597619Y-79435476D01*
X88658095Y-79556428D01*
X88658095Y-79616904D01*
X88597619Y-79737857D01*
X88537142Y-79798333D01*
X88416190Y-79858809D01*
X88174285Y-79858809D01*
X88053333Y-79919285D01*
X87992857Y-79979761D01*
X87932380Y-80100714D01*
X87932380Y-80342619D01*
X87992857Y-80463571D01*
X88053333Y-80524047D01*
X88174285Y-80584523D01*
X88416190Y-80584523D01*
X88537142Y-80524047D01*
X88597619Y-80463571D01*
X88658095Y-80342619D01*
X88658095Y-80100714D01*
X88597619Y-79979761D01*
X88537142Y-79919285D01*
X88416190Y-79858809D01*
X89081428Y-79314523D02*
X89867619Y-79314523D01*
X89444285Y-79798333D01*
X89625714Y-79798333D01*
X89746666Y-79858809D01*
X89807142Y-79919285D01*
X89867619Y-80040238D01*
X89867619Y-80342619D01*
X89807142Y-80463571D01*
X89746666Y-80524047D01*
X89625714Y-80584523D01*
X89262857Y-80584523D01*
X89141904Y-80524047D01*
X89081428Y-80463571D01*
X200297142Y-104502857D02*
X200297142Y-105349523D01*
X199994761Y-104019047D02*
X199692380Y-104926190D01*
X200478571Y-104926190D01*
X201204285Y-104079523D02*
X201325238Y-104079523D01*
X201446190Y-104140000D01*
X201506666Y-104200476D01*
X201567142Y-104321428D01*
X201627619Y-104563333D01*
X201627619Y-104865714D01*
X201567142Y-105107619D01*
X201506666Y-105228571D01*
X201446190Y-105289047D01*
X201325238Y-105349523D01*
X201204285Y-105349523D01*
X201083333Y-105289047D01*
X201022857Y-105228571D01*
X200962380Y-105107619D01*
X200901904Y-104865714D01*
X200901904Y-104563333D01*
X200962380Y-104321428D01*
X201022857Y-104200476D01*
X201083333Y-104140000D01*
X201204285Y-104079523D01*
%TO.C,RN1*%
X99102333Y-100639333D02*
X98509666Y-99792666D01*
X98086333Y-100639333D02*
X98086333Y-98861333D01*
X98763666Y-98861333D01*
X98933000Y-98946000D01*
X99017666Y-99030666D01*
X99102333Y-99200000D01*
X99102333Y-99454000D01*
X99017666Y-99623333D01*
X98933000Y-99708000D01*
X98763666Y-99792666D01*
X98086333Y-99792666D01*
X99864333Y-100639333D02*
X99864333Y-98861333D01*
X100880333Y-100639333D01*
X100880333Y-98861333D01*
X102658333Y-100639333D02*
X101642333Y-100639333D01*
X102150333Y-100639333D02*
X102150333Y-98861333D01*
X101981000Y-99115333D01*
X101811666Y-99284666D01*
X101642333Y-99369333D01*
%TO.C,J110*%
X113284000Y-96181333D02*
X113284000Y-97451333D01*
X113199333Y-97705333D01*
X113030000Y-97874666D01*
X112776000Y-97959333D01*
X112606666Y-97959333D01*
X115062000Y-97959333D02*
X114046000Y-97959333D01*
X114554000Y-97959333D02*
X114554000Y-96181333D01*
X114384666Y-96435333D01*
X114215333Y-96604666D01*
X114046000Y-96689333D01*
X116755333Y-97959333D02*
X115739333Y-97959333D01*
X116247333Y-97959333D02*
X116247333Y-96181333D01*
X116078000Y-96435333D01*
X115908666Y-96604666D01*
X115739333Y-96689333D01*
X117856000Y-96181333D02*
X118025333Y-96181333D01*
X118194666Y-96266000D01*
X118279333Y-96350666D01*
X118364000Y-96520000D01*
X118448666Y-96858666D01*
X118448666Y-97282000D01*
X118364000Y-97620666D01*
X118279333Y-97790000D01*
X118194666Y-97874666D01*
X118025333Y-97959333D01*
X117856000Y-97959333D01*
X117686666Y-97874666D01*
X117602000Y-97790000D01*
X117517333Y-97620666D01*
X117432666Y-97282000D01*
X117432666Y-96858666D01*
X117517333Y-96520000D01*
X117602000Y-96350666D01*
X117686666Y-96266000D01*
X117856000Y-96181333D01*
%TO.C,J113*%
X149479000Y-84751333D02*
X149479000Y-86021333D01*
X149394333Y-86275333D01*
X149225000Y-86444666D01*
X148971000Y-86529333D01*
X148801666Y-86529333D01*
X151257000Y-86529333D02*
X150241000Y-86529333D01*
X150749000Y-86529333D02*
X150749000Y-84751333D01*
X150579666Y-85005333D01*
X150410333Y-85174666D01*
X150241000Y-85259333D01*
X152950333Y-86529333D02*
X151934333Y-86529333D01*
X152442333Y-86529333D02*
X152442333Y-84751333D01*
X152273000Y-85005333D01*
X152103666Y-85174666D01*
X151934333Y-85259333D01*
X153543000Y-84751333D02*
X154643666Y-84751333D01*
X154051000Y-85428666D01*
X154305000Y-85428666D01*
X154474333Y-85513333D01*
X154559000Y-85598000D01*
X154643666Y-85767333D01*
X154643666Y-86190666D01*
X154559000Y-86360000D01*
X154474333Y-86444666D01*
X154305000Y-86529333D01*
X153797000Y-86529333D01*
X153627666Y-86444666D01*
X153543000Y-86360000D01*
%TO.C,RN3*%
X139742333Y-123359333D02*
X139149666Y-122512666D01*
X138726333Y-123359333D02*
X138726333Y-121581333D01*
X139403666Y-121581333D01*
X139573000Y-121666000D01*
X139657666Y-121750666D01*
X139742333Y-121920000D01*
X139742333Y-122174000D01*
X139657666Y-122343333D01*
X139573000Y-122428000D01*
X139403666Y-122512666D01*
X138726333Y-122512666D01*
X140504333Y-123359333D02*
X140504333Y-121581333D01*
X141520333Y-123359333D01*
X141520333Y-121581333D01*
X142197666Y-121581333D02*
X143298333Y-121581333D01*
X142705666Y-122258666D01*
X142959666Y-122258666D01*
X143129000Y-122343333D01*
X143213666Y-122428000D01*
X143298333Y-122597333D01*
X143298333Y-123020666D01*
X143213666Y-123190000D01*
X143129000Y-123274666D01*
X142959666Y-123359333D01*
X142451666Y-123359333D01*
X142282333Y-123274666D01*
X142197666Y-123190000D01*
%TO.C,RN2*%
X172762333Y-123359333D02*
X172169666Y-122512666D01*
X171746333Y-123359333D02*
X171746333Y-121581333D01*
X172423666Y-121581333D01*
X172593000Y-121666000D01*
X172677666Y-121750666D01*
X172762333Y-121920000D01*
X172762333Y-122174000D01*
X172677666Y-122343333D01*
X172593000Y-122428000D01*
X172423666Y-122512666D01*
X171746333Y-122512666D01*
X173524333Y-123359333D02*
X173524333Y-121581333D01*
X174540333Y-123359333D01*
X174540333Y-121581333D01*
X175302333Y-121750666D02*
X175387000Y-121666000D01*
X175556333Y-121581333D01*
X175979666Y-121581333D01*
X176149000Y-121666000D01*
X176233666Y-121750666D01*
X176318333Y-121920000D01*
X176318333Y-122089333D01*
X176233666Y-122343333D01*
X175217666Y-123359333D01*
X176318333Y-123359333D01*
%TO.C,RN4*%
X111802333Y-123359333D02*
X111209666Y-122512666D01*
X110786333Y-123359333D02*
X110786333Y-121581333D01*
X111463666Y-121581333D01*
X111633000Y-121666000D01*
X111717666Y-121750666D01*
X111802333Y-121920000D01*
X111802333Y-122174000D01*
X111717666Y-122343333D01*
X111633000Y-122428000D01*
X111463666Y-122512666D01*
X110786333Y-122512666D01*
X112564333Y-123359333D02*
X112564333Y-121581333D01*
X113580333Y-123359333D01*
X113580333Y-121581333D01*
X115189000Y-122174000D02*
X115189000Y-123359333D01*
X114765666Y-121496666D02*
X114342333Y-122766666D01*
X115443000Y-122766666D01*
%TO.C,U1*%
X147870333Y-91101333D02*
X147870333Y-92540666D01*
X147955000Y-92710000D01*
X148039666Y-92794666D01*
X148209000Y-92879333D01*
X148547666Y-92879333D01*
X148717000Y-92794666D01*
X148801666Y-92710000D01*
X148886333Y-92540666D01*
X148886333Y-91101333D01*
X150664333Y-92879333D02*
X149648333Y-92879333D01*
X150156333Y-92879333D02*
X150156333Y-91101333D01*
X149987000Y-91355333D01*
X149817666Y-91524666D01*
X149648333Y-91609333D01*
%TO.C,J114*%
X169164000Y-103801333D02*
X169164000Y-105071333D01*
X169079333Y-105325333D01*
X168910000Y-105494666D01*
X168656000Y-105579333D01*
X168486666Y-105579333D01*
X170942000Y-105579333D02*
X169926000Y-105579333D01*
X170434000Y-105579333D02*
X170434000Y-103801333D01*
X170264666Y-104055333D01*
X170095333Y-104224666D01*
X169926000Y-104309333D01*
X172635333Y-105579333D02*
X171619333Y-105579333D01*
X172127333Y-105579333D02*
X172127333Y-103801333D01*
X171958000Y-104055333D01*
X171788666Y-104224666D01*
X171619333Y-104309333D01*
X174159333Y-104394000D02*
X174159333Y-105579333D01*
X173736000Y-103716666D02*
X173312666Y-104986666D01*
X174413333Y-104986666D01*
D12*
%TO.C,RN1*%
X118280000Y-100835000D02*
X92540000Y-100835000D01*
X92540000Y-100835000D02*
X92540000Y-103635000D01*
X118280000Y-103635000D02*
X118280000Y-100835000D01*
X92540000Y-103635000D02*
X118280000Y-103635000D01*
X95250000Y-100835000D02*
X95250000Y-103635000D01*
D10*
%TO.C,J110*%
X134112000Y-86233000D02*
X97028000Y-86233000D01*
X97028000Y-95377000D02*
X134112000Y-95377000D01*
X134112000Y-95377000D02*
X134112000Y-86233000D01*
X97028000Y-86233000D02*
X97028000Y-95377000D01*
D12*
%TO.C,J113*%
X156390000Y-80645000D02*
X156390000Y-83506235D01*
X156330000Y-83500000D02*
X92530000Y-83500000D01*
X92530000Y-79060000D02*
X92530000Y-83500000D01*
X154940000Y-79060000D02*
X92530000Y-79060000D01*
%TO.C,RN3*%
X153840000Y-121415000D02*
X153840000Y-118615000D01*
X128100000Y-121415000D02*
X153840000Y-121415000D01*
X130810000Y-118615000D02*
X130810000Y-121415000D01*
X153840000Y-118615000D02*
X128100000Y-118615000D01*
X128100000Y-118615000D02*
X128100000Y-121415000D01*
%TO.C,RN2*%
X161120000Y-118615000D02*
X161120000Y-121415000D01*
X186860000Y-118615000D02*
X161120000Y-118615000D01*
X186860000Y-121415000D02*
X186860000Y-118615000D01*
X161120000Y-121415000D02*
X186860000Y-121415000D01*
X163830000Y-118615000D02*
X163830000Y-121415000D01*
%TO.C,RN4*%
X100160000Y-121415000D02*
X125900000Y-121415000D01*
X102870000Y-118615000D02*
X102870000Y-121415000D01*
X125900000Y-121415000D02*
X125900000Y-118615000D01*
X100160000Y-118615000D02*
X100160000Y-121415000D01*
X125900000Y-118615000D02*
X100160000Y-118615000D01*
%TO.C,U1*%
X135830000Y-101075000D02*
X161350000Y-101075000D01*
X161350000Y-101075000D02*
X161350000Y-95775000D01*
X161350000Y-95775000D02*
X135830000Y-95775000D01*
X135830000Y-95775000D02*
X135830000Y-97425000D01*
X135830000Y-99425000D02*
X135830000Y-101075000D01*
X135830000Y-99425000D02*
G75*
G03*
X135830000Y-97425000I0J1000000D01*
G01*
D10*
%TO.C,J114*%
X97028000Y-105918000D02*
X97028000Y-115062000D01*
X205232000Y-115062000D02*
X205232000Y-105918000D01*
X205232000Y-105918000D02*
X97028000Y-105918000D01*
X97028000Y-115062000D02*
X205232000Y-115062000D01*
%TD*%
D13*
%TO.C,J110*%
X101600000Y-88265000D03*
X101600000Y-93345000D03*
X104140000Y-88265000D03*
X104140000Y-93345000D03*
X106680000Y-88265000D03*
X106680000Y-93345000D03*
X109220000Y-88265000D03*
X109220000Y-93345000D03*
X111760000Y-88265000D03*
X111760000Y-93345000D03*
X114300000Y-88265000D03*
X114300000Y-93345000D03*
X116840000Y-88265000D03*
X116840000Y-93345000D03*
X119380000Y-88265000D03*
X119380000Y-93345000D03*
X121920000Y-88265000D03*
X121920000Y-93345000D03*
X124460000Y-88265000D03*
X124460000Y-93345000D03*
X127000000Y-88265000D03*
X127000000Y-93345000D03*
X129540000Y-88265000D03*
X129540000Y-93345000D03*
%TD*%
%TO.C,J114*%
X101600000Y-107950000D03*
X104140000Y-107950000D03*
X106680000Y-107950000D03*
X109220000Y-107950000D03*
X111760000Y-107950000D03*
X114300000Y-107950000D03*
X116840000Y-107950000D03*
X119380000Y-107950000D03*
X121920000Y-107950000D03*
X124460000Y-107950000D03*
X127000000Y-107950000D03*
X129540000Y-107950000D03*
X132080000Y-107950000D03*
X134620000Y-107950000D03*
X137160000Y-107950000D03*
X139700000Y-107950000D03*
X142240000Y-107950000D03*
X144780000Y-107950000D03*
X147320000Y-107950000D03*
X149860000Y-107950000D03*
X152400000Y-107950000D03*
X154940000Y-107950000D03*
X157480000Y-107950000D03*
X160020000Y-107950000D03*
X162560000Y-107950000D03*
X165100000Y-107950000D03*
X167640000Y-107950000D03*
X170180000Y-107950000D03*
X172720000Y-107950000D03*
X175260000Y-107950000D03*
X177800000Y-107950000D03*
X180340000Y-107950000D03*
X182880000Y-107950000D03*
X185420000Y-107950000D03*
X187960000Y-107950000D03*
X190500000Y-107950000D03*
X193040000Y-107950000D03*
X195580000Y-107950000D03*
X198120000Y-107950000D03*
X200660000Y-107950000D03*
X101600000Y-113030000D03*
X104140000Y-113030000D03*
X106680000Y-113030000D03*
X109220000Y-113030000D03*
X111760000Y-113030000D03*
X114300000Y-113030000D03*
X116840000Y-113030000D03*
X119380000Y-113030000D03*
X121920000Y-113030000D03*
X124460000Y-113030000D03*
X127000000Y-113030000D03*
X129540000Y-113030000D03*
X132080000Y-113030000D03*
X134620000Y-113030000D03*
X137160000Y-113030000D03*
X139700000Y-113030000D03*
X142240000Y-113030000D03*
X144780000Y-113030000D03*
X147320000Y-113030000D03*
X149860000Y-113030000D03*
X152400000Y-113030000D03*
X154940000Y-113030000D03*
X157480000Y-113030000D03*
X160020000Y-113030000D03*
X162560000Y-113030000D03*
X165100000Y-113030000D03*
X167640000Y-113030000D03*
X170180000Y-113030000D03*
X172720000Y-113030000D03*
X175282238Y-113102193D03*
X177800000Y-113030000D03*
X180340000Y-113030000D03*
X182880000Y-113030000D03*
X185420000Y-113030000D03*
X187960000Y-113030000D03*
X190500000Y-113030000D03*
X193040000Y-113030000D03*
X195580000Y-113030000D03*
X198120000Y-113030000D03*
X200660000Y-113030000D03*
%TD*%
%LPC*%
D14*
%TO.C,RN1*%
X93980000Y-102235000D03*
D15*
X96520000Y-102235000D03*
X99060000Y-102235000D03*
X101600000Y-102235000D03*
X104140000Y-102235000D03*
X106680000Y-102235000D03*
X109220000Y-102235000D03*
X111760000Y-102235000D03*
X114300000Y-102235000D03*
X116840000Y-102235000D03*
%TD*%
D13*
%TO.C,J110*%
X101600000Y-88265000D03*
X101600000Y-93345000D03*
X104140000Y-88265000D03*
X104140000Y-93345000D03*
X106680000Y-88265000D03*
X106680000Y-93345000D03*
X109220000Y-88265000D03*
X109220000Y-93345000D03*
X111760000Y-88265000D03*
X111760000Y-93345000D03*
X114300000Y-88265000D03*
X114300000Y-93345000D03*
X116840000Y-88265000D03*
X116840000Y-93345000D03*
X119380000Y-88265000D03*
X119380000Y-93345000D03*
X121920000Y-88265000D03*
X121920000Y-93345000D03*
X124460000Y-88265000D03*
X124460000Y-93345000D03*
X127000000Y-88265000D03*
X127000000Y-93345000D03*
X129540000Y-88265000D03*
X129540000Y-93345000D03*
%TD*%
D16*
%TO.C,J113*%
X155575000Y-80010000D03*
D17*
X155575000Y-82550000D03*
X154305000Y-80010000D03*
X154305000Y-82550000D03*
X153035000Y-80010000D03*
X153035000Y-82550000D03*
X151765000Y-80010000D03*
X151765000Y-82550000D03*
X150495000Y-80010000D03*
X150495000Y-82550000D03*
X149225000Y-80010000D03*
X149225000Y-82550000D03*
X147955000Y-80010000D03*
X147955000Y-82550000D03*
X146685000Y-80010000D03*
X146685000Y-82550000D03*
X145415000Y-80010000D03*
X145415000Y-82550000D03*
X144145000Y-80010000D03*
X144145000Y-82550000D03*
X142875000Y-80010000D03*
X142875000Y-82550000D03*
X141605000Y-80010000D03*
X141605000Y-82550000D03*
X140335000Y-80010000D03*
X140335000Y-82550000D03*
X139065000Y-80010000D03*
X139065000Y-82550000D03*
X137795000Y-80010000D03*
X137795000Y-82550000D03*
X136525000Y-80010000D03*
X136525000Y-82550000D03*
X135255000Y-80010000D03*
X135255000Y-82550000D03*
X133985000Y-80010000D03*
X133985000Y-82550000D03*
X132715000Y-80010000D03*
X132715000Y-82550000D03*
X131445000Y-80010000D03*
X131445000Y-82550000D03*
X130175000Y-80010000D03*
X130175000Y-82550000D03*
X118745000Y-80010000D03*
X118745000Y-82550000D03*
X117475000Y-80010000D03*
X117475000Y-82550000D03*
X116205000Y-80010000D03*
X116205000Y-82550000D03*
X114935000Y-80010000D03*
X114935000Y-82550000D03*
X113665000Y-80010000D03*
X113665000Y-82550000D03*
X112395000Y-80010000D03*
X112395000Y-82550000D03*
X111125000Y-80010000D03*
X111125000Y-82550000D03*
X109855000Y-80010000D03*
X109855000Y-82550000D03*
X108585000Y-80010000D03*
X108585000Y-82550000D03*
X107315000Y-80010000D03*
X107315000Y-82550000D03*
X106045000Y-80010000D03*
X106045000Y-82550000D03*
X104775000Y-80010000D03*
X104775000Y-82550000D03*
X103505000Y-80010000D03*
X103505000Y-82550000D03*
X102235000Y-80010000D03*
X102235000Y-82550000D03*
X100965000Y-80010000D03*
X100965000Y-82550000D03*
X99695000Y-80010000D03*
X99695000Y-82550000D03*
X98425000Y-80010000D03*
X98425000Y-82550000D03*
X97155000Y-80010000D03*
X97155000Y-82550000D03*
X95885000Y-80010000D03*
X95885000Y-82550000D03*
X94615000Y-80010000D03*
X94615000Y-82550000D03*
X93345000Y-80010000D03*
X93345000Y-82550000D03*
%TD*%
D14*
%TO.C,RN3*%
X129540000Y-120015000D03*
D15*
X132080000Y-120015000D03*
X134620000Y-120015000D03*
X137160000Y-120015000D03*
X139700000Y-120015000D03*
X142240000Y-120015000D03*
X144780000Y-120015000D03*
X147320000Y-120015000D03*
X149860000Y-120015000D03*
X152400000Y-120015000D03*
%TD*%
D14*
%TO.C,RN2*%
X162560000Y-120015000D03*
D15*
X165100000Y-120015000D03*
X167640000Y-120015000D03*
X170180000Y-120015000D03*
X172720000Y-120015000D03*
X175260000Y-120015000D03*
X177800000Y-120015000D03*
X180340000Y-120015000D03*
X182880000Y-120015000D03*
X185420000Y-120015000D03*
%TD*%
D14*
%TO.C,RN4*%
X101600000Y-120015000D03*
D15*
X104140000Y-120015000D03*
X106680000Y-120015000D03*
X109220000Y-120015000D03*
X111760000Y-120015000D03*
X114300000Y-120015000D03*
X116840000Y-120015000D03*
X119380000Y-120015000D03*
X121920000Y-120015000D03*
X124460000Y-120015000D03*
%TD*%
D14*
%TO.C,U1*%
X137160000Y-102235000D03*
D15*
X139700000Y-102235000D03*
X142240000Y-102235000D03*
X144780000Y-102235000D03*
X147320000Y-102235000D03*
X149860000Y-102235000D03*
X152400000Y-102235000D03*
X154940000Y-102235000D03*
X157480000Y-102235000D03*
X160020000Y-102235000D03*
X160020000Y-94615000D03*
X157480000Y-94615000D03*
X154940000Y-94615000D03*
X152400000Y-94615000D03*
X149860000Y-94615000D03*
X147320000Y-94615000D03*
X144780000Y-94615000D03*
X142240000Y-94615000D03*
X139700000Y-94615000D03*
X137160000Y-94615000D03*
%TD*%
D13*
%TO.C,J114*%
X101600000Y-107950000D03*
X104140000Y-107950000D03*
X106680000Y-107950000D03*
X109220000Y-107950000D03*
X111760000Y-107950000D03*
X114300000Y-107950000D03*
X116840000Y-107950000D03*
X119380000Y-107950000D03*
X121920000Y-107950000D03*
X124460000Y-107950000D03*
X127000000Y-107950000D03*
X129540000Y-107950000D03*
X132080000Y-107950000D03*
X134620000Y-107950000D03*
X137160000Y-107950000D03*
X139700000Y-107950000D03*
X142240000Y-107950000D03*
X144780000Y-107950000D03*
X147320000Y-107950000D03*
X149860000Y-107950000D03*
X152400000Y-107950000D03*
X154940000Y-107950000D03*
X157480000Y-107950000D03*
X160020000Y-107950000D03*
X162560000Y-107950000D03*
X165100000Y-107950000D03*
X167640000Y-107950000D03*
X170180000Y-107950000D03*
X172720000Y-107950000D03*
X175260000Y-107950000D03*
X177800000Y-107950000D03*
X180340000Y-107950000D03*
X182880000Y-107950000D03*
X185420000Y-107950000D03*
X187960000Y-107950000D03*
X190500000Y-107950000D03*
X193040000Y-107950000D03*
X195580000Y-107950000D03*
X198120000Y-107950000D03*
X200660000Y-107950000D03*
X101600000Y-113030000D03*
X104140000Y-113030000D03*
X106680000Y-113030000D03*
X109220000Y-113030000D03*
X111760000Y-113030000D03*
X114300000Y-113030000D03*
X116840000Y-113030000D03*
X119380000Y-113030000D03*
X121920000Y-113030000D03*
X124460000Y-113030000D03*
X127000000Y-113030000D03*
X129540000Y-113030000D03*
X132080000Y-113030000D03*
X134620000Y-113030000D03*
X137160000Y-113030000D03*
X139700000Y-113030000D03*
X142240000Y-113030000D03*
X144780000Y-113030000D03*
X147320000Y-113030000D03*
X149860000Y-113030000D03*
X152400000Y-113030000D03*
X154940000Y-113030000D03*
X157480000Y-113030000D03*
X160020000Y-113030000D03*
X162560000Y-113030000D03*
X165100000Y-113030000D03*
X167640000Y-113030000D03*
X170180000Y-113030000D03*
X172720000Y-113030000D03*
X175282238Y-113102193D03*
X177800000Y-113030000D03*
X180340000Y-113030000D03*
X182880000Y-113030000D03*
X185420000Y-113030000D03*
X187960000Y-113030000D03*
X190500000Y-113030000D03*
X193040000Y-113030000D03*
X195580000Y-113030000D03*
X198120000Y-113030000D03*
X200660000Y-113030000D03*
%TD*%
D18*
%TO.C,H2*%
X207010000Y-89535000D03*
%TD*%
%TO.C,H1*%
X91440000Y-120015000D03*
%TD*%
D19*
X179070000Y-93345000D03*
X122555000Y-83820000D03*
X180340000Y-76835000D03*
X180340000Y-99695000D03*
X119380000Y-101650800D03*
X190500000Y-92075000D03*
X125095000Y-83820000D03*
X158750000Y-118745000D03*
X163830000Y-84455000D03*
X137160000Y-105460800D03*
X130175000Y-102235000D03*
X133350000Y-102235000D03*
X125730000Y-103505000D03*
X133350000Y-104140000D03*
X127000000Y-79375000D03*
X140970000Y-116840000D03*
X127000000Y-81280000D03*
X127000000Y-104775000D03*
X130175000Y-104775000D03*
X191770000Y-109855000D03*
X191770000Y-88265000D03*
X187960000Y-89535000D03*
X185420000Y-90805000D03*
X177800000Y-114935000D03*
X176530000Y-88265000D03*
X137160000Y-90170000D03*
X143510000Y-88265000D03*
X93980000Y-108610400D03*
X92075000Y-108585000D03*
X110490000Y-115570000D03*
X120650000Y-115570000D03*
X105410000Y-100330000D03*
X93345000Y-113665000D03*
X95250000Y-114935000D03*
X158750000Y-82550000D03*
X148590000Y-114935000D03*
X151130000Y-111125000D03*
X149225000Y-99695000D03*
X162560000Y-100330000D03*
X115570000Y-95250000D03*
X142240000Y-96520000D03*
X111760000Y-105410000D03*
X122555000Y-79375000D03*
X124460000Y-104775000D03*
X92710000Y-95885000D03*
X109220000Y-98425000D03*
X124460000Y-102235000D03*
X161925000Y-88265000D03*
X167640000Y-84455000D03*
X170180000Y-83185000D03*
X172720000Y-81280000D03*
X175260000Y-79375000D03*
X166370000Y-83185000D03*
X168910000Y-81280000D03*
X171450000Y-79375000D03*
X173990000Y-77470000D03*
X102870000Y-116205000D03*
X123190000Y-103505000D03*
X119380000Y-104775000D03*
X180340000Y-114935000D03*
X181610000Y-86995000D03*
X97155000Y-118745000D03*
X135890000Y-86995000D03*
X146685000Y-88265000D03*
M02*
