M48
; DRILL file {KiCad (6.0.7)} date Wed Oct 12 10:21:13 2022
; FORMAT={-:-/ absolute / metric / decimal}
; #@! TF.CreationDate,2022-10-12T10:21:13-05:00
; #@! TF.GenerationSoftware,Kicad,Pcbnew,(6.0.7)
; #@! TF.FileFunction,Plated,1,4,PTH
FMAT,2
METRIC
; #@! TA.AperFunction,Plated,PTH,ComponentDrill
T1C0.700
; #@! TA.AperFunction,Plated,PTH,ViaDrill
T2C0.762
; #@! TA.AperFunction,Plated,PTH,ComponentDrill
T3C0.800
; #@! TA.AperFunction,Plated,PTH,ComponentDrill
T4C1.016
; #@! TA.AperFunction,Plated,PTH,ComponentDrill
T5C4.000
%
G90
G05
T1
X93.345Y-80.01
X93.345Y-82.55
X94.615Y-80.01
X94.615Y-82.55
X95.885Y-80.01
X95.885Y-82.55
X97.155Y-80.01
X97.155Y-82.55
X98.425Y-80.01
X98.425Y-82.55
X99.695Y-80.01
X99.695Y-82.55
X100.965Y-80.01
X100.965Y-82.55
X102.235Y-80.01
X102.235Y-82.55
X103.505Y-80.01
X103.505Y-82.55
X104.775Y-80.01
X104.775Y-82.55
X106.045Y-80.01
X106.045Y-82.55
X107.315Y-80.01
X107.315Y-82.55
X108.585Y-80.01
X108.585Y-82.55
X109.855Y-80.01
X109.855Y-82.55
X111.125Y-80.01
X111.125Y-82.55
X112.395Y-80.01
X112.395Y-82.55
X113.665Y-80.01
X113.665Y-82.55
X114.935Y-80.01
X114.935Y-82.55
X116.205Y-80.01
X116.205Y-82.55
X117.475Y-80.01
X117.475Y-82.55
X118.745Y-80.01
X118.745Y-82.55
X130.175Y-80.01
X130.175Y-82.55
X131.445Y-80.01
X131.445Y-82.55
X132.715Y-80.01
X132.715Y-82.55
X133.985Y-80.01
X133.985Y-82.55
X135.255Y-80.01
X135.255Y-82.55
X136.525Y-80.01
X136.525Y-82.55
X137.795Y-80.01
X137.795Y-82.55
X139.065Y-80.01
X139.065Y-82.55
X140.335Y-80.01
X140.335Y-82.55
X141.605Y-80.01
X141.605Y-82.55
X142.875Y-80.01
X142.875Y-82.55
X144.145Y-80.01
X144.145Y-82.55
X145.415Y-80.01
X145.415Y-82.55
X146.685Y-80.01
X146.685Y-82.55
X147.955Y-80.01
X147.955Y-82.55
X149.225Y-80.01
X149.225Y-82.55
X150.495Y-80.01
X150.495Y-82.55
X151.765Y-80.01
X151.765Y-82.55
X153.035Y-80.01
X153.035Y-82.55
X154.305Y-80.01
X154.305Y-82.55
X155.575Y-80.01
X155.575Y-82.55
T2
X92.075Y-108.585
X92.71Y-95.885
X93.345Y-113.665
X93.98Y-108.61
X95.25Y-114.935
X97.155Y-118.745
X102.87Y-116.205
X105.41Y-100.33
X109.22Y-98.425
X110.49Y-115.57
X111.76Y-105.41
X115.57Y-95.25
X119.38Y-101.651
X119.38Y-104.775
X120.65Y-115.57
X122.555Y-79.375
X122.555Y-83.82
X123.19Y-103.505
X124.46Y-102.235
X124.46Y-104.775
X125.095Y-83.82
X125.73Y-103.505
X127.0Y-79.375
X127.0Y-81.28
X127.0Y-104.775
X130.175Y-102.235
X130.175Y-104.775
X133.35Y-102.235
X133.35Y-104.14
X135.89Y-86.995
X137.16Y-90.17
X137.16Y-105.461
X140.97Y-116.84
X142.24Y-96.52
X143.51Y-88.265
X146.685Y-88.265
X148.59Y-114.935
X149.225Y-99.695
X151.13Y-111.125
X158.75Y-82.55
X158.75Y-118.745
X161.925Y-88.265
X162.56Y-100.33
X163.83Y-84.455
X166.37Y-83.185
X167.64Y-84.455
X168.91Y-81.28
X170.18Y-83.185
X171.45Y-79.375
X172.72Y-81.28
X173.99Y-77.47
X175.26Y-79.375
X176.53Y-88.265
X177.8Y-114.935
X179.07Y-93.345
X180.34Y-76.835
X180.34Y-99.695
X180.34Y-114.935
X181.61Y-86.995
X185.42Y-90.805
X187.96Y-89.535
X190.5Y-92.075
X191.77Y-88.265
X191.77Y-109.855
T3
X93.98Y-102.235
X96.52Y-102.235
X99.06Y-102.235
X101.6Y-102.235
X101.6Y-120.015
X104.14Y-102.235
X104.14Y-120.015
X106.68Y-102.235
X106.68Y-120.015
X109.22Y-102.235
X109.22Y-120.015
X111.76Y-102.235
X111.76Y-120.015
X114.3Y-102.235
X114.3Y-120.015
X116.84Y-102.235
X116.84Y-120.015
X119.38Y-120.015
X121.92Y-120.015
X124.46Y-120.015
X129.54Y-120.015
X132.08Y-120.015
X134.62Y-120.015
X137.16Y-94.615
X137.16Y-102.235
X137.16Y-120.015
X139.7Y-94.615
X139.7Y-102.235
X139.7Y-120.015
X142.24Y-94.615
X142.24Y-102.235
X142.24Y-120.015
X144.78Y-94.615
X144.78Y-102.235
X144.78Y-120.015
X147.32Y-94.615
X147.32Y-102.235
X147.32Y-120.015
X149.86Y-94.615
X149.86Y-102.235
X149.86Y-120.015
X152.4Y-94.615
X152.4Y-102.235
X152.4Y-120.015
X154.94Y-94.615
X154.94Y-102.235
X157.48Y-94.615
X157.48Y-102.235
X160.02Y-94.615
X160.02Y-102.235
X162.56Y-120.015
X165.1Y-120.015
X167.64Y-120.015
X170.18Y-120.015
X172.72Y-120.015
X175.26Y-120.015
X177.8Y-120.015
X180.34Y-120.015
X182.88Y-120.015
X185.42Y-120.015
T4
X101.6Y-88.265
X101.6Y-93.345
X101.6Y-107.95
X101.6Y-113.03
X104.14Y-88.265
X104.14Y-93.345
X104.14Y-107.95
X104.14Y-113.03
X106.68Y-88.265
X106.68Y-93.345
X106.68Y-107.95
X106.68Y-113.03
X109.22Y-88.265
X109.22Y-93.345
X109.22Y-107.95
X109.22Y-113.03
X111.76Y-88.265
X111.76Y-93.345
X111.76Y-107.95
X111.76Y-113.03
X114.3Y-88.265
X114.3Y-93.345
X114.3Y-107.95
X114.3Y-113.03
X116.84Y-88.265
X116.84Y-93.345
X116.84Y-107.95
X116.84Y-113.03
X119.38Y-88.265
X119.38Y-93.345
X119.38Y-107.95
X119.38Y-113.03
X121.92Y-88.265
X121.92Y-93.345
X121.92Y-107.95
X121.92Y-113.03
X124.46Y-88.265
X124.46Y-93.345
X124.46Y-107.95
X124.46Y-113.03
X127.0Y-88.265
X127.0Y-93.345
X127.0Y-107.95
X127.0Y-113.03
X129.54Y-88.265
X129.54Y-93.345
X129.54Y-107.95
X129.54Y-113.03
X132.08Y-107.95
X132.08Y-113.03
X134.62Y-107.95
X134.62Y-113.03
X137.16Y-107.95
X137.16Y-113.03
X139.7Y-107.95
X139.7Y-113.03
X142.24Y-107.95
X142.24Y-113.03
X144.78Y-107.95
X144.78Y-113.03
X147.32Y-107.95
X147.32Y-113.03
X149.86Y-107.95
X149.86Y-113.03
X152.4Y-107.95
X152.4Y-113.03
X154.94Y-107.95
X154.94Y-113.03
X157.48Y-107.95
X157.48Y-113.03
X160.02Y-107.95
X160.02Y-113.03
X162.56Y-107.95
X162.56Y-113.03
X165.1Y-107.95
X165.1Y-113.03
X167.64Y-107.95
X167.64Y-113.03
X170.18Y-107.95
X170.18Y-113.03
X172.72Y-107.95
X172.72Y-113.03
X175.26Y-107.95
X175.282Y-113.102
X177.8Y-107.95
X177.8Y-113.03
X180.34Y-107.95
X180.34Y-113.03
X182.88Y-107.95
X182.88Y-113.03
X185.42Y-107.95
X185.42Y-113.03
X187.96Y-107.95
X187.96Y-113.03
X190.5Y-107.95
X190.5Y-113.03
X193.04Y-107.95
X193.04Y-113.03
X195.58Y-107.95
X195.58Y-113.03
X198.12Y-107.95
X198.12Y-113.03
X200.66Y-107.95
X200.66Y-113.03
T5
X91.44Y-120.015
X207.01Y-89.535
T0
M30
