%TF.GenerationSoftware,KiCad,Pcbnew,(6.0.7)*%
%TF.CreationDate,2022-10-12T10:21:12-05:00*%
%TF.ProjectId,CompaqPortableIIIexpansionbackplane,436f6d70-6171-4506-9f72-7461626c6549,rev?*%
%TF.SameCoordinates,Original*%
%TF.FileFunction,Soldermask,Top*%
%TF.FilePolarity,Negative*%
%FSLAX46Y46*%
G04 Gerber Fmt 4.6, Leading zero omitted, Abs format (unit mm)*
G04 Created by KiCad (PCBNEW (6.0.7)) date 2022-10-12 10:21:12*
%MOMM*%
%LPD*%
G01*
G04 APERTURE LIST*
%ADD10R,1.600000X1.600000*%
%ADD11O,1.600000X1.600000*%
%ADD12C,1.524000*%
%ADD13R,1.000000X1.500000*%
%ADD14O,1.000000X1.500000*%
%ADD15C,4.400000*%
%ADD16C,1.016000*%
G04 APERTURE END LIST*
D10*
%TO.C,RN1*%
X93980000Y-102235000D03*
D11*
X96520000Y-102235000D03*
X99060000Y-102235000D03*
X101600000Y-102235000D03*
X104140000Y-102235000D03*
X106680000Y-102235000D03*
X109220000Y-102235000D03*
X111760000Y-102235000D03*
X114300000Y-102235000D03*
X116840000Y-102235000D03*
%TD*%
D12*
%TO.C,J110*%
X101600000Y-88265000D03*
X101600000Y-93345000D03*
X104140000Y-88265000D03*
X104140000Y-93345000D03*
X106680000Y-88265000D03*
X106680000Y-93345000D03*
X109220000Y-88265000D03*
X109220000Y-93345000D03*
X111760000Y-88265000D03*
X111760000Y-93345000D03*
X114300000Y-88265000D03*
X114300000Y-93345000D03*
X116840000Y-88265000D03*
X116840000Y-93345000D03*
X119380000Y-88265000D03*
X119380000Y-93345000D03*
X121920000Y-88265000D03*
X121920000Y-93345000D03*
X124460000Y-88265000D03*
X124460000Y-93345000D03*
X127000000Y-88265000D03*
X127000000Y-93345000D03*
X129540000Y-88265000D03*
X129540000Y-93345000D03*
%TD*%
D13*
%TO.C,J113*%
X155575000Y-80010000D03*
D14*
X155575000Y-82550000D03*
X154305000Y-80010000D03*
X154305000Y-82550000D03*
X153035000Y-80010000D03*
X153035000Y-82550000D03*
X151765000Y-80010000D03*
X151765000Y-82550000D03*
X150495000Y-80010000D03*
X150495000Y-82550000D03*
X149225000Y-80010000D03*
X149225000Y-82550000D03*
X147955000Y-80010000D03*
X147955000Y-82550000D03*
X146685000Y-80010000D03*
X146685000Y-82550000D03*
X145415000Y-80010000D03*
X145415000Y-82550000D03*
X144145000Y-80010000D03*
X144145000Y-82550000D03*
X142875000Y-80010000D03*
X142875000Y-82550000D03*
X141605000Y-80010000D03*
X141605000Y-82550000D03*
X140335000Y-80010000D03*
X140335000Y-82550000D03*
X139065000Y-80010000D03*
X139065000Y-82550000D03*
X137795000Y-80010000D03*
X137795000Y-82550000D03*
X136525000Y-80010000D03*
X136525000Y-82550000D03*
X135255000Y-80010000D03*
X135255000Y-82550000D03*
X133985000Y-80010000D03*
X133985000Y-82550000D03*
X132715000Y-80010000D03*
X132715000Y-82550000D03*
X131445000Y-80010000D03*
X131445000Y-82550000D03*
X130175000Y-80010000D03*
X130175000Y-82550000D03*
X118745000Y-80010000D03*
X118745000Y-82550000D03*
X117475000Y-80010000D03*
X117475000Y-82550000D03*
X116205000Y-80010000D03*
X116205000Y-82550000D03*
X114935000Y-80010000D03*
X114935000Y-82550000D03*
X113665000Y-80010000D03*
X113665000Y-82550000D03*
X112395000Y-80010000D03*
X112395000Y-82550000D03*
X111125000Y-80010000D03*
X111125000Y-82550000D03*
X109855000Y-80010000D03*
X109855000Y-82550000D03*
X108585000Y-80010000D03*
X108585000Y-82550000D03*
X107315000Y-80010000D03*
X107315000Y-82550000D03*
X106045000Y-80010000D03*
X106045000Y-82550000D03*
X104775000Y-80010000D03*
X104775000Y-82550000D03*
X103505000Y-80010000D03*
X103505000Y-82550000D03*
X102235000Y-80010000D03*
X102235000Y-82550000D03*
X100965000Y-80010000D03*
X100965000Y-82550000D03*
X99695000Y-80010000D03*
X99695000Y-82550000D03*
X98425000Y-80010000D03*
X98425000Y-82550000D03*
X97155000Y-80010000D03*
X97155000Y-82550000D03*
X95885000Y-80010000D03*
X95885000Y-82550000D03*
X94615000Y-80010000D03*
X94615000Y-82550000D03*
X93345000Y-80010000D03*
X93345000Y-82550000D03*
%TD*%
D10*
%TO.C,RN3*%
X129540000Y-120015000D03*
D11*
X132080000Y-120015000D03*
X134620000Y-120015000D03*
X137160000Y-120015000D03*
X139700000Y-120015000D03*
X142240000Y-120015000D03*
X144780000Y-120015000D03*
X147320000Y-120015000D03*
X149860000Y-120015000D03*
X152400000Y-120015000D03*
%TD*%
D10*
%TO.C,RN2*%
X162560000Y-120015000D03*
D11*
X165100000Y-120015000D03*
X167640000Y-120015000D03*
X170180000Y-120015000D03*
X172720000Y-120015000D03*
X175260000Y-120015000D03*
X177800000Y-120015000D03*
X180340000Y-120015000D03*
X182880000Y-120015000D03*
X185420000Y-120015000D03*
%TD*%
D10*
%TO.C,RN4*%
X101600000Y-120015000D03*
D11*
X104140000Y-120015000D03*
X106680000Y-120015000D03*
X109220000Y-120015000D03*
X111760000Y-120015000D03*
X114300000Y-120015000D03*
X116840000Y-120015000D03*
X119380000Y-120015000D03*
X121920000Y-120015000D03*
X124460000Y-120015000D03*
%TD*%
D10*
%TO.C,U1*%
X137160000Y-102235000D03*
D11*
X139700000Y-102235000D03*
X142240000Y-102235000D03*
X144780000Y-102235000D03*
X147320000Y-102235000D03*
X149860000Y-102235000D03*
X152400000Y-102235000D03*
X154940000Y-102235000D03*
X157480000Y-102235000D03*
X160020000Y-102235000D03*
X160020000Y-94615000D03*
X157480000Y-94615000D03*
X154940000Y-94615000D03*
X152400000Y-94615000D03*
X149860000Y-94615000D03*
X147320000Y-94615000D03*
X144780000Y-94615000D03*
X142240000Y-94615000D03*
X139700000Y-94615000D03*
X137160000Y-94615000D03*
%TD*%
D12*
%TO.C,J114*%
X101600000Y-107950000D03*
X104140000Y-107950000D03*
X106680000Y-107950000D03*
X109220000Y-107950000D03*
X111760000Y-107950000D03*
X114300000Y-107950000D03*
X116840000Y-107950000D03*
X119380000Y-107950000D03*
X121920000Y-107950000D03*
X124460000Y-107950000D03*
X127000000Y-107950000D03*
X129540000Y-107950000D03*
X132080000Y-107950000D03*
X134620000Y-107950000D03*
X137160000Y-107950000D03*
X139700000Y-107950000D03*
X142240000Y-107950000D03*
X144780000Y-107950000D03*
X147320000Y-107950000D03*
X149860000Y-107950000D03*
X152400000Y-107950000D03*
X154940000Y-107950000D03*
X157480000Y-107950000D03*
X160020000Y-107950000D03*
X162560000Y-107950000D03*
X165100000Y-107950000D03*
X167640000Y-107950000D03*
X170180000Y-107950000D03*
X172720000Y-107950000D03*
X175260000Y-107950000D03*
X177800000Y-107950000D03*
X180340000Y-107950000D03*
X182880000Y-107950000D03*
X185420000Y-107950000D03*
X187960000Y-107950000D03*
X190500000Y-107950000D03*
X193040000Y-107950000D03*
X195580000Y-107950000D03*
X198120000Y-107950000D03*
X200660000Y-107950000D03*
X101600000Y-113030000D03*
X104140000Y-113030000D03*
X106680000Y-113030000D03*
X109220000Y-113030000D03*
X111760000Y-113030000D03*
X114300000Y-113030000D03*
X116840000Y-113030000D03*
X119380000Y-113030000D03*
X121920000Y-113030000D03*
X124460000Y-113030000D03*
X127000000Y-113030000D03*
X129540000Y-113030000D03*
X132080000Y-113030000D03*
X134620000Y-113030000D03*
X137160000Y-113030000D03*
X139700000Y-113030000D03*
X142240000Y-113030000D03*
X144780000Y-113030000D03*
X147320000Y-113030000D03*
X149860000Y-113030000D03*
X152400000Y-113030000D03*
X154940000Y-113030000D03*
X157480000Y-113030000D03*
X160020000Y-113030000D03*
X162560000Y-113030000D03*
X165100000Y-113030000D03*
X167640000Y-113030000D03*
X170180000Y-113030000D03*
X172720000Y-113030000D03*
X175282238Y-113102193D03*
X177800000Y-113030000D03*
X180340000Y-113030000D03*
X182880000Y-113030000D03*
X185420000Y-113030000D03*
X187960000Y-113030000D03*
X190500000Y-113030000D03*
X193040000Y-113030000D03*
X195580000Y-113030000D03*
X198120000Y-113030000D03*
X200660000Y-113030000D03*
%TD*%
D15*
%TO.C,H2*%
X207010000Y-89535000D03*
%TD*%
%TO.C,H1*%
X91440000Y-120015000D03*
%TD*%
D16*
X179070000Y-93345000D03*
X122555000Y-83820000D03*
X180340000Y-76835000D03*
X180340000Y-99695000D03*
X119380000Y-101650800D03*
X190500000Y-92075000D03*
X125095000Y-83820000D03*
X158750000Y-118745000D03*
X163830000Y-84455000D03*
X137160000Y-105460800D03*
X130175000Y-102235000D03*
X133350000Y-102235000D03*
X125730000Y-103505000D03*
X133350000Y-104140000D03*
X127000000Y-79375000D03*
X140970000Y-116840000D03*
X127000000Y-81280000D03*
X127000000Y-104775000D03*
X130175000Y-104775000D03*
X191770000Y-109855000D03*
X191770000Y-88265000D03*
X187960000Y-89535000D03*
X185420000Y-90805000D03*
X177800000Y-114935000D03*
X176530000Y-88265000D03*
X137160000Y-90170000D03*
X143510000Y-88265000D03*
X93980000Y-108610400D03*
X92075000Y-108585000D03*
X110490000Y-115570000D03*
X120650000Y-115570000D03*
X105410000Y-100330000D03*
X93345000Y-113665000D03*
X95250000Y-114935000D03*
X158750000Y-82550000D03*
X148590000Y-114935000D03*
X151130000Y-111125000D03*
X149225000Y-99695000D03*
X162560000Y-100330000D03*
X115570000Y-95250000D03*
X142240000Y-96520000D03*
X111760000Y-105410000D03*
X122555000Y-79375000D03*
X124460000Y-104775000D03*
X92710000Y-95885000D03*
X109220000Y-98425000D03*
X124460000Y-102235000D03*
X161925000Y-88265000D03*
X167640000Y-84455000D03*
X170180000Y-83185000D03*
X172720000Y-81280000D03*
X175260000Y-79375000D03*
X166370000Y-83185000D03*
X168910000Y-81280000D03*
X171450000Y-79375000D03*
X173990000Y-77470000D03*
X102870000Y-116205000D03*
X123190000Y-103505000D03*
X119380000Y-104775000D03*
X180340000Y-114935000D03*
X181610000Y-86995000D03*
X97155000Y-118745000D03*
X135890000Y-86995000D03*
X146685000Y-88265000D03*
M02*
