%TF.GenerationSoftware,KiCad,Pcbnew,(6.0.7)*%
%TF.CreationDate,2022-10-12T10:44:44-05:00*%
%TF.ProjectId,CompaqPortableIIImemexp,436f6d70-6171-4506-9f72-7461626c6549,rev?*%
%TF.SameCoordinates,Original*%
%TF.FileFunction,Legend,Top*%
%TF.FilePolarity,Positive*%
%FSLAX46Y46*%
G04 Gerber Fmt 4.6, Leading zero omitted, Abs format (unit mm)*
G04 Created by KiCad (PCBNEW (6.0.7)) date 2022-10-12 10:44:44*
%MOMM*%
%LPD*%
G01*
G04 APERTURE LIST*
%ADD10C,0.254000*%
%ADD11C,0.304800*%
%ADD12C,0.120000*%
%ADD13R,1.397000X1.397000*%
%ADD14C,1.397000*%
%ADD15C,0.100000*%
%ADD16C,4.000000*%
%ADD17C,1.600000*%
%ADD18R,1.600000X1.600000*%
%ADD19O,1.600000X1.600000*%
%ADD20C,2.286000*%
%ADD21C,1.524000*%
%ADD22R,1.700000X1.700000*%
%ADD23O,1.700000X1.700000*%
G04 APERTURE END LIST*
D10*
X92075000Y-90170000D02*
X99695000Y-90170000D01*
X106045000Y-110278333D02*
X106129666Y-110363000D01*
X106214333Y-110617000D01*
X106214333Y-110786333D01*
X106129666Y-111040333D01*
X105960333Y-111209666D01*
X105791000Y-111294333D01*
X105452333Y-111379000D01*
X105198333Y-111379000D01*
X104859666Y-111294333D01*
X104690333Y-111209666D01*
X104521000Y-111040333D01*
X104436333Y-110786333D01*
X104436333Y-110617000D01*
X104521000Y-110363000D01*
X104605666Y-110278333D01*
X104436333Y-109177666D02*
X104436333Y-108839000D01*
X104521000Y-108669666D01*
X104690333Y-108500333D01*
X105029000Y-108415666D01*
X105621666Y-108415666D01*
X105960333Y-108500333D01*
X106129666Y-108669666D01*
X106214333Y-108839000D01*
X106214333Y-109177666D01*
X106129666Y-109347000D01*
X105960333Y-109516333D01*
X105621666Y-109601000D01*
X105029000Y-109601000D01*
X104690333Y-109516333D01*
X104521000Y-109347000D01*
X104436333Y-109177666D01*
X106214333Y-106637666D02*
X105367666Y-107230333D01*
X106214333Y-107653666D02*
X104436333Y-107653666D01*
X104436333Y-106976333D01*
X104521000Y-106807000D01*
X104605666Y-106722333D01*
X104775000Y-106637666D01*
X105029000Y-106637666D01*
X105198333Y-106722333D01*
X105283000Y-106807000D01*
X105367666Y-106976333D01*
X105367666Y-107653666D01*
X106214333Y-105875666D02*
X104436333Y-105875666D01*
X104436333Y-105198333D01*
X104521000Y-105029000D01*
X104605666Y-104944333D01*
X104775000Y-104859666D01*
X105029000Y-104859666D01*
X105198333Y-104944333D01*
X105283000Y-105029000D01*
X105367666Y-105198333D01*
X105367666Y-105875666D01*
X106045000Y-104097666D02*
X106129666Y-104013000D01*
X106214333Y-104097666D01*
X106129666Y-104182333D01*
X106045000Y-104097666D01*
X106214333Y-104097666D01*
X84328000Y-113961333D02*
X84666666Y-113961333D01*
X84836000Y-114046000D01*
X85005333Y-114215333D01*
X85090000Y-114554000D01*
X85090000Y-115146666D01*
X85005333Y-115485333D01*
X84836000Y-115654666D01*
X84666666Y-115739333D01*
X84328000Y-115739333D01*
X84158666Y-115654666D01*
X83989333Y-115485333D01*
X83904666Y-115146666D01*
X83904666Y-114554000D01*
X83989333Y-114215333D01*
X84158666Y-114046000D01*
X84328000Y-113961333D01*
X86190666Y-113961333D02*
X86529333Y-113961333D01*
X86698666Y-114046000D01*
X86868000Y-114215333D01*
X86952666Y-114554000D01*
X86952666Y-115146666D01*
X86868000Y-115485333D01*
X86698666Y-115654666D01*
X86529333Y-115739333D01*
X86190666Y-115739333D01*
X86021333Y-115654666D01*
X85852000Y-115485333D01*
X85767333Y-115146666D01*
X85767333Y-114554000D01*
X85852000Y-114215333D01*
X86021333Y-114046000D01*
X86190666Y-113961333D01*
X88053333Y-113961333D02*
X88392000Y-113961333D01*
X88561333Y-114046000D01*
X88730666Y-114215333D01*
X88815333Y-114554000D01*
X88815333Y-115146666D01*
X88730666Y-115485333D01*
X88561333Y-115654666D01*
X88392000Y-115739333D01*
X88053333Y-115739333D01*
X87884000Y-115654666D01*
X87714666Y-115485333D01*
X87630000Y-115146666D01*
X87630000Y-114554000D01*
X87714666Y-114215333D01*
X87884000Y-114046000D01*
X88053333Y-113961333D01*
X90424000Y-113961333D02*
X89577333Y-113961333D01*
X89492666Y-114808000D01*
X89577333Y-114723333D01*
X89746666Y-114638666D01*
X90170000Y-114638666D01*
X90339333Y-114723333D01*
X90424000Y-114808000D01*
X90508666Y-114977333D01*
X90508666Y-115400666D01*
X90424000Y-115570000D01*
X90339333Y-115654666D01*
X90170000Y-115739333D01*
X89746666Y-115739333D01*
X89577333Y-115654666D01*
X89492666Y-115570000D01*
X92032666Y-114554000D02*
X92032666Y-115739333D01*
X91609333Y-113876666D02*
X91186000Y-115146666D01*
X92286666Y-115146666D01*
X93726000Y-114554000D02*
X93726000Y-115739333D01*
X93302666Y-113876666D02*
X92879333Y-115146666D01*
X93980000Y-115146666D01*
X117983000Y-146346333D02*
X118321666Y-146346333D01*
X118491000Y-146431000D01*
X118660333Y-146600333D01*
X118745000Y-146939000D01*
X118745000Y-147531666D01*
X118660333Y-147870333D01*
X118491000Y-148039666D01*
X118321666Y-148124333D01*
X117983000Y-148124333D01*
X117813666Y-148039666D01*
X117644333Y-147870333D01*
X117559666Y-147531666D01*
X117559666Y-146939000D01*
X117644333Y-146600333D01*
X117813666Y-146431000D01*
X117983000Y-146346333D01*
X119845666Y-146346333D02*
X120184333Y-146346333D01*
X120353666Y-146431000D01*
X120523000Y-146600333D01*
X120607666Y-146939000D01*
X120607666Y-147531666D01*
X120523000Y-147870333D01*
X120353666Y-148039666D01*
X120184333Y-148124333D01*
X119845666Y-148124333D01*
X119676333Y-148039666D01*
X119507000Y-147870333D01*
X119422333Y-147531666D01*
X119422333Y-146939000D01*
X119507000Y-146600333D01*
X119676333Y-146431000D01*
X119845666Y-146346333D01*
X121708333Y-146346333D02*
X122047000Y-146346333D01*
X122216333Y-146431000D01*
X122385666Y-146600333D01*
X122470333Y-146939000D01*
X122470333Y-147531666D01*
X122385666Y-147870333D01*
X122216333Y-148039666D01*
X122047000Y-148124333D01*
X121708333Y-148124333D01*
X121539000Y-148039666D01*
X121369666Y-147870333D01*
X121285000Y-147531666D01*
X121285000Y-146939000D01*
X121369666Y-146600333D01*
X121539000Y-146431000D01*
X121708333Y-146346333D01*
X124079000Y-146346333D02*
X123232333Y-146346333D01*
X123147666Y-147193000D01*
X123232333Y-147108333D01*
X123401666Y-147023666D01*
X123825000Y-147023666D01*
X123994333Y-147108333D01*
X124079000Y-147193000D01*
X124163666Y-147362333D01*
X124163666Y-147785666D01*
X124079000Y-147955000D01*
X123994333Y-148039666D01*
X123825000Y-148124333D01*
X123401666Y-148124333D01*
X123232333Y-148039666D01*
X123147666Y-147955000D01*
X125687666Y-146939000D02*
X125687666Y-148124333D01*
X125264333Y-146261666D02*
X124841000Y-147531666D01*
X125941666Y-147531666D01*
X126449666Y-146346333D02*
X127550333Y-146346333D01*
X126957666Y-147023666D01*
X127211666Y-147023666D01*
X127381000Y-147108333D01*
X127465666Y-147193000D01*
X127550333Y-147362333D01*
X127550333Y-147785666D01*
X127465666Y-147955000D01*
X127381000Y-148039666D01*
X127211666Y-148124333D01*
X126703666Y-148124333D01*
X126534333Y-148039666D01*
X126449666Y-147955000D01*
X131699000Y-148124333D02*
X131106333Y-147277666D01*
X130683000Y-148124333D02*
X130683000Y-146346333D01*
X131360333Y-146346333D01*
X131529666Y-146431000D01*
X131614333Y-146515666D01*
X131699000Y-146685000D01*
X131699000Y-146939000D01*
X131614333Y-147108333D01*
X131529666Y-147193000D01*
X131360333Y-147277666D01*
X130683000Y-147277666D01*
X132461000Y-147193000D02*
X133053666Y-147193000D01*
X133307666Y-148124333D02*
X132461000Y-148124333D01*
X132461000Y-146346333D01*
X133307666Y-146346333D01*
X133815666Y-146346333D02*
X134408333Y-148124333D01*
X135001000Y-146346333D01*
X108881333Y-147616333D02*
X109728000Y-147616333D01*
X108712000Y-148124333D02*
X109304666Y-146346333D01*
X109897333Y-148124333D01*
X110405333Y-148039666D02*
X110659333Y-148124333D01*
X111082666Y-148124333D01*
X111252000Y-148039666D01*
X111336666Y-147955000D01*
X111421333Y-147785666D01*
X111421333Y-147616333D01*
X111336666Y-147447000D01*
X111252000Y-147362333D01*
X111082666Y-147277666D01*
X110744000Y-147193000D01*
X110574666Y-147108333D01*
X110490000Y-147023666D01*
X110405333Y-146854333D01*
X110405333Y-146685000D01*
X110490000Y-146515666D01*
X110574666Y-146431000D01*
X110744000Y-146346333D01*
X111167333Y-146346333D01*
X111421333Y-146431000D01*
X112098666Y-148039666D02*
X112352666Y-148124333D01*
X112776000Y-148124333D01*
X112945333Y-148039666D01*
X113030000Y-147955000D01*
X113114666Y-147785666D01*
X113114666Y-147616333D01*
X113030000Y-147447000D01*
X112945333Y-147362333D01*
X112776000Y-147277666D01*
X112437333Y-147193000D01*
X112268000Y-147108333D01*
X112183333Y-147023666D01*
X112098666Y-146854333D01*
X112098666Y-146685000D01*
X112183333Y-146515666D01*
X112268000Y-146431000D01*
X112437333Y-146346333D01*
X112860666Y-146346333D01*
X113114666Y-146431000D01*
X114215333Y-147277666D02*
X114215333Y-148124333D01*
X113622666Y-146346333D02*
X114215333Y-147277666D01*
X114808000Y-146346333D01*
X106045000Y-126873000D02*
X106129666Y-126957666D01*
X106214333Y-127211666D01*
X106214333Y-127381000D01*
X106129666Y-127635000D01*
X105960333Y-127804333D01*
X105791000Y-127889000D01*
X105452333Y-127973666D01*
X105198333Y-127973666D01*
X104859666Y-127889000D01*
X104690333Y-127804333D01*
X104521000Y-127635000D01*
X104436333Y-127381000D01*
X104436333Y-127211666D01*
X104521000Y-126957666D01*
X104605666Y-126873000D01*
X104436333Y-125772333D02*
X104436333Y-125433666D01*
X104521000Y-125264333D01*
X104690333Y-125095000D01*
X105029000Y-125010333D01*
X105621666Y-125010333D01*
X105960333Y-125095000D01*
X106129666Y-125264333D01*
X106214333Y-125433666D01*
X106214333Y-125772333D01*
X106129666Y-125941666D01*
X105960333Y-126111000D01*
X105621666Y-126195666D01*
X105029000Y-126195666D01*
X104690333Y-126111000D01*
X104521000Y-125941666D01*
X104436333Y-125772333D01*
X106214333Y-124248333D02*
X104436333Y-124248333D01*
X105706333Y-123655666D01*
X104436333Y-123063000D01*
X106214333Y-123063000D01*
X106214333Y-122216333D02*
X104436333Y-122216333D01*
X104436333Y-121539000D01*
X104521000Y-121369666D01*
X104605666Y-121285000D01*
X104775000Y-121200333D01*
X105029000Y-121200333D01*
X105198333Y-121285000D01*
X105283000Y-121369666D01*
X105367666Y-121539000D01*
X105367666Y-122216333D01*
X104436333Y-120438333D02*
X105875666Y-120438333D01*
X106045000Y-120353666D01*
X106129666Y-120269000D01*
X106214333Y-120099666D01*
X106214333Y-119761000D01*
X106129666Y-119591666D01*
X106045000Y-119507000D01*
X105875666Y-119422333D01*
X104436333Y-119422333D01*
X104436333Y-118829666D02*
X104436333Y-117813666D01*
X106214333Y-118321666D02*
X104436333Y-118321666D01*
X105283000Y-117221000D02*
X105283000Y-116628333D01*
X106214333Y-116374333D02*
X106214333Y-117221000D01*
X104436333Y-117221000D01*
X104436333Y-116374333D01*
X106214333Y-114596333D02*
X105367666Y-115189000D01*
X106214333Y-115612333D02*
X104436333Y-115612333D01*
X104436333Y-114935000D01*
X104521000Y-114765666D01*
X104605666Y-114681000D01*
X104775000Y-114596333D01*
X105029000Y-114596333D01*
X105198333Y-114681000D01*
X105283000Y-114765666D01*
X105367666Y-114935000D01*
X105367666Y-115612333D01*
X153204333Y-148039666D02*
X153458333Y-148124333D01*
X153881666Y-148124333D01*
X154051000Y-148039666D01*
X154135666Y-147955000D01*
X154220333Y-147785666D01*
X154220333Y-147616333D01*
X154135666Y-147447000D01*
X154051000Y-147362333D01*
X153881666Y-147277666D01*
X153543000Y-147193000D01*
X153373666Y-147108333D01*
X153289000Y-147023666D01*
X153204333Y-146854333D01*
X153204333Y-146685000D01*
X153289000Y-146515666D01*
X153373666Y-146431000D01*
X153543000Y-146346333D01*
X153966333Y-146346333D01*
X154220333Y-146431000D01*
X156252333Y-146261666D02*
X154728333Y-148547666D01*
X156845000Y-148124333D02*
X156845000Y-146346333D01*
X157861000Y-148124333D01*
X157861000Y-146346333D01*
X106045000Y-139234333D02*
X106129666Y-139319000D01*
X106214333Y-139573000D01*
X106214333Y-139742333D01*
X106129666Y-139996333D01*
X105960333Y-140165666D01*
X105791000Y-140250333D01*
X105452333Y-140335000D01*
X105198333Y-140335000D01*
X104859666Y-140250333D01*
X104690333Y-140165666D01*
X104521000Y-139996333D01*
X104436333Y-139742333D01*
X104436333Y-139573000D01*
X104521000Y-139319000D01*
X104605666Y-139234333D01*
X104436333Y-138133666D02*
X104436333Y-137795000D01*
X104521000Y-137625666D01*
X104690333Y-137456333D01*
X105029000Y-137371666D01*
X105621666Y-137371666D01*
X105960333Y-137456333D01*
X106129666Y-137625666D01*
X106214333Y-137795000D01*
X106214333Y-138133666D01*
X106129666Y-138303000D01*
X105960333Y-138472333D01*
X105621666Y-138557000D01*
X105029000Y-138557000D01*
X104690333Y-138472333D01*
X104521000Y-138303000D01*
X104436333Y-138133666D01*
X106214333Y-136609666D02*
X104436333Y-136609666D01*
X105706333Y-136017000D01*
X104436333Y-135424333D01*
X106214333Y-135424333D01*
X106214333Y-134577666D02*
X104436333Y-134577666D01*
X104436333Y-133900333D01*
X104521000Y-133731000D01*
X104605666Y-133646333D01*
X104775000Y-133561666D01*
X105029000Y-133561666D01*
X105198333Y-133646333D01*
X105283000Y-133731000D01*
X105367666Y-133900333D01*
X105367666Y-134577666D01*
X105706333Y-132884333D02*
X105706333Y-132037666D01*
X106214333Y-133053666D02*
X104436333Y-132461000D01*
X106214333Y-131868333D01*
X106383666Y-130090333D02*
X106299000Y-130259666D01*
X106129666Y-130429000D01*
X105875666Y-130683000D01*
X105791000Y-130852333D01*
X105791000Y-131021666D01*
X106214333Y-130937000D02*
X106129666Y-131106333D01*
X105960333Y-131275666D01*
X105621666Y-131360333D01*
X105029000Y-131360333D01*
X104690333Y-131275666D01*
X104521000Y-131106333D01*
X104436333Y-130937000D01*
X104436333Y-130598333D01*
X104521000Y-130429000D01*
X104690333Y-130259666D01*
X105029000Y-130175000D01*
X105621666Y-130175000D01*
X105960333Y-130259666D01*
X106129666Y-130429000D01*
X106214333Y-130598333D01*
X106214333Y-130937000D01*
D11*
X149805571Y-135055428D02*
X149805571Y-136144000D01*
X149733000Y-136361714D01*
X149587857Y-136506857D01*
X149370142Y-136579428D01*
X149225000Y-136579428D01*
X151257000Y-136579428D02*
X150531285Y-136579428D01*
X150531285Y-135055428D01*
X152635857Y-136434285D02*
X152563285Y-136506857D01*
X152345571Y-136579428D01*
X152200428Y-136579428D01*
X151982714Y-136506857D01*
X151837571Y-136361714D01*
X151765000Y-136216571D01*
X151692428Y-135926285D01*
X151692428Y-135708571D01*
X151765000Y-135418285D01*
X151837571Y-135273142D01*
X151982714Y-135128000D01*
X152200428Y-135055428D01*
X152345571Y-135055428D01*
X152563285Y-135128000D01*
X152635857Y-135200571D01*
X153724428Y-135055428D02*
X153724428Y-136144000D01*
X153651857Y-136361714D01*
X153506714Y-136506857D01*
X153289000Y-136579428D01*
X153143857Y-136579428D01*
X155175857Y-136579428D02*
X154450142Y-136579428D01*
X154450142Y-135055428D01*
X156554714Y-136434285D02*
X156482142Y-136506857D01*
X156264428Y-136579428D01*
X156119285Y-136579428D01*
X155901571Y-136506857D01*
X155756428Y-136361714D01*
X155683857Y-136216571D01*
X155611285Y-135926285D01*
X155611285Y-135708571D01*
X155683857Y-135418285D01*
X155756428Y-135273142D01*
X155901571Y-135128000D01*
X156119285Y-135055428D01*
X156264428Y-135055428D01*
X156482142Y-135128000D01*
X156554714Y-135200571D01*
X157643285Y-135055428D02*
X157643285Y-136144000D01*
X157570714Y-136361714D01*
X157425571Y-136506857D01*
X157207857Y-136579428D01*
X157062714Y-136579428D01*
X159094714Y-136579428D02*
X158369000Y-136579428D01*
X158369000Y-135055428D01*
X160473571Y-136434285D02*
X160401000Y-136506857D01*
X160183285Y-136579428D01*
X160038142Y-136579428D01*
X159820428Y-136506857D01*
X159675285Y-136361714D01*
X159602714Y-136216571D01*
X159530142Y-135926285D01*
X159530142Y-135708571D01*
X159602714Y-135418285D01*
X159675285Y-135273142D01*
X159820428Y-135128000D01*
X160038142Y-135055428D01*
X160183285Y-135055428D01*
X160401000Y-135128000D01*
X160473571Y-135200571D01*
X161562142Y-135055428D02*
X161562142Y-136144000D01*
X161489571Y-136361714D01*
X161344428Y-136506857D01*
X161126714Y-136579428D01*
X160981571Y-136579428D01*
X163013571Y-136579428D02*
X162287857Y-136579428D01*
X162287857Y-135055428D01*
X164392428Y-136434285D02*
X164319857Y-136506857D01*
X164102142Y-136579428D01*
X163957000Y-136579428D01*
X163739285Y-136506857D01*
X163594142Y-136361714D01*
X163521571Y-136216571D01*
X163449000Y-135926285D01*
X163449000Y-135708571D01*
X163521571Y-135418285D01*
X163594142Y-135273142D01*
X163739285Y-135128000D01*
X163957000Y-135055428D01*
X164102142Y-135055428D01*
X164319857Y-135128000D01*
X164392428Y-135200571D01*
D10*
X189907333Y-147193000D02*
X190500000Y-147193000D01*
X190754000Y-148124333D02*
X189907333Y-148124333D01*
X189907333Y-146346333D01*
X190754000Y-146346333D01*
X191346666Y-146346333D02*
X192532000Y-148124333D01*
X192532000Y-146346333D02*
X191346666Y-148124333D01*
X193209333Y-148124333D02*
X193209333Y-146346333D01*
X193886666Y-146346333D01*
X194056000Y-146431000D01*
X194140666Y-146515666D01*
X194225333Y-146685000D01*
X194225333Y-146939000D01*
X194140666Y-147108333D01*
X194056000Y-147193000D01*
X193886666Y-147277666D01*
X193209333Y-147277666D01*
X194902666Y-147616333D02*
X195749333Y-147616333D01*
X194733333Y-148124333D02*
X195326000Y-146346333D01*
X195918666Y-148124333D01*
X196511333Y-148124333D02*
X196511333Y-146346333D01*
X197527333Y-148124333D01*
X197527333Y-146346333D01*
X198289333Y-148039666D02*
X198543333Y-148124333D01*
X198966666Y-148124333D01*
X199136000Y-148039666D01*
X199220666Y-147955000D01*
X199305333Y-147785666D01*
X199305333Y-147616333D01*
X199220666Y-147447000D01*
X199136000Y-147362333D01*
X198966666Y-147277666D01*
X198628000Y-147193000D01*
X198458666Y-147108333D01*
X198374000Y-147023666D01*
X198289333Y-146854333D01*
X198289333Y-146685000D01*
X198374000Y-146515666D01*
X198458666Y-146431000D01*
X198628000Y-146346333D01*
X199051333Y-146346333D01*
X199305333Y-146431000D01*
X200067333Y-148124333D02*
X200067333Y-146346333D01*
X201252666Y-146346333D02*
X201591333Y-146346333D01*
X201760666Y-146431000D01*
X201930000Y-146600333D01*
X202014666Y-146939000D01*
X202014666Y-147531666D01*
X201930000Y-147870333D01*
X201760666Y-148039666D01*
X201591333Y-148124333D01*
X201252666Y-148124333D01*
X201083333Y-148039666D01*
X200914000Y-147870333D01*
X200829333Y-147531666D01*
X200829333Y-146939000D01*
X200914000Y-146600333D01*
X201083333Y-146431000D01*
X201252666Y-146346333D01*
X202776666Y-148124333D02*
X202776666Y-146346333D01*
X203792666Y-148124333D01*
X203792666Y-146346333D01*
X75565000Y-115739333D02*
X75565000Y-113961333D01*
X75988333Y-113961333D01*
X76242333Y-114046000D01*
X76411666Y-114215333D01*
X76496333Y-114384666D01*
X76581000Y-114723333D01*
X76581000Y-114977333D01*
X76496333Y-115316000D01*
X76411666Y-115485333D01*
X76242333Y-115654666D01*
X75988333Y-115739333D01*
X75565000Y-115739333D01*
X77343000Y-115739333D02*
X77343000Y-113961333D01*
X78105000Y-115231333D02*
X78951666Y-115231333D01*
X77935666Y-115739333D02*
X78528333Y-113961333D01*
X79121000Y-115739333D01*
X80645000Y-114046000D02*
X80475666Y-113961333D01*
X80221666Y-113961333D01*
X79967666Y-114046000D01*
X79798333Y-114215333D01*
X79713666Y-114384666D01*
X79629000Y-114723333D01*
X79629000Y-114977333D01*
X79713666Y-115316000D01*
X79798333Y-115485333D01*
X79967666Y-115654666D01*
X80221666Y-115739333D01*
X80391000Y-115739333D01*
X80645000Y-115654666D01*
X80729666Y-115570000D01*
X80729666Y-114977333D01*
X80391000Y-114977333D01*
X176584428Y-57984571D02*
X176584428Y-58855428D01*
X176584428Y-58420000D02*
X175060428Y-58420000D01*
X175278142Y-58565142D01*
X175423285Y-58710285D01*
X175495857Y-58855428D01*
X90805000Y-88273043D02*
X90805000Y-86495043D01*
X91397666Y-87765043D01*
X91990333Y-86495043D01*
X91990333Y-88273043D01*
X92752333Y-87765043D02*
X93599000Y-87765043D01*
X92583000Y-88273043D02*
X93175666Y-86495043D01*
X93768333Y-88273043D01*
X94361000Y-88273043D02*
X94361000Y-86495043D01*
X94784333Y-86495043D01*
X95038333Y-86579710D01*
X95207666Y-86749043D01*
X95292333Y-86918376D01*
X95377000Y-87257043D01*
X95377000Y-87511043D01*
X95292333Y-87849710D01*
X95207666Y-88019043D01*
X95038333Y-88188376D01*
X94784333Y-88273043D01*
X94361000Y-88273043D01*
X96139000Y-87341710D02*
X96731666Y-87341710D01*
X96985666Y-88273043D02*
X96139000Y-88273043D01*
X96139000Y-86495043D01*
X96985666Y-86495043D01*
X99102333Y-88273043D02*
X99102333Y-86495043D01*
X99949000Y-88273043D02*
X99949000Y-86495043D01*
X100965000Y-88273043D01*
X100965000Y-86495043D01*
X92921666Y-89357623D02*
X92921666Y-90796956D01*
X93006333Y-90966290D01*
X93091000Y-91050956D01*
X93260333Y-91135623D01*
X93599000Y-91135623D01*
X93768333Y-91050956D01*
X93853000Y-90966290D01*
X93937666Y-90796956D01*
X93937666Y-89357623D01*
X94784333Y-90966290D02*
X94869000Y-91050956D01*
X94784333Y-91135623D01*
X94699666Y-91050956D01*
X94784333Y-90966290D01*
X94784333Y-91135623D01*
X95546333Y-91050956D02*
X95800333Y-91135623D01*
X96223666Y-91135623D01*
X96393000Y-91050956D01*
X96477666Y-90966290D01*
X96562333Y-90796956D01*
X96562333Y-90627623D01*
X96477666Y-90458290D01*
X96393000Y-90373623D01*
X96223666Y-90288956D01*
X95885000Y-90204290D01*
X95715666Y-90119623D01*
X95631000Y-90034956D01*
X95546333Y-89865623D01*
X95546333Y-89696290D01*
X95631000Y-89526956D01*
X95715666Y-89442290D01*
X95885000Y-89357623D01*
X96308333Y-89357623D01*
X96562333Y-89442290D01*
X97324333Y-90966290D02*
X97409000Y-91050956D01*
X97324333Y-91135623D01*
X97239666Y-91050956D01*
X97324333Y-90966290D01*
X97324333Y-91135623D01*
X98086333Y-90627623D02*
X98933000Y-90627623D01*
X97917000Y-91135623D02*
X98509666Y-89357623D01*
X99102333Y-91135623D01*
X176614666Y-148124333D02*
X176614666Y-146346333D01*
X177207333Y-147616333D01*
X177800000Y-146346333D01*
X177800000Y-148124333D01*
X178646666Y-147193000D02*
X179239333Y-147193000D01*
X179493333Y-148124333D02*
X178646666Y-148124333D01*
X178646666Y-146346333D01*
X179493333Y-146346333D01*
X180255333Y-148124333D02*
X180255333Y-146346333D01*
X180848000Y-147616333D01*
X181440666Y-146346333D01*
X181440666Y-148124333D01*
X182626000Y-146346333D02*
X182964666Y-146346333D01*
X183134000Y-146431000D01*
X183303333Y-146600333D01*
X183388000Y-146939000D01*
X183388000Y-147531666D01*
X183303333Y-147870333D01*
X183134000Y-148039666D01*
X182964666Y-148124333D01*
X182626000Y-148124333D01*
X182456666Y-148039666D01*
X182287333Y-147870333D01*
X182202666Y-147531666D01*
X182202666Y-146939000D01*
X182287333Y-146600333D01*
X182456666Y-146431000D01*
X182626000Y-146346333D01*
X185166000Y-148124333D02*
X184573333Y-147277666D01*
X184150000Y-148124333D02*
X184150000Y-146346333D01*
X184827333Y-146346333D01*
X184996666Y-146431000D01*
X185081333Y-146515666D01*
X185166000Y-146685000D01*
X185166000Y-146939000D01*
X185081333Y-147108333D01*
X184996666Y-147193000D01*
X184827333Y-147277666D01*
X184150000Y-147277666D01*
X186266666Y-147277666D02*
X186266666Y-148124333D01*
X185674000Y-146346333D02*
X186266666Y-147277666D01*
X186859333Y-146346333D01*
%TO.C,C9*%
X141986000Y-60234285D02*
X141913428Y-60306857D01*
X141695714Y-60379428D01*
X141550571Y-60379428D01*
X141332857Y-60306857D01*
X141187714Y-60161714D01*
X141115142Y-60016571D01*
X141042571Y-59726285D01*
X141042571Y-59508571D01*
X141115142Y-59218285D01*
X141187714Y-59073142D01*
X141332857Y-58928000D01*
X141550571Y-58855428D01*
X141695714Y-58855428D01*
X141913428Y-58928000D01*
X141986000Y-59000571D01*
X142711714Y-60379428D02*
X143002000Y-60379428D01*
X143147142Y-60306857D01*
X143219714Y-60234285D01*
X143364857Y-60016571D01*
X143437428Y-59726285D01*
X143437428Y-59145714D01*
X143364857Y-59000571D01*
X143292285Y-58928000D01*
X143147142Y-58855428D01*
X142856857Y-58855428D01*
X142711714Y-58928000D01*
X142639142Y-59000571D01*
X142566571Y-59145714D01*
X142566571Y-59508571D01*
X142639142Y-59653714D01*
X142711714Y-59726285D01*
X142856857Y-59798857D01*
X143147142Y-59798857D01*
X143292285Y-59726285D01*
X143364857Y-59653714D01*
X143437428Y-59508571D01*
%TO.C,U6*%
X70593857Y-56315428D02*
X70593857Y-57549142D01*
X70666428Y-57694285D01*
X70739000Y-57766857D01*
X70884142Y-57839428D01*
X71174428Y-57839428D01*
X71319571Y-57766857D01*
X71392142Y-57694285D01*
X71464714Y-57549142D01*
X71464714Y-56315428D01*
X72843571Y-56315428D02*
X72553285Y-56315428D01*
X72408142Y-56388000D01*
X72335571Y-56460571D01*
X72190428Y-56678285D01*
X72117857Y-56968571D01*
X72117857Y-57549142D01*
X72190428Y-57694285D01*
X72263000Y-57766857D01*
X72408142Y-57839428D01*
X72698428Y-57839428D01*
X72843571Y-57766857D01*
X72916142Y-57694285D01*
X72988714Y-57549142D01*
X72988714Y-57186285D01*
X72916142Y-57041142D01*
X72843571Y-56968571D01*
X72698428Y-56896000D01*
X72408142Y-56896000D01*
X72263000Y-56968571D01*
X72190428Y-57041142D01*
X72117857Y-57186285D01*
%TO.C,J114*%
X110257771Y-55045428D02*
X110257771Y-56134000D01*
X110185200Y-56351714D01*
X110040057Y-56496857D01*
X109822342Y-56569428D01*
X109677200Y-56569428D01*
X111781771Y-56569428D02*
X110910914Y-56569428D01*
X111346342Y-56569428D02*
X111346342Y-55045428D01*
X111201200Y-55263142D01*
X111056057Y-55408285D01*
X110910914Y-55480857D01*
X113233200Y-56569428D02*
X112362342Y-56569428D01*
X112797771Y-56569428D02*
X112797771Y-55045428D01*
X112652628Y-55263142D01*
X112507485Y-55408285D01*
X112362342Y-55480857D01*
X114539485Y-55553428D02*
X114539485Y-56569428D01*
X114176628Y-54972857D02*
X113813771Y-56061428D01*
X114757200Y-56061428D01*
%TO.C,C5*%
X69759285Y-68199000D02*
X69831857Y-68271571D01*
X69904428Y-68489285D01*
X69904428Y-68634428D01*
X69831857Y-68852142D01*
X69686714Y-68997285D01*
X69541571Y-69069857D01*
X69251285Y-69142428D01*
X69033571Y-69142428D01*
X68743285Y-69069857D01*
X68598142Y-68997285D01*
X68453000Y-68852142D01*
X68380428Y-68634428D01*
X68380428Y-68489285D01*
X68453000Y-68271571D01*
X68525571Y-68199000D01*
X68380428Y-66820142D02*
X68380428Y-67545857D01*
X69106142Y-67618428D01*
X69033571Y-67545857D01*
X68961000Y-67400714D01*
X68961000Y-67037857D01*
X69033571Y-66892714D01*
X69106142Y-66820142D01*
X69251285Y-66747571D01*
X69614142Y-66747571D01*
X69759285Y-66820142D01*
X69831857Y-66892714D01*
X69904428Y-67037857D01*
X69904428Y-67400714D01*
X69831857Y-67545857D01*
X69759285Y-67618428D01*
%TO.C,C3*%
X163525200Y-60234285D02*
X163452628Y-60306857D01*
X163234914Y-60379428D01*
X163089771Y-60379428D01*
X162872057Y-60306857D01*
X162726914Y-60161714D01*
X162654342Y-60016571D01*
X162581771Y-59726285D01*
X162581771Y-59508571D01*
X162654342Y-59218285D01*
X162726914Y-59073142D01*
X162872057Y-58928000D01*
X163089771Y-58855428D01*
X163234914Y-58855428D01*
X163452628Y-58928000D01*
X163525200Y-59000571D01*
X164033200Y-58855428D02*
X164976628Y-58855428D01*
X164468628Y-59436000D01*
X164686342Y-59436000D01*
X164831485Y-59508571D01*
X164904057Y-59581142D01*
X164976628Y-59726285D01*
X164976628Y-60089142D01*
X164904057Y-60234285D01*
X164831485Y-60306857D01*
X164686342Y-60379428D01*
X164250914Y-60379428D01*
X164105771Y-60306857D01*
X164033200Y-60234285D01*
%TO.C,J006*%
X205401333Y-81026000D02*
X206671333Y-81026000D01*
X206925333Y-81110666D01*
X207094666Y-81280000D01*
X207179333Y-81534000D01*
X207179333Y-81703333D01*
X205401333Y-79840666D02*
X205401333Y-79671333D01*
X205486000Y-79502000D01*
X205570666Y-79417333D01*
X205740000Y-79332666D01*
X206078666Y-79248000D01*
X206502000Y-79248000D01*
X206840666Y-79332666D01*
X207010000Y-79417333D01*
X207094666Y-79502000D01*
X207179333Y-79671333D01*
X207179333Y-79840666D01*
X207094666Y-80010000D01*
X207010000Y-80094666D01*
X206840666Y-80179333D01*
X206502000Y-80264000D01*
X206078666Y-80264000D01*
X205740000Y-80179333D01*
X205570666Y-80094666D01*
X205486000Y-80010000D01*
X205401333Y-79840666D01*
X205401333Y-78147333D02*
X205401333Y-77978000D01*
X205486000Y-77808666D01*
X205570666Y-77724000D01*
X205740000Y-77639333D01*
X206078666Y-77554666D01*
X206502000Y-77554666D01*
X206840666Y-77639333D01*
X207010000Y-77724000D01*
X207094666Y-77808666D01*
X207179333Y-77978000D01*
X207179333Y-78147333D01*
X207094666Y-78316666D01*
X207010000Y-78401333D01*
X206840666Y-78486000D01*
X206502000Y-78570666D01*
X206078666Y-78570666D01*
X205740000Y-78486000D01*
X205570666Y-78401333D01*
X205486000Y-78316666D01*
X205401333Y-78147333D01*
X205401333Y-76030666D02*
X205401333Y-76369333D01*
X205486000Y-76538666D01*
X205570666Y-76623333D01*
X205824666Y-76792666D01*
X206163333Y-76877333D01*
X206840666Y-76877333D01*
X207010000Y-76792666D01*
X207094666Y-76708000D01*
X207179333Y-76538666D01*
X207179333Y-76200000D01*
X207094666Y-76030666D01*
X207010000Y-75946000D01*
X206840666Y-75861333D01*
X206417333Y-75861333D01*
X206248000Y-75946000D01*
X206163333Y-76030666D01*
X206078666Y-76200000D01*
X206078666Y-76538666D01*
X206163333Y-76708000D01*
X206248000Y-76792666D01*
X206417333Y-76877333D01*
%TO.C,U5*%
X96039657Y-75096028D02*
X96039657Y-76329742D01*
X96112228Y-76474885D01*
X96184800Y-76547457D01*
X96329942Y-76620028D01*
X96620228Y-76620028D01*
X96765371Y-76547457D01*
X96837942Y-76474885D01*
X96910514Y-76329742D01*
X96910514Y-75096028D01*
X98361942Y-75096028D02*
X97636228Y-75096028D01*
X97563657Y-75821742D01*
X97636228Y-75749171D01*
X97781371Y-75676600D01*
X98144228Y-75676600D01*
X98289371Y-75749171D01*
X98361942Y-75821742D01*
X98434514Y-75966885D01*
X98434514Y-76329742D01*
X98361942Y-76474885D01*
X98289371Y-76547457D01*
X98144228Y-76620028D01*
X97781371Y-76620028D01*
X97636228Y-76547457D01*
X97563657Y-76474885D01*
%TO.C,C8*%
X69759285Y-113919000D02*
X69831857Y-113991571D01*
X69904428Y-114209285D01*
X69904428Y-114354428D01*
X69831857Y-114572142D01*
X69686714Y-114717285D01*
X69541571Y-114789857D01*
X69251285Y-114862428D01*
X69033571Y-114862428D01*
X68743285Y-114789857D01*
X68598142Y-114717285D01*
X68453000Y-114572142D01*
X68380428Y-114354428D01*
X68380428Y-114209285D01*
X68453000Y-113991571D01*
X68525571Y-113919000D01*
X69033571Y-113048142D02*
X68961000Y-113193285D01*
X68888428Y-113265857D01*
X68743285Y-113338428D01*
X68670714Y-113338428D01*
X68525571Y-113265857D01*
X68453000Y-113193285D01*
X68380428Y-113048142D01*
X68380428Y-112757857D01*
X68453000Y-112612714D01*
X68525571Y-112540142D01*
X68670714Y-112467571D01*
X68743285Y-112467571D01*
X68888428Y-112540142D01*
X68961000Y-112612714D01*
X69033571Y-112757857D01*
X69033571Y-113048142D01*
X69106142Y-113193285D01*
X69178714Y-113265857D01*
X69323857Y-113338428D01*
X69614142Y-113338428D01*
X69759285Y-113265857D01*
X69831857Y-113193285D01*
X69904428Y-113048142D01*
X69904428Y-112757857D01*
X69831857Y-112612714D01*
X69759285Y-112540142D01*
X69614142Y-112467571D01*
X69323857Y-112467571D01*
X69178714Y-112540142D01*
X69106142Y-112612714D01*
X69033571Y-112757857D01*
%TO.C,U4*%
X70639657Y-89335428D02*
X70639657Y-90569142D01*
X70712228Y-90714285D01*
X70784800Y-90786857D01*
X70929942Y-90859428D01*
X71220228Y-90859428D01*
X71365371Y-90786857D01*
X71437942Y-90714285D01*
X71510514Y-90569142D01*
X71510514Y-89335428D01*
X72889371Y-89843428D02*
X72889371Y-90859428D01*
X72526514Y-89262857D02*
X72163657Y-90351428D01*
X73107085Y-90351428D01*
%TO.C,J003*%
X205401333Y-119126000D02*
X206671333Y-119126000D01*
X206925333Y-119210666D01*
X207094666Y-119380000D01*
X207179333Y-119634000D01*
X207179333Y-119803333D01*
X205401333Y-117940666D02*
X205401333Y-117771333D01*
X205486000Y-117602000D01*
X205570666Y-117517333D01*
X205740000Y-117432666D01*
X206078666Y-117348000D01*
X206502000Y-117348000D01*
X206840666Y-117432666D01*
X207010000Y-117517333D01*
X207094666Y-117602000D01*
X207179333Y-117771333D01*
X207179333Y-117940666D01*
X207094666Y-118110000D01*
X207010000Y-118194666D01*
X206840666Y-118279333D01*
X206502000Y-118364000D01*
X206078666Y-118364000D01*
X205740000Y-118279333D01*
X205570666Y-118194666D01*
X205486000Y-118110000D01*
X205401333Y-117940666D01*
X205401333Y-116247333D02*
X205401333Y-116078000D01*
X205486000Y-115908666D01*
X205570666Y-115824000D01*
X205740000Y-115739333D01*
X206078666Y-115654666D01*
X206502000Y-115654666D01*
X206840666Y-115739333D01*
X207010000Y-115824000D01*
X207094666Y-115908666D01*
X207179333Y-116078000D01*
X207179333Y-116247333D01*
X207094666Y-116416666D01*
X207010000Y-116501333D01*
X206840666Y-116586000D01*
X206502000Y-116670666D01*
X206078666Y-116670666D01*
X205740000Y-116586000D01*
X205570666Y-116501333D01*
X205486000Y-116416666D01*
X205401333Y-116247333D01*
X205401333Y-115062000D02*
X205401333Y-113961333D01*
X206078666Y-114554000D01*
X206078666Y-114300000D01*
X206163333Y-114130666D01*
X206248000Y-114046000D01*
X206417333Y-113961333D01*
X206840666Y-113961333D01*
X207010000Y-114046000D01*
X207094666Y-114130666D01*
X207179333Y-114300000D01*
X207179333Y-114808000D01*
X207094666Y-114977333D01*
X207010000Y-115062000D01*
%TO.C,RN4*%
X98642714Y-99749428D02*
X98134714Y-99023714D01*
X97771857Y-99749428D02*
X97771857Y-98225428D01*
X98352428Y-98225428D01*
X98497571Y-98298000D01*
X98570142Y-98370571D01*
X98642714Y-98515714D01*
X98642714Y-98733428D01*
X98570142Y-98878571D01*
X98497571Y-98951142D01*
X98352428Y-99023714D01*
X97771857Y-99023714D01*
X99295857Y-99749428D02*
X99295857Y-98225428D01*
X100166714Y-99749428D01*
X100166714Y-98225428D01*
X101545571Y-98733428D02*
X101545571Y-99749428D01*
X101182714Y-98152857D02*
X100819857Y-99241428D01*
X101763285Y-99241428D01*
%TO.C,J002*%
X205401333Y-131826000D02*
X206671333Y-131826000D01*
X206925333Y-131910666D01*
X207094666Y-132080000D01*
X207179333Y-132334000D01*
X207179333Y-132503333D01*
X205401333Y-130640666D02*
X205401333Y-130471333D01*
X205486000Y-130302000D01*
X205570666Y-130217333D01*
X205740000Y-130132666D01*
X206078666Y-130048000D01*
X206502000Y-130048000D01*
X206840666Y-130132666D01*
X207010000Y-130217333D01*
X207094666Y-130302000D01*
X207179333Y-130471333D01*
X207179333Y-130640666D01*
X207094666Y-130810000D01*
X207010000Y-130894666D01*
X206840666Y-130979333D01*
X206502000Y-131064000D01*
X206078666Y-131064000D01*
X205740000Y-130979333D01*
X205570666Y-130894666D01*
X205486000Y-130810000D01*
X205401333Y-130640666D01*
X205401333Y-128947333D02*
X205401333Y-128778000D01*
X205486000Y-128608666D01*
X205570666Y-128524000D01*
X205740000Y-128439333D01*
X206078666Y-128354666D01*
X206502000Y-128354666D01*
X206840666Y-128439333D01*
X207010000Y-128524000D01*
X207094666Y-128608666D01*
X207179333Y-128778000D01*
X207179333Y-128947333D01*
X207094666Y-129116666D01*
X207010000Y-129201333D01*
X206840666Y-129286000D01*
X206502000Y-129370666D01*
X206078666Y-129370666D01*
X205740000Y-129286000D01*
X205570666Y-129201333D01*
X205486000Y-129116666D01*
X205401333Y-128947333D01*
X205570666Y-127677333D02*
X205486000Y-127592666D01*
X205401333Y-127423333D01*
X205401333Y-127000000D01*
X205486000Y-126830666D01*
X205570666Y-126746000D01*
X205740000Y-126661333D01*
X205909333Y-126661333D01*
X206163333Y-126746000D01*
X207179333Y-127762000D01*
X207179333Y-126661333D01*
%TO.C,U1*%
X166478857Y-57585428D02*
X166478857Y-58819142D01*
X166551428Y-58964285D01*
X166624000Y-59036857D01*
X166769142Y-59109428D01*
X167059428Y-59109428D01*
X167204571Y-59036857D01*
X167277142Y-58964285D01*
X167349714Y-58819142D01*
X167349714Y-57585428D01*
X168873714Y-59109428D02*
X168002857Y-59109428D01*
X168438285Y-59109428D02*
X168438285Y-57585428D01*
X168293142Y-57803142D01*
X168148000Y-57948285D01*
X168002857Y-58020857D01*
%TO.C,RN3*%
X118104114Y-74193393D02*
X117596114Y-73467679D01*
X117233257Y-74193393D02*
X117233257Y-72669393D01*
X117813828Y-72669393D01*
X117958971Y-72741965D01*
X118031542Y-72814536D01*
X118104114Y-72959679D01*
X118104114Y-73177393D01*
X118031542Y-73322536D01*
X117958971Y-73395107D01*
X117813828Y-73467679D01*
X117233257Y-73467679D01*
X118757257Y-74193393D02*
X118757257Y-72669393D01*
X119628114Y-74193393D01*
X119628114Y-72669393D01*
X120208685Y-72669393D02*
X121152114Y-72669393D01*
X120644114Y-73249965D01*
X120861828Y-73249965D01*
X121006971Y-73322536D01*
X121079542Y-73395107D01*
X121152114Y-73540250D01*
X121152114Y-73903107D01*
X121079542Y-74048250D01*
X121006971Y-74120822D01*
X120861828Y-74193393D01*
X120426400Y-74193393D01*
X120281257Y-74120822D01*
X120208685Y-74048250D01*
%TO.C,J005*%
X205401333Y-93726000D02*
X206671333Y-93726000D01*
X206925333Y-93810666D01*
X207094666Y-93980000D01*
X207179333Y-94234000D01*
X207179333Y-94403333D01*
X205401333Y-92540666D02*
X205401333Y-92371333D01*
X205486000Y-92202000D01*
X205570666Y-92117333D01*
X205740000Y-92032666D01*
X206078666Y-91948000D01*
X206502000Y-91948000D01*
X206840666Y-92032666D01*
X207010000Y-92117333D01*
X207094666Y-92202000D01*
X207179333Y-92371333D01*
X207179333Y-92540666D01*
X207094666Y-92710000D01*
X207010000Y-92794666D01*
X206840666Y-92879333D01*
X206502000Y-92964000D01*
X206078666Y-92964000D01*
X205740000Y-92879333D01*
X205570666Y-92794666D01*
X205486000Y-92710000D01*
X205401333Y-92540666D01*
X205401333Y-90847333D02*
X205401333Y-90678000D01*
X205486000Y-90508666D01*
X205570666Y-90424000D01*
X205740000Y-90339333D01*
X206078666Y-90254666D01*
X206502000Y-90254666D01*
X206840666Y-90339333D01*
X207010000Y-90424000D01*
X207094666Y-90508666D01*
X207179333Y-90678000D01*
X207179333Y-90847333D01*
X207094666Y-91016666D01*
X207010000Y-91101333D01*
X206840666Y-91186000D01*
X206502000Y-91270666D01*
X206078666Y-91270666D01*
X205740000Y-91186000D01*
X205570666Y-91101333D01*
X205486000Y-91016666D01*
X205401333Y-90847333D01*
X205401333Y-88646000D02*
X205401333Y-89492666D01*
X206248000Y-89577333D01*
X206163333Y-89492666D01*
X206078666Y-89323333D01*
X206078666Y-88900000D01*
X206163333Y-88730666D01*
X206248000Y-88646000D01*
X206417333Y-88561333D01*
X206840666Y-88561333D01*
X207010000Y-88646000D01*
X207094666Y-88730666D01*
X207179333Y-88900000D01*
X207179333Y-89323333D01*
X207094666Y-89492666D01*
X207010000Y-89577333D01*
%TO.C,C4*%
X194763686Y-65158120D02*
X194836258Y-65230691D01*
X194908829Y-65448405D01*
X194908829Y-65593548D01*
X194836258Y-65811262D01*
X194691115Y-65956405D01*
X194545972Y-66028977D01*
X194255686Y-66101548D01*
X194037972Y-66101548D01*
X193747686Y-66028977D01*
X193602543Y-65956405D01*
X193457401Y-65811262D01*
X193384829Y-65593548D01*
X193384829Y-65448405D01*
X193457401Y-65230691D01*
X193529972Y-65158120D01*
X193892829Y-63851834D02*
X194908829Y-63851834D01*
X193312258Y-64214691D02*
X194400829Y-64577548D01*
X194400829Y-63634120D01*
%TO.C,J001*%
X205401333Y-144843500D02*
X206671333Y-144843500D01*
X206925333Y-144928166D01*
X207094666Y-145097500D01*
X207179333Y-145351500D01*
X207179333Y-145520833D01*
X205401333Y-143658166D02*
X205401333Y-143488833D01*
X205486000Y-143319500D01*
X205570666Y-143234833D01*
X205740000Y-143150166D01*
X206078666Y-143065500D01*
X206502000Y-143065500D01*
X206840666Y-143150166D01*
X207010000Y-143234833D01*
X207094666Y-143319500D01*
X207179333Y-143488833D01*
X207179333Y-143658166D01*
X207094666Y-143827500D01*
X207010000Y-143912166D01*
X206840666Y-143996833D01*
X206502000Y-144081500D01*
X206078666Y-144081500D01*
X205740000Y-143996833D01*
X205570666Y-143912166D01*
X205486000Y-143827500D01*
X205401333Y-143658166D01*
X205401333Y-141964833D02*
X205401333Y-141795500D01*
X205486000Y-141626166D01*
X205570666Y-141541500D01*
X205740000Y-141456833D01*
X206078666Y-141372166D01*
X206502000Y-141372166D01*
X206840666Y-141456833D01*
X207010000Y-141541500D01*
X207094666Y-141626166D01*
X207179333Y-141795500D01*
X207179333Y-141964833D01*
X207094666Y-142134166D01*
X207010000Y-142218833D01*
X206840666Y-142303500D01*
X206502000Y-142388166D01*
X206078666Y-142388166D01*
X205740000Y-142303500D01*
X205570666Y-142218833D01*
X205486000Y-142134166D01*
X205401333Y-141964833D01*
X207179333Y-139678833D02*
X207179333Y-140694833D01*
X207179333Y-140186833D02*
X205401333Y-140186833D01*
X205655333Y-140356166D01*
X205824666Y-140525500D01*
X205909333Y-140694833D01*
%TO.C,C7*%
X69759285Y-101219000D02*
X69831857Y-101291571D01*
X69904428Y-101509285D01*
X69904428Y-101654428D01*
X69831857Y-101872142D01*
X69686714Y-102017285D01*
X69541571Y-102089857D01*
X69251285Y-102162428D01*
X69033571Y-102162428D01*
X68743285Y-102089857D01*
X68598142Y-102017285D01*
X68453000Y-101872142D01*
X68380428Y-101654428D01*
X68380428Y-101509285D01*
X68453000Y-101291571D01*
X68525571Y-101219000D01*
X68380428Y-100711000D02*
X68380428Y-99695000D01*
X69904428Y-100348142D01*
%TO.C,RN1*%
X178017714Y-74349428D02*
X177509714Y-73623714D01*
X177146857Y-74349428D02*
X177146857Y-72825428D01*
X177727428Y-72825428D01*
X177872571Y-72898000D01*
X177945142Y-72970571D01*
X178017714Y-73115714D01*
X178017714Y-73333428D01*
X177945142Y-73478571D01*
X177872571Y-73551142D01*
X177727428Y-73623714D01*
X177146857Y-73623714D01*
X178670857Y-74349428D02*
X178670857Y-72825428D01*
X179541714Y-74349428D01*
X179541714Y-72825428D01*
X181065714Y-74349428D02*
X180194857Y-74349428D01*
X180630285Y-74349428D02*
X180630285Y-72825428D01*
X180485142Y-73043142D01*
X180340000Y-73188285D01*
X180194857Y-73260857D01*
%TO.C,U3*%
X89008857Y-107750428D02*
X89008857Y-108984142D01*
X89081428Y-109129285D01*
X89154000Y-109201857D01*
X89299142Y-109274428D01*
X89589428Y-109274428D01*
X89734571Y-109201857D01*
X89807142Y-109129285D01*
X89879714Y-108984142D01*
X89879714Y-107750428D01*
X90460285Y-107750428D02*
X91403714Y-107750428D01*
X90895714Y-108331000D01*
X91113428Y-108331000D01*
X91258571Y-108403571D01*
X91331142Y-108476142D01*
X91403714Y-108621285D01*
X91403714Y-108984142D01*
X91331142Y-109129285D01*
X91258571Y-109201857D01*
X91113428Y-109274428D01*
X90678000Y-109274428D01*
X90532857Y-109201857D01*
X90460285Y-109129285D01*
%TO.C,J004*%
X205401333Y-106743500D02*
X206671333Y-106743500D01*
X206925333Y-106828166D01*
X207094666Y-106997500D01*
X207179333Y-107251500D01*
X207179333Y-107420833D01*
X205401333Y-105558166D02*
X205401333Y-105388833D01*
X205486000Y-105219500D01*
X205570666Y-105134833D01*
X205740000Y-105050166D01*
X206078666Y-104965500D01*
X206502000Y-104965500D01*
X206840666Y-105050166D01*
X207010000Y-105134833D01*
X207094666Y-105219500D01*
X207179333Y-105388833D01*
X207179333Y-105558166D01*
X207094666Y-105727500D01*
X207010000Y-105812166D01*
X206840666Y-105896833D01*
X206502000Y-105981500D01*
X206078666Y-105981500D01*
X205740000Y-105896833D01*
X205570666Y-105812166D01*
X205486000Y-105727500D01*
X205401333Y-105558166D01*
X205401333Y-103864833D02*
X205401333Y-103695500D01*
X205486000Y-103526166D01*
X205570666Y-103441500D01*
X205740000Y-103356833D01*
X206078666Y-103272166D01*
X206502000Y-103272166D01*
X206840666Y-103356833D01*
X207010000Y-103441500D01*
X207094666Y-103526166D01*
X207179333Y-103695500D01*
X207179333Y-103864833D01*
X207094666Y-104034166D01*
X207010000Y-104118833D01*
X206840666Y-104203500D01*
X206502000Y-104288166D01*
X206078666Y-104288166D01*
X205740000Y-104203500D01*
X205570666Y-104118833D01*
X205486000Y-104034166D01*
X205401333Y-103864833D01*
X205994000Y-101748166D02*
X207179333Y-101748166D01*
X205316666Y-102171500D02*
X206586666Y-102594833D01*
X206586666Y-101494166D01*
%TO.C,U2*%
X151873857Y-57585428D02*
X151873857Y-58819142D01*
X151946428Y-58964285D01*
X152019000Y-59036857D01*
X152164142Y-59109428D01*
X152454428Y-59109428D01*
X152599571Y-59036857D01*
X152672142Y-58964285D01*
X152744714Y-58819142D01*
X152744714Y-57585428D01*
X153397857Y-57730571D02*
X153470428Y-57658000D01*
X153615571Y-57585428D01*
X153978428Y-57585428D01*
X154123571Y-57658000D01*
X154196142Y-57730571D01*
X154268714Y-57875714D01*
X154268714Y-58020857D01*
X154196142Y-58238571D01*
X153325285Y-59109428D01*
X154268714Y-59109428D01*
%TO.C,C2*%
X103784400Y-60880085D02*
X103711828Y-60952657D01*
X103494114Y-61025228D01*
X103348971Y-61025228D01*
X103131257Y-60952657D01*
X102986114Y-60807514D01*
X102913542Y-60662371D01*
X102840971Y-60372085D01*
X102840971Y-60154371D01*
X102913542Y-59864085D01*
X102986114Y-59718942D01*
X103131257Y-59573800D01*
X103348971Y-59501228D01*
X103494114Y-59501228D01*
X103711828Y-59573800D01*
X103784400Y-59646371D01*
X104364971Y-59646371D02*
X104437542Y-59573800D01*
X104582685Y-59501228D01*
X104945542Y-59501228D01*
X105090685Y-59573800D01*
X105163257Y-59646371D01*
X105235828Y-59791514D01*
X105235828Y-59936657D01*
X105163257Y-60154371D01*
X104292400Y-61025228D01*
X105235828Y-61025228D01*
%TO.C,C1*%
X101320600Y-129271485D02*
X101248028Y-129344057D01*
X101030314Y-129416628D01*
X100885171Y-129416628D01*
X100667457Y-129344057D01*
X100522314Y-129198914D01*
X100449742Y-129053771D01*
X100377171Y-128763485D01*
X100377171Y-128545771D01*
X100449742Y-128255485D01*
X100522314Y-128110342D01*
X100667457Y-127965200D01*
X100885171Y-127892628D01*
X101030314Y-127892628D01*
X101248028Y-127965200D01*
X101320600Y-128037771D01*
X102772028Y-129416628D02*
X101901171Y-129416628D01*
X102336600Y-129416628D02*
X102336600Y-127892628D01*
X102191457Y-128110342D01*
X102046314Y-128255485D01*
X101901171Y-128328057D01*
%TO.C,U7*%
X130334657Y-57585428D02*
X130334657Y-58819142D01*
X130407228Y-58964285D01*
X130479800Y-59036857D01*
X130624942Y-59109428D01*
X130915228Y-59109428D01*
X131060371Y-59036857D01*
X131132942Y-58964285D01*
X131205514Y-58819142D01*
X131205514Y-57585428D01*
X131786085Y-57585428D02*
X132802085Y-57585428D01*
X132148942Y-59109428D01*
%TO.C,C6*%
X69759285Y-83439000D02*
X69831857Y-83511571D01*
X69904428Y-83729285D01*
X69904428Y-83874428D01*
X69831857Y-84092142D01*
X69686714Y-84237285D01*
X69541571Y-84309857D01*
X69251285Y-84382428D01*
X69033571Y-84382428D01*
X68743285Y-84309857D01*
X68598142Y-84237285D01*
X68453000Y-84092142D01*
X68380428Y-83874428D01*
X68380428Y-83729285D01*
X68453000Y-83511571D01*
X68525571Y-83439000D01*
X68380428Y-82132714D02*
X68380428Y-82423000D01*
X68453000Y-82568142D01*
X68525571Y-82640714D01*
X68743285Y-82785857D01*
X69033571Y-82858428D01*
X69614142Y-82858428D01*
X69759285Y-82785857D01*
X69831857Y-82713285D01*
X69904428Y-82568142D01*
X69904428Y-82277857D01*
X69831857Y-82132714D01*
X69759285Y-82060142D01*
X69614142Y-81987571D01*
X69251285Y-81987571D01*
X69106142Y-82060142D01*
X69033571Y-82132714D01*
X68961000Y-82277857D01*
X68961000Y-82568142D01*
X69033571Y-82713285D01*
X69106142Y-82785857D01*
X69251285Y-82858428D01*
%TO.C,RN5*%
X71972714Y-72444428D02*
X71464714Y-71718714D01*
X71101857Y-72444428D02*
X71101857Y-70920428D01*
X71682428Y-70920428D01*
X71827571Y-70993000D01*
X71900142Y-71065571D01*
X71972714Y-71210714D01*
X71972714Y-71428428D01*
X71900142Y-71573571D01*
X71827571Y-71646142D01*
X71682428Y-71718714D01*
X71101857Y-71718714D01*
X72625857Y-72444428D02*
X72625857Y-70920428D01*
X73496714Y-72444428D01*
X73496714Y-70920428D01*
X74948142Y-70920428D02*
X74222428Y-70920428D01*
X74149857Y-71646142D01*
X74222428Y-71573571D01*
X74367571Y-71501000D01*
X74730428Y-71501000D01*
X74875571Y-71573571D01*
X74948142Y-71646142D01*
X75020714Y-71791285D01*
X75020714Y-72154142D01*
X74948142Y-72299285D01*
X74875571Y-72371857D01*
X74730428Y-72444428D01*
X74367571Y-72444428D01*
X74222428Y-72371857D01*
X74149857Y-72299285D01*
%TO.C,RN6*%
X71337714Y-87684428D02*
X70829714Y-86958714D01*
X70466857Y-87684428D02*
X70466857Y-86160428D01*
X71047428Y-86160428D01*
X71192571Y-86233000D01*
X71265142Y-86305571D01*
X71337714Y-86450714D01*
X71337714Y-86668428D01*
X71265142Y-86813571D01*
X71192571Y-86886142D01*
X71047428Y-86958714D01*
X70466857Y-86958714D01*
X71990857Y-87684428D02*
X71990857Y-86160428D01*
X72861714Y-87684428D01*
X72861714Y-86160428D01*
X74240571Y-86160428D02*
X73950285Y-86160428D01*
X73805142Y-86233000D01*
X73732571Y-86305571D01*
X73587428Y-86523285D01*
X73514857Y-86813571D01*
X73514857Y-87394142D01*
X73587428Y-87539285D01*
X73660000Y-87611857D01*
X73805142Y-87684428D01*
X74095428Y-87684428D01*
X74240571Y-87611857D01*
X74313142Y-87539285D01*
X74385714Y-87394142D01*
X74385714Y-87031285D01*
X74313142Y-86886142D01*
X74240571Y-86813571D01*
X74095428Y-86741000D01*
X73805142Y-86741000D01*
X73660000Y-86813571D01*
X73587428Y-86886142D01*
X73514857Y-87031285D01*
%TO.C,E1*%
X178652714Y-58946142D02*
X179160714Y-58946142D01*
X179378428Y-59744428D02*
X178652714Y-59744428D01*
X178652714Y-58220428D01*
X179378428Y-58220428D01*
X180829857Y-59744428D02*
X179959000Y-59744428D01*
X180394428Y-59744428D02*
X180394428Y-58220428D01*
X180249285Y-58438142D01*
X180104142Y-58583285D01*
X179959000Y-58655857D01*
%TO.C,RN2*%
X150712714Y-74200588D02*
X150204714Y-73474874D01*
X149841857Y-74200588D02*
X149841857Y-72676588D01*
X150422428Y-72676588D01*
X150567571Y-72749160D01*
X150640142Y-72821731D01*
X150712714Y-72966874D01*
X150712714Y-73184588D01*
X150640142Y-73329731D01*
X150567571Y-73402302D01*
X150422428Y-73474874D01*
X149841857Y-73474874D01*
X151365857Y-74200588D02*
X151365857Y-72676588D01*
X152236714Y-74200588D01*
X152236714Y-72676588D01*
X152889857Y-72821731D02*
X152962428Y-72749160D01*
X153107571Y-72676588D01*
X153470428Y-72676588D01*
X153615571Y-72749160D01*
X153688142Y-72821731D01*
X153760714Y-72966874D01*
X153760714Y-73112017D01*
X153688142Y-73329731D01*
X152817285Y-74200588D01*
X153760714Y-74200588D01*
D12*
%TO.C,C9*%
X143610000Y-67280000D02*
X143610000Y-62340000D01*
X140870000Y-62340000D02*
X141185000Y-62340000D01*
X143295000Y-62340000D02*
X143610000Y-62340000D01*
X143295000Y-67280000D02*
X143610000Y-67280000D01*
X140870000Y-67280000D02*
X140870000Y-62340000D01*
X140870000Y-67280000D02*
X141185000Y-67280000D01*
%TO.C,U6*%
X95950000Y-60205000D02*
X70430000Y-60205000D01*
X70430000Y-65505000D02*
X95950000Y-65505000D01*
X70430000Y-60205000D02*
X70430000Y-61855000D01*
X95950000Y-65505000D02*
X95950000Y-60205000D01*
X70430000Y-63855000D02*
X70430000Y-65505000D01*
X70430000Y-63855000D02*
G75*
G03*
X70430000Y-61855000I0J1000000D01*
G01*
%TO.C,C5*%
X67845000Y-65335000D02*
X68160000Y-65335000D01*
X70270000Y-65335000D02*
X70585000Y-65335000D01*
X70585000Y-65335000D02*
X70585000Y-60395000D01*
X67845000Y-65335000D02*
X67845000Y-60395000D01*
X67845000Y-60395000D02*
X68160000Y-60395000D01*
X70270000Y-60395000D02*
X70585000Y-60395000D01*
%TO.C,C3*%
X162460000Y-67240000D02*
X162460000Y-62300000D01*
X165200000Y-67240000D02*
X165200000Y-62300000D01*
X162460000Y-62300000D02*
X162775000Y-62300000D01*
X162460000Y-67240000D02*
X162775000Y-67240000D01*
X164885000Y-62300000D02*
X165200000Y-62300000D01*
X164885000Y-67240000D02*
X165200000Y-67240000D01*
D10*
%TO.C,J006*%
X205105000Y-82550000D02*
X108585000Y-82550000D01*
X108585000Y-75565000D02*
X205105000Y-75565000D01*
X108585000Y-82550000D02*
X108585000Y-75565000D01*
X205105000Y-75565000D02*
X205105000Y-82550000D01*
D12*
%TO.C,U5*%
X70425000Y-75455000D02*
X70425000Y-77105000D01*
X95945000Y-75455000D02*
X70425000Y-75455000D01*
X70425000Y-80755000D02*
X95945000Y-80755000D01*
X70425000Y-79105000D02*
X70425000Y-80755000D01*
X95945000Y-80755000D02*
X95945000Y-75455000D01*
X70425000Y-79105000D02*
G75*
G03*
X70425000Y-77105000I0J1000000D01*
G01*
%TO.C,C8*%
X70585000Y-111095000D02*
X70585000Y-106155000D01*
X70270000Y-111095000D02*
X70585000Y-111095000D01*
X67845000Y-111095000D02*
X67845000Y-106155000D01*
X67845000Y-106155000D02*
X68160000Y-106155000D01*
X70270000Y-106155000D02*
X70585000Y-106155000D01*
X67845000Y-111095000D02*
X68160000Y-111095000D01*
%TO.C,U4*%
X70420000Y-96875000D02*
X70420000Y-98525000D01*
X70420000Y-98525000D02*
X88320000Y-98525000D01*
X88320000Y-93225000D02*
X70420000Y-93225000D01*
X88320000Y-98525000D02*
X88320000Y-93225000D01*
X70420000Y-93225000D02*
X70420000Y-94875000D01*
X70420000Y-96875000D02*
G75*
G03*
X70420000Y-94875000I0J1000000D01*
G01*
D10*
%TO.C,J003*%
X205105000Y-120650000D02*
X108585000Y-120650000D01*
X108585000Y-113665000D02*
X205105000Y-113665000D01*
X108585000Y-120650000D02*
X108585000Y-113665000D01*
X205105000Y-113665000D02*
X205105000Y-120650000D01*
D12*
%TO.C,RN4*%
X101095000Y-102870000D02*
X98295000Y-102870000D01*
X98295000Y-100160000D02*
X98295000Y-125900000D01*
X101095000Y-100160000D02*
X98295000Y-100160000D01*
X101095000Y-125900000D02*
X101095000Y-100160000D01*
X98295000Y-125900000D02*
X101095000Y-125900000D01*
D10*
%TO.C,J002*%
X108585000Y-126365000D02*
X205105000Y-126365000D01*
X205105000Y-133350000D02*
X108585000Y-133350000D01*
X205105000Y-126365000D02*
X205105000Y-133350000D01*
X108585000Y-133350000D02*
X108585000Y-126365000D01*
D12*
%TO.C,U1*%
X165680000Y-62110000D02*
X165680000Y-63760000D01*
X191200000Y-67410000D02*
X191200000Y-62110000D01*
X165680000Y-67410000D02*
X191200000Y-67410000D01*
X191200000Y-62110000D02*
X165680000Y-62110000D01*
X165680000Y-65760000D02*
X165680000Y-67410000D01*
X165680000Y-65760000D02*
G75*
G03*
X165680000Y-63760000I0J1000000D01*
G01*
%TO.C,RN3*%
X117310000Y-72520000D02*
X143050000Y-72520000D01*
X117310000Y-69720000D02*
X117310000Y-72520000D01*
X143050000Y-72520000D02*
X143050000Y-69720000D01*
X143050000Y-69720000D02*
X117310000Y-69720000D01*
X120020000Y-69720000D02*
X120020000Y-72520000D01*
D10*
%TO.C,J005*%
X108585000Y-95250000D02*
X108585000Y-88265000D01*
X108585000Y-88265000D02*
X205105000Y-88265000D01*
X205105000Y-88265000D02*
X205105000Y-95250000D01*
X205105000Y-95250000D02*
X108585000Y-95250000D01*
D12*
%TO.C,C4*%
X195349401Y-67374120D02*
X195349401Y-62434120D01*
X197774401Y-67374120D02*
X198089401Y-67374120D01*
X197774401Y-62434120D02*
X198089401Y-62434120D01*
X195349401Y-67374120D02*
X195664401Y-67374120D01*
X195349401Y-62434120D02*
X195664401Y-62434120D01*
X198089401Y-67374120D02*
X198089401Y-62434120D01*
D10*
%TO.C,J001*%
X205105000Y-139065000D02*
X205105000Y-146050000D01*
X205105000Y-146050000D02*
X108585000Y-146050000D01*
X108585000Y-139065000D02*
X205105000Y-139065000D01*
X108585000Y-146050000D02*
X108585000Y-139065000D01*
D12*
%TO.C,C7*%
X67845000Y-98355000D02*
X67845000Y-93415000D01*
X70270000Y-93415000D02*
X70585000Y-93415000D01*
X67845000Y-93415000D02*
X68160000Y-93415000D01*
X70585000Y-98355000D02*
X70585000Y-93415000D01*
X70270000Y-98355000D02*
X70585000Y-98355000D01*
X67845000Y-98355000D02*
X68160000Y-98355000D01*
%TO.C,RN1*%
X196390000Y-72520000D02*
X196390000Y-69720000D01*
X170650000Y-72520000D02*
X196390000Y-72520000D01*
X196390000Y-69720000D02*
X170650000Y-69720000D01*
X173360000Y-69720000D02*
X173360000Y-72520000D01*
X170650000Y-69720000D02*
X170650000Y-72520000D01*
%TO.C,U3*%
X88325000Y-111235000D02*
X88325000Y-105935000D01*
X88325000Y-105935000D02*
X70425000Y-105935000D01*
X70425000Y-109585000D02*
X70425000Y-111235000D01*
X70425000Y-105935000D02*
X70425000Y-107585000D01*
X70425000Y-111235000D02*
X88325000Y-111235000D01*
X70425000Y-109585000D02*
G75*
G03*
X70425000Y-107585000I0J1000000D01*
G01*
D10*
%TO.C,J004*%
X205105000Y-100965000D02*
X205105000Y-107950000D01*
X108585000Y-100965000D02*
X205105000Y-100965000D01*
X108585000Y-107950000D02*
X108585000Y-100965000D01*
X205105000Y-107950000D02*
X108585000Y-107950000D01*
D12*
%TO.C,U2*%
X144080000Y-67410000D02*
X161980000Y-67410000D01*
X161980000Y-67410000D02*
X161980000Y-62110000D01*
X161980000Y-62110000D02*
X144080000Y-62110000D01*
X144080000Y-62110000D02*
X144080000Y-63760000D01*
X144080000Y-65760000D02*
X144080000Y-67410000D01*
X144080000Y-65760000D02*
G75*
G03*
X144080000Y-63760000I0J1000000D01*
G01*
%TO.C,C2*%
X98575000Y-66839749D02*
X98575000Y-66239749D01*
X98275000Y-66539749D02*
X98875000Y-66539749D01*
X101390000Y-66434416D02*
G75*
G03*
X101390000Y-60565584I-1059999J2934416D01*
G01*
X99270000Y-60565584D02*
G75*
G03*
X99270000Y-66434416I1059999J-2934416D01*
G01*
%TO.C,C1*%
X97640000Y-135754749D02*
X98240000Y-135754749D01*
X97940000Y-136054749D02*
X97940000Y-135454749D01*
X98635000Y-129780584D02*
G75*
G03*
X98635000Y-135649416I1059999J-2934416D01*
G01*
X100755000Y-135649416D02*
G75*
G03*
X100755000Y-129780584I-1059999J2934416D01*
G01*
%TO.C,U7*%
X122495000Y-67420000D02*
X140395000Y-67420000D01*
X140395000Y-67420000D02*
X140395000Y-62120000D01*
X122495000Y-65770000D02*
X122495000Y-67420000D01*
X122495000Y-62120000D02*
X122495000Y-63770000D01*
X140395000Y-62120000D02*
X122495000Y-62120000D01*
X122495000Y-65770000D02*
G75*
G03*
X122495000Y-63770000I0J1000000D01*
G01*
%TO.C,C6*%
X70270000Y-80575000D02*
X70585000Y-80575000D01*
X67845000Y-80575000D02*
X68160000Y-80575000D01*
X67845000Y-75635000D02*
X68160000Y-75635000D01*
X70270000Y-75635000D02*
X70585000Y-75635000D01*
X70585000Y-80575000D02*
X70585000Y-75635000D01*
X67845000Y-80575000D02*
X67845000Y-75635000D01*
%TO.C,RN5*%
X70320000Y-67815000D02*
X70320000Y-70615000D01*
X70320000Y-70615000D02*
X96060000Y-70615000D01*
X96060000Y-70615000D02*
X96060000Y-67815000D01*
X96060000Y-67815000D02*
X70320000Y-67815000D01*
X73030000Y-67815000D02*
X73030000Y-70615000D01*
%TO.C,RN6*%
X70315000Y-83055000D02*
X70315000Y-85855000D01*
X73025000Y-83055000D02*
X73025000Y-85855000D01*
X70315000Y-85855000D02*
X96055000Y-85855000D01*
X96055000Y-85855000D02*
X96055000Y-83055000D01*
X96055000Y-83055000D02*
X70315000Y-83055000D01*
%TO.C,E1*%
X175895000Y-57845000D02*
X174565000Y-57845000D01*
X177165000Y-55185000D02*
X182305000Y-55185000D01*
X174565000Y-57845000D02*
X174565000Y-56515000D01*
X177165000Y-57845000D02*
X182305000Y-57845000D01*
X177165000Y-57845000D02*
X177165000Y-55185000D01*
X182305000Y-57845000D02*
X182305000Y-55185000D01*
%TO.C,RN2*%
X143980000Y-72520000D02*
X169720000Y-72520000D01*
X169720000Y-72520000D02*
X169720000Y-69720000D01*
X143980000Y-69720000D02*
X143980000Y-72520000D01*
X169720000Y-69720000D02*
X143980000Y-69720000D01*
X146690000Y-69720000D02*
X146690000Y-72520000D01*
%TD*%
D13*
%TO.C,J006*%
X120015000Y-78740000D03*
D14*
X122555000Y-78740000D03*
X125095000Y-78740000D03*
X127635000Y-78740000D03*
X130175000Y-78740000D03*
X132715000Y-78740000D03*
X135255000Y-78740000D03*
X137795000Y-78740000D03*
X140335000Y-78740000D03*
X142875000Y-78740000D03*
X145415000Y-78740000D03*
X147955000Y-78740000D03*
X150495000Y-78740000D03*
X153035000Y-78740000D03*
X155575000Y-78740000D03*
X158115000Y-78740000D03*
X160655000Y-78740000D03*
X163195000Y-78740000D03*
X165735000Y-78740000D03*
X168275000Y-78740000D03*
X170815000Y-78740000D03*
X173355000Y-78740000D03*
X175895000Y-78740000D03*
X178435000Y-78740000D03*
X180975000Y-78740000D03*
X183515000Y-78740000D03*
X186055000Y-78740000D03*
X188595000Y-78740000D03*
X191135000Y-78740000D03*
X193675000Y-78740000D03*
%TD*%
D13*
%TO.C,J003*%
X120015000Y-116840000D03*
D14*
X122555000Y-116840000D03*
X125095000Y-116840000D03*
X127635000Y-116840000D03*
X130175000Y-116840000D03*
X132715000Y-116840000D03*
X135255000Y-116840000D03*
X137795000Y-116840000D03*
X140335000Y-116840000D03*
X142875000Y-116840000D03*
X145415000Y-116840000D03*
X147955000Y-116840000D03*
X150495000Y-116840000D03*
X153035000Y-116840000D03*
X155575000Y-116840000D03*
X158115000Y-116840000D03*
X160655000Y-116840000D03*
X163195000Y-116840000D03*
X165735000Y-116840000D03*
X168275000Y-116840000D03*
X170815000Y-116840000D03*
X173355000Y-116840000D03*
X175895000Y-116840000D03*
X178435000Y-116840000D03*
X180975000Y-116840000D03*
X183515000Y-116840000D03*
X186055000Y-116840000D03*
X188595000Y-116840000D03*
X191135000Y-116840000D03*
X193675000Y-116840000D03*
%TD*%
D13*
%TO.C,J002*%
X120015000Y-129540000D03*
D14*
X122555000Y-129540000D03*
X125095000Y-129540000D03*
X127635000Y-129540000D03*
X130175000Y-129540000D03*
X132715000Y-129540000D03*
X135255000Y-129540000D03*
X137795000Y-129540000D03*
X140335000Y-129540000D03*
X142875000Y-129540000D03*
X145415000Y-129540000D03*
X147955000Y-129540000D03*
X150495000Y-129540000D03*
X153035000Y-129540000D03*
X155575000Y-129540000D03*
X158115000Y-129540000D03*
X160655000Y-129540000D03*
X163195000Y-129540000D03*
X165735000Y-129540000D03*
X168275000Y-129540000D03*
X170815000Y-129540000D03*
X173355000Y-129540000D03*
X175895000Y-129540000D03*
X178435000Y-129540000D03*
X180975000Y-129540000D03*
X183515000Y-129540000D03*
X186055000Y-129540000D03*
X188595000Y-129540000D03*
X191135000Y-129540000D03*
X193675000Y-129540000D03*
%TD*%
D13*
%TO.C,J005*%
X120015000Y-91440000D03*
D14*
X122555000Y-91440000D03*
X125095000Y-91440000D03*
X127635000Y-91440000D03*
X130175000Y-91440000D03*
X132715000Y-91440000D03*
X135255000Y-91440000D03*
X137795000Y-91440000D03*
X140335000Y-91440000D03*
X142875000Y-91440000D03*
X145415000Y-91440000D03*
X147955000Y-91440000D03*
X150495000Y-91440000D03*
X153035000Y-91440000D03*
X155575000Y-91440000D03*
X158115000Y-91440000D03*
X160655000Y-91440000D03*
X163195000Y-91440000D03*
X165735000Y-91440000D03*
X168275000Y-91440000D03*
X170815000Y-91440000D03*
X173355000Y-91440000D03*
X175895000Y-91440000D03*
X178435000Y-91440000D03*
X180975000Y-91440000D03*
X183515000Y-91440000D03*
X186055000Y-91440000D03*
X188595000Y-91440000D03*
X191135000Y-91440000D03*
X193675000Y-91440000D03*
%TD*%
D13*
%TO.C,J001*%
X120015000Y-142240000D03*
D14*
X122555000Y-142240000D03*
X125095000Y-142240000D03*
X127635000Y-142240000D03*
X130175000Y-142240000D03*
X132715000Y-142240000D03*
X135255000Y-142240000D03*
X137795000Y-142240000D03*
X140335000Y-142240000D03*
X142875000Y-142240000D03*
X145415000Y-142240000D03*
X147955000Y-142240000D03*
X150495000Y-142240000D03*
X153035000Y-142240000D03*
X155575000Y-142240000D03*
X158115000Y-142240000D03*
X160655000Y-142240000D03*
X163195000Y-142240000D03*
X165735000Y-142240000D03*
X168275000Y-142240000D03*
X170815000Y-142240000D03*
X173355000Y-142240000D03*
X175895000Y-142240000D03*
X178435000Y-142240000D03*
X180975000Y-142240000D03*
X183515000Y-142240000D03*
X186055000Y-142240000D03*
X188595000Y-142240000D03*
X191135000Y-142240000D03*
X193675000Y-142240000D03*
%TD*%
D13*
%TO.C,J004*%
X120015000Y-104140000D03*
D14*
X122555000Y-104140000D03*
X125095000Y-104140000D03*
X127635000Y-104140000D03*
X130175000Y-104140000D03*
X132715000Y-104140000D03*
X135255000Y-104140000D03*
X137795000Y-104140000D03*
X140335000Y-104140000D03*
X142875000Y-104140000D03*
X145415000Y-104140000D03*
X147955000Y-104140000D03*
X150495000Y-104140000D03*
X153035000Y-104140000D03*
X155575000Y-104140000D03*
X158115000Y-104140000D03*
X160655000Y-104140000D03*
X163195000Y-104140000D03*
X165735000Y-104140000D03*
X168275000Y-104140000D03*
X170815000Y-104140000D03*
X173355000Y-104140000D03*
X175895000Y-104140000D03*
X178435000Y-104140000D03*
X180975000Y-104140000D03*
X183515000Y-104140000D03*
X186055000Y-104140000D03*
X188595000Y-104140000D03*
X191135000Y-104140000D03*
X193675000Y-104140000D03*
%TD*%
%LPC*%
G36*
X135890000Y-143510000D02*
G01*
X151765000Y-143510000D01*
X151765000Y-148590000D01*
X135890000Y-148590000D01*
X135890000Y-143510000D01*
G37*
G36*
X159385000Y-143510000D02*
G01*
X175260000Y-143510000D01*
X175260000Y-148590000D01*
X159385000Y-148590000D01*
X159385000Y-143510000D01*
G37*
%TO.C,J114*%
G36*
X195402200Y-53975000D02*
G01*
X91262200Y-53975000D01*
X91262200Y-44450000D01*
X195402200Y-44450000D01*
X195402200Y-53975000D01*
G37*
D15*
X195402200Y-53975000D02*
X91262200Y-53975000D01*
X91262200Y-44450000D01*
X195402200Y-44450000D01*
X195402200Y-53975000D01*
%TD*%
D16*
%TO.C,H2*%
X203200000Y-64770000D03*
%TD*%
D17*
%TO.C,C9*%
X142240000Y-67310000D03*
X142240000Y-62310000D03*
%TD*%
D18*
%TO.C,U6*%
X71760000Y-66665000D03*
D19*
X74300000Y-66665000D03*
X76840000Y-66665000D03*
X79380000Y-66665000D03*
X81920000Y-66665000D03*
X84460000Y-66665000D03*
X87000000Y-66665000D03*
X89540000Y-66665000D03*
X92080000Y-66665000D03*
X94620000Y-66665000D03*
X94620000Y-59045000D03*
X92080000Y-59045000D03*
X89540000Y-59045000D03*
X87000000Y-59045000D03*
X84460000Y-59045000D03*
X81920000Y-59045000D03*
X79380000Y-59045000D03*
X76840000Y-59045000D03*
X74300000Y-59045000D03*
X71760000Y-59045000D03*
%TD*%
D17*
%TO.C,C5*%
X69215000Y-65365000D03*
X69215000Y-60365000D03*
%TD*%
D16*
%TO.C,H1*%
X99765000Y-142875000D03*
%TD*%
D17*
%TO.C,C3*%
X163830000Y-67270000D03*
X163830000Y-62270000D03*
%TD*%
D20*
%TO.C,J006*%
X203265000Y-78740000D03*
D21*
X110425000Y-78740000D03*
D13*
X120015000Y-78740000D03*
D14*
X122555000Y-78740000D03*
X125095000Y-78740000D03*
X127635000Y-78740000D03*
X130175000Y-78740000D03*
X132715000Y-78740000D03*
X135255000Y-78740000D03*
X137795000Y-78740000D03*
X140335000Y-78740000D03*
X142875000Y-78740000D03*
X145415000Y-78740000D03*
X147955000Y-78740000D03*
X150495000Y-78740000D03*
X153035000Y-78740000D03*
X155575000Y-78740000D03*
X158115000Y-78740000D03*
X160655000Y-78740000D03*
X163195000Y-78740000D03*
X165735000Y-78740000D03*
X168275000Y-78740000D03*
X170815000Y-78740000D03*
X173355000Y-78740000D03*
X175895000Y-78740000D03*
X178435000Y-78740000D03*
X180975000Y-78740000D03*
X183515000Y-78740000D03*
X186055000Y-78740000D03*
X188595000Y-78740000D03*
X191135000Y-78740000D03*
X193675000Y-78740000D03*
%TD*%
D18*
%TO.C,U5*%
X71755000Y-81915000D03*
D19*
X74295000Y-81915000D03*
X76835000Y-81915000D03*
X79375000Y-81915000D03*
X81915000Y-81915000D03*
X84455000Y-81915000D03*
X86995000Y-81915000D03*
X89535000Y-81915000D03*
X92075000Y-81915000D03*
X94615000Y-81915000D03*
X94615000Y-74295000D03*
X92075000Y-74295000D03*
X89535000Y-74295000D03*
X86995000Y-74295000D03*
X84455000Y-74295000D03*
X81915000Y-74295000D03*
X79375000Y-74295000D03*
X76835000Y-74295000D03*
X74295000Y-74295000D03*
X71755000Y-74295000D03*
%TD*%
D17*
%TO.C,C8*%
X69215000Y-111125000D03*
X69215000Y-106125000D03*
%TD*%
D18*
%TO.C,U4*%
X71750000Y-99685000D03*
D19*
X74290000Y-99685000D03*
X76830000Y-99685000D03*
X79370000Y-99685000D03*
X81910000Y-99685000D03*
X84450000Y-99685000D03*
X86990000Y-99685000D03*
X86990000Y-92065000D03*
X84450000Y-92065000D03*
X81910000Y-92065000D03*
X79370000Y-92065000D03*
X76830000Y-92065000D03*
X74290000Y-92065000D03*
X71750000Y-92065000D03*
%TD*%
D20*
%TO.C,J003*%
X203265000Y-116840000D03*
D21*
X110425000Y-116840000D03*
D13*
X120015000Y-116840000D03*
D14*
X122555000Y-116840000D03*
X125095000Y-116840000D03*
X127635000Y-116840000D03*
X130175000Y-116840000D03*
X132715000Y-116840000D03*
X135255000Y-116840000D03*
X137795000Y-116840000D03*
X140335000Y-116840000D03*
X142875000Y-116840000D03*
X145415000Y-116840000D03*
X147955000Y-116840000D03*
X150495000Y-116840000D03*
X153035000Y-116840000D03*
X155575000Y-116840000D03*
X158115000Y-116840000D03*
X160655000Y-116840000D03*
X163195000Y-116840000D03*
X165735000Y-116840000D03*
X168275000Y-116840000D03*
X170815000Y-116840000D03*
X173355000Y-116840000D03*
X175895000Y-116840000D03*
X178435000Y-116840000D03*
X180975000Y-116840000D03*
X183515000Y-116840000D03*
X186055000Y-116840000D03*
X188595000Y-116840000D03*
X191135000Y-116840000D03*
X193675000Y-116840000D03*
%TD*%
D18*
%TO.C,RN4*%
X99695000Y-101600000D03*
D19*
X99695000Y-104140000D03*
X99695000Y-106680000D03*
X99695000Y-109220000D03*
X99695000Y-111760000D03*
X99695000Y-114300000D03*
X99695000Y-116840000D03*
X99695000Y-119380000D03*
X99695000Y-121920000D03*
X99695000Y-124460000D03*
%TD*%
D21*
%TO.C,J002*%
X110425000Y-129540000D03*
D20*
X203265000Y-129540000D03*
D13*
X120015000Y-129540000D03*
D14*
X122555000Y-129540000D03*
X125095000Y-129540000D03*
X127635000Y-129540000D03*
X130175000Y-129540000D03*
X132715000Y-129540000D03*
X135255000Y-129540000D03*
X137795000Y-129540000D03*
X140335000Y-129540000D03*
X142875000Y-129540000D03*
X145415000Y-129540000D03*
X147955000Y-129540000D03*
X150495000Y-129540000D03*
X153035000Y-129540000D03*
X155575000Y-129540000D03*
X158115000Y-129540000D03*
X160655000Y-129540000D03*
X163195000Y-129540000D03*
X165735000Y-129540000D03*
X168275000Y-129540000D03*
X170815000Y-129540000D03*
X173355000Y-129540000D03*
X175895000Y-129540000D03*
X178435000Y-129540000D03*
X180975000Y-129540000D03*
X183515000Y-129540000D03*
X186055000Y-129540000D03*
X188595000Y-129540000D03*
X191135000Y-129540000D03*
X193675000Y-129540000D03*
%TD*%
D18*
%TO.C,U1*%
X167010000Y-68570000D03*
D19*
X169550000Y-68570000D03*
X172090000Y-68570000D03*
X174630000Y-68570000D03*
X177170000Y-68570000D03*
X179710000Y-68570000D03*
X182250000Y-68570000D03*
X184790000Y-68570000D03*
X187330000Y-68570000D03*
X189870000Y-68570000D03*
X189870000Y-60950000D03*
X187330000Y-60950000D03*
X184790000Y-60950000D03*
X182250000Y-60950000D03*
X179710000Y-60950000D03*
X177170000Y-60950000D03*
X174630000Y-60950000D03*
X172090000Y-60950000D03*
X169550000Y-60950000D03*
X167010000Y-60950000D03*
%TD*%
D18*
%TO.C,RN3*%
X118750000Y-71120000D03*
D19*
X121290000Y-71120000D03*
X123830000Y-71120000D03*
X126370000Y-71120000D03*
X128910000Y-71120000D03*
X131450000Y-71120000D03*
X133990000Y-71120000D03*
X136530000Y-71120000D03*
X139070000Y-71120000D03*
X141610000Y-71120000D03*
%TD*%
D20*
%TO.C,J005*%
X203265000Y-91440000D03*
D21*
X110425000Y-91440000D03*
D13*
X120015000Y-91440000D03*
D14*
X122555000Y-91440000D03*
X125095000Y-91440000D03*
X127635000Y-91440000D03*
X130175000Y-91440000D03*
X132715000Y-91440000D03*
X135255000Y-91440000D03*
X137795000Y-91440000D03*
X140335000Y-91440000D03*
X142875000Y-91440000D03*
X145415000Y-91440000D03*
X147955000Y-91440000D03*
X150495000Y-91440000D03*
X153035000Y-91440000D03*
X155575000Y-91440000D03*
X158115000Y-91440000D03*
X160655000Y-91440000D03*
X163195000Y-91440000D03*
X165735000Y-91440000D03*
X168275000Y-91440000D03*
X170815000Y-91440000D03*
X173355000Y-91440000D03*
X175895000Y-91440000D03*
X178435000Y-91440000D03*
X180975000Y-91440000D03*
X183515000Y-91440000D03*
X186055000Y-91440000D03*
X188595000Y-91440000D03*
X191135000Y-91440000D03*
X193675000Y-91440000D03*
%TD*%
D17*
%TO.C,C4*%
X196719401Y-67404120D03*
X196719401Y-62404120D03*
%TD*%
D21*
%TO.C,J001*%
X110425000Y-142240000D03*
D20*
X203265000Y-142240000D03*
D13*
X120015000Y-142240000D03*
D14*
X122555000Y-142240000D03*
X125095000Y-142240000D03*
X127635000Y-142240000D03*
X130175000Y-142240000D03*
X132715000Y-142240000D03*
X135255000Y-142240000D03*
X137795000Y-142240000D03*
X140335000Y-142240000D03*
X142875000Y-142240000D03*
X145415000Y-142240000D03*
X147955000Y-142240000D03*
X150495000Y-142240000D03*
X153035000Y-142240000D03*
X155575000Y-142240000D03*
X158115000Y-142240000D03*
X160655000Y-142240000D03*
X163195000Y-142240000D03*
X165735000Y-142240000D03*
X168275000Y-142240000D03*
X170815000Y-142240000D03*
X173355000Y-142240000D03*
X175895000Y-142240000D03*
X178435000Y-142240000D03*
X180975000Y-142240000D03*
X183515000Y-142240000D03*
X186055000Y-142240000D03*
X188595000Y-142240000D03*
X191135000Y-142240000D03*
X193675000Y-142240000D03*
%TD*%
D17*
%TO.C,C7*%
X69215000Y-98385000D03*
X69215000Y-93385000D03*
%TD*%
D18*
%TO.C,RN1*%
X172090000Y-71120000D03*
D19*
X174630000Y-71120000D03*
X177170000Y-71120000D03*
X179710000Y-71120000D03*
X182250000Y-71120000D03*
X184790000Y-71120000D03*
X187330000Y-71120000D03*
X189870000Y-71120000D03*
X192410000Y-71120000D03*
X194950000Y-71120000D03*
%TD*%
D18*
%TO.C,U3*%
X71755000Y-112395000D03*
D19*
X74295000Y-112395000D03*
X76835000Y-112395000D03*
X79375000Y-112395000D03*
X81915000Y-112395000D03*
X84455000Y-112395000D03*
X86995000Y-112395000D03*
X86995000Y-104775000D03*
X84455000Y-104775000D03*
X81915000Y-104775000D03*
X79375000Y-104775000D03*
X76835000Y-104775000D03*
X74295000Y-104775000D03*
X71755000Y-104775000D03*
%TD*%
D20*
%TO.C,J004*%
X203265000Y-104140000D03*
D21*
X110425000Y-104140000D03*
D13*
X120015000Y-104140000D03*
D14*
X122555000Y-104140000D03*
X125095000Y-104140000D03*
X127635000Y-104140000D03*
X130175000Y-104140000D03*
X132715000Y-104140000D03*
X135255000Y-104140000D03*
X137795000Y-104140000D03*
X140335000Y-104140000D03*
X142875000Y-104140000D03*
X145415000Y-104140000D03*
X147955000Y-104140000D03*
X150495000Y-104140000D03*
X153035000Y-104140000D03*
X155575000Y-104140000D03*
X158115000Y-104140000D03*
X160655000Y-104140000D03*
X163195000Y-104140000D03*
X165735000Y-104140000D03*
X168275000Y-104140000D03*
X170815000Y-104140000D03*
X173355000Y-104140000D03*
X175895000Y-104140000D03*
X178435000Y-104140000D03*
X180975000Y-104140000D03*
X183515000Y-104140000D03*
X186055000Y-104140000D03*
X188595000Y-104140000D03*
X191135000Y-104140000D03*
X193675000Y-104140000D03*
%TD*%
D18*
%TO.C,U2*%
X145410000Y-68570000D03*
D19*
X147950000Y-68570000D03*
X150490000Y-68570000D03*
X153030000Y-68570000D03*
X155570000Y-68570000D03*
X158110000Y-68570000D03*
X160650000Y-68570000D03*
X160650000Y-60950000D03*
X158110000Y-60950000D03*
X155570000Y-60950000D03*
X153030000Y-60950000D03*
X150490000Y-60950000D03*
X147950000Y-60950000D03*
X145410000Y-60950000D03*
%TD*%
D18*
%TO.C,C2*%
X100330000Y-66000000D03*
D17*
X100330000Y-61000000D03*
%TD*%
D18*
%TO.C,C1*%
X99695000Y-135215000D03*
D17*
X99695000Y-130215000D03*
%TD*%
D18*
%TO.C,U7*%
X123825000Y-68580000D03*
D19*
X126365000Y-68580000D03*
X128905000Y-68580000D03*
X131445000Y-68580000D03*
X133985000Y-68580000D03*
X136525000Y-68580000D03*
X139065000Y-68580000D03*
X139065000Y-60960000D03*
X136525000Y-60960000D03*
X133985000Y-60960000D03*
X131445000Y-60960000D03*
X128905000Y-60960000D03*
X126365000Y-60960000D03*
X123825000Y-60960000D03*
%TD*%
D17*
%TO.C,C6*%
X69215000Y-80605000D03*
X69215000Y-75605000D03*
%TD*%
D18*
%TO.C,RN5*%
X71760000Y-69215000D03*
D19*
X74300000Y-69215000D03*
X76840000Y-69215000D03*
X79380000Y-69215000D03*
X81920000Y-69215000D03*
X84460000Y-69215000D03*
X87000000Y-69215000D03*
X89540000Y-69215000D03*
X92080000Y-69215000D03*
X94620000Y-69215000D03*
%TD*%
D18*
%TO.C,RN6*%
X71755000Y-84455000D03*
D19*
X74295000Y-84455000D03*
X76835000Y-84455000D03*
X79375000Y-84455000D03*
X81915000Y-84455000D03*
X84455000Y-84455000D03*
X86995000Y-84455000D03*
X89535000Y-84455000D03*
X92075000Y-84455000D03*
X94615000Y-84455000D03*
%TD*%
D22*
%TO.C,E1*%
X175895000Y-56515000D03*
D23*
X178435000Y-56515000D03*
X180975000Y-56515000D03*
%TD*%
D18*
%TO.C,RN2*%
X145420000Y-71120000D03*
D19*
X147960000Y-71120000D03*
X150500000Y-71120000D03*
X153040000Y-71120000D03*
X155580000Y-71120000D03*
X158120000Y-71120000D03*
X160660000Y-71120000D03*
X163200000Y-71120000D03*
X165740000Y-71120000D03*
X168280000Y-71120000D03*
%TD*%
M02*
