%TF.GenerationSoftware,KiCad,Pcbnew,(6.0.7)*%
%TF.CreationDate,2022-10-12T10:44:44-05:00*%
%TF.ProjectId,CompaqPortableIIImemexp,436f6d70-6171-4506-9f72-7461626c6549,rev?*%
%TF.SameCoordinates,Original*%
%TF.FileFunction,Legend,Bot*%
%TF.FilePolarity,Positive*%
%FSLAX46Y46*%
G04 Gerber Fmt 4.6, Leading zero omitted, Abs format (unit mm)*
G04 Created by KiCad (PCBNEW (6.0.7)) date 2022-10-12 10:44:44*
%MOMM*%
%LPD*%
G01*
G04 APERTURE LIST*
%ADD10C,0.100000*%
%ADD11C,4.000000*%
%ADD12C,1.600000*%
%ADD13R,1.600000X1.600000*%
%ADD14O,1.600000X1.600000*%
%ADD15C,2.286000*%
%ADD16C,1.524000*%
%ADD17R,1.397000X1.397000*%
%ADD18C,1.397000*%
%ADD19R,1.700000X1.700000*%
%ADD20O,1.700000X1.700000*%
G04 APERTURE END LIST*
%LPC*%
%TO.C,J114*%
G36*
X195402200Y-53975000D02*
G01*
X91262200Y-53975000D01*
X91262200Y-44450000D01*
X195402200Y-44450000D01*
X195402200Y-53975000D01*
G37*
D10*
X195402200Y-53975000D02*
X91262200Y-53975000D01*
X91262200Y-44450000D01*
X195402200Y-44450000D01*
X195402200Y-53975000D01*
%TD*%
D11*
%TO.C,H2*%
X203200000Y-64770000D03*
%TD*%
D12*
%TO.C,C9*%
X142240000Y-67310000D03*
X142240000Y-62310000D03*
%TD*%
D13*
%TO.C,U6*%
X71760000Y-66665000D03*
D14*
X74300000Y-66665000D03*
X76840000Y-66665000D03*
X79380000Y-66665000D03*
X81920000Y-66665000D03*
X84460000Y-66665000D03*
X87000000Y-66665000D03*
X89540000Y-66665000D03*
X92080000Y-66665000D03*
X94620000Y-66665000D03*
X94620000Y-59045000D03*
X92080000Y-59045000D03*
X89540000Y-59045000D03*
X87000000Y-59045000D03*
X84460000Y-59045000D03*
X81920000Y-59045000D03*
X79380000Y-59045000D03*
X76840000Y-59045000D03*
X74300000Y-59045000D03*
X71760000Y-59045000D03*
%TD*%
D12*
%TO.C,C5*%
X69215000Y-65365000D03*
X69215000Y-60365000D03*
%TD*%
D11*
%TO.C,H1*%
X99765000Y-142875000D03*
%TD*%
D12*
%TO.C,C3*%
X163830000Y-67270000D03*
X163830000Y-62270000D03*
%TD*%
D15*
%TO.C,J006*%
X203265000Y-78740000D03*
D16*
X110425000Y-78740000D03*
D17*
X120015000Y-78740000D03*
D18*
X122555000Y-78740000D03*
X125095000Y-78740000D03*
X127635000Y-78740000D03*
X130175000Y-78740000D03*
X132715000Y-78740000D03*
X135255000Y-78740000D03*
X137795000Y-78740000D03*
X140335000Y-78740000D03*
X142875000Y-78740000D03*
X145415000Y-78740000D03*
X147955000Y-78740000D03*
X150495000Y-78740000D03*
X153035000Y-78740000D03*
X155575000Y-78740000D03*
X158115000Y-78740000D03*
X160655000Y-78740000D03*
X163195000Y-78740000D03*
X165735000Y-78740000D03*
X168275000Y-78740000D03*
X170815000Y-78740000D03*
X173355000Y-78740000D03*
X175895000Y-78740000D03*
X178435000Y-78740000D03*
X180975000Y-78740000D03*
X183515000Y-78740000D03*
X186055000Y-78740000D03*
X188595000Y-78740000D03*
X191135000Y-78740000D03*
X193675000Y-78740000D03*
%TD*%
D13*
%TO.C,U5*%
X71755000Y-81915000D03*
D14*
X74295000Y-81915000D03*
X76835000Y-81915000D03*
X79375000Y-81915000D03*
X81915000Y-81915000D03*
X84455000Y-81915000D03*
X86995000Y-81915000D03*
X89535000Y-81915000D03*
X92075000Y-81915000D03*
X94615000Y-81915000D03*
X94615000Y-74295000D03*
X92075000Y-74295000D03*
X89535000Y-74295000D03*
X86995000Y-74295000D03*
X84455000Y-74295000D03*
X81915000Y-74295000D03*
X79375000Y-74295000D03*
X76835000Y-74295000D03*
X74295000Y-74295000D03*
X71755000Y-74295000D03*
%TD*%
D12*
%TO.C,C8*%
X69215000Y-111125000D03*
X69215000Y-106125000D03*
%TD*%
D13*
%TO.C,U4*%
X71750000Y-99685000D03*
D14*
X74290000Y-99685000D03*
X76830000Y-99685000D03*
X79370000Y-99685000D03*
X81910000Y-99685000D03*
X84450000Y-99685000D03*
X86990000Y-99685000D03*
X86990000Y-92065000D03*
X84450000Y-92065000D03*
X81910000Y-92065000D03*
X79370000Y-92065000D03*
X76830000Y-92065000D03*
X74290000Y-92065000D03*
X71750000Y-92065000D03*
%TD*%
D15*
%TO.C,J003*%
X203265000Y-116840000D03*
D16*
X110425000Y-116840000D03*
D17*
X120015000Y-116840000D03*
D18*
X122555000Y-116840000D03*
X125095000Y-116840000D03*
X127635000Y-116840000D03*
X130175000Y-116840000D03*
X132715000Y-116840000D03*
X135255000Y-116840000D03*
X137795000Y-116840000D03*
X140335000Y-116840000D03*
X142875000Y-116840000D03*
X145415000Y-116840000D03*
X147955000Y-116840000D03*
X150495000Y-116840000D03*
X153035000Y-116840000D03*
X155575000Y-116840000D03*
X158115000Y-116840000D03*
X160655000Y-116840000D03*
X163195000Y-116840000D03*
X165735000Y-116840000D03*
X168275000Y-116840000D03*
X170815000Y-116840000D03*
X173355000Y-116840000D03*
X175895000Y-116840000D03*
X178435000Y-116840000D03*
X180975000Y-116840000D03*
X183515000Y-116840000D03*
X186055000Y-116840000D03*
X188595000Y-116840000D03*
X191135000Y-116840000D03*
X193675000Y-116840000D03*
%TD*%
D13*
%TO.C,RN4*%
X99695000Y-101600000D03*
D14*
X99695000Y-104140000D03*
X99695000Y-106680000D03*
X99695000Y-109220000D03*
X99695000Y-111760000D03*
X99695000Y-114300000D03*
X99695000Y-116840000D03*
X99695000Y-119380000D03*
X99695000Y-121920000D03*
X99695000Y-124460000D03*
%TD*%
D16*
%TO.C,J002*%
X110425000Y-129540000D03*
D15*
X203265000Y-129540000D03*
D17*
X120015000Y-129540000D03*
D18*
X122555000Y-129540000D03*
X125095000Y-129540000D03*
X127635000Y-129540000D03*
X130175000Y-129540000D03*
X132715000Y-129540000D03*
X135255000Y-129540000D03*
X137795000Y-129540000D03*
X140335000Y-129540000D03*
X142875000Y-129540000D03*
X145415000Y-129540000D03*
X147955000Y-129540000D03*
X150495000Y-129540000D03*
X153035000Y-129540000D03*
X155575000Y-129540000D03*
X158115000Y-129540000D03*
X160655000Y-129540000D03*
X163195000Y-129540000D03*
X165735000Y-129540000D03*
X168275000Y-129540000D03*
X170815000Y-129540000D03*
X173355000Y-129540000D03*
X175895000Y-129540000D03*
X178435000Y-129540000D03*
X180975000Y-129540000D03*
X183515000Y-129540000D03*
X186055000Y-129540000D03*
X188595000Y-129540000D03*
X191135000Y-129540000D03*
X193675000Y-129540000D03*
%TD*%
D13*
%TO.C,U1*%
X167010000Y-68570000D03*
D14*
X169550000Y-68570000D03*
X172090000Y-68570000D03*
X174630000Y-68570000D03*
X177170000Y-68570000D03*
X179710000Y-68570000D03*
X182250000Y-68570000D03*
X184790000Y-68570000D03*
X187330000Y-68570000D03*
X189870000Y-68570000D03*
X189870000Y-60950000D03*
X187330000Y-60950000D03*
X184790000Y-60950000D03*
X182250000Y-60950000D03*
X179710000Y-60950000D03*
X177170000Y-60950000D03*
X174630000Y-60950000D03*
X172090000Y-60950000D03*
X169550000Y-60950000D03*
X167010000Y-60950000D03*
%TD*%
D13*
%TO.C,RN3*%
X118750000Y-71120000D03*
D14*
X121290000Y-71120000D03*
X123830000Y-71120000D03*
X126370000Y-71120000D03*
X128910000Y-71120000D03*
X131450000Y-71120000D03*
X133990000Y-71120000D03*
X136530000Y-71120000D03*
X139070000Y-71120000D03*
X141610000Y-71120000D03*
%TD*%
D15*
%TO.C,J005*%
X203265000Y-91440000D03*
D16*
X110425000Y-91440000D03*
D17*
X120015000Y-91440000D03*
D18*
X122555000Y-91440000D03*
X125095000Y-91440000D03*
X127635000Y-91440000D03*
X130175000Y-91440000D03*
X132715000Y-91440000D03*
X135255000Y-91440000D03*
X137795000Y-91440000D03*
X140335000Y-91440000D03*
X142875000Y-91440000D03*
X145415000Y-91440000D03*
X147955000Y-91440000D03*
X150495000Y-91440000D03*
X153035000Y-91440000D03*
X155575000Y-91440000D03*
X158115000Y-91440000D03*
X160655000Y-91440000D03*
X163195000Y-91440000D03*
X165735000Y-91440000D03*
X168275000Y-91440000D03*
X170815000Y-91440000D03*
X173355000Y-91440000D03*
X175895000Y-91440000D03*
X178435000Y-91440000D03*
X180975000Y-91440000D03*
X183515000Y-91440000D03*
X186055000Y-91440000D03*
X188595000Y-91440000D03*
X191135000Y-91440000D03*
X193675000Y-91440000D03*
%TD*%
D12*
%TO.C,C4*%
X196719401Y-67404120D03*
X196719401Y-62404120D03*
%TD*%
D16*
%TO.C,J001*%
X110425000Y-142240000D03*
D15*
X203265000Y-142240000D03*
D17*
X120015000Y-142240000D03*
D18*
X122555000Y-142240000D03*
X125095000Y-142240000D03*
X127635000Y-142240000D03*
X130175000Y-142240000D03*
X132715000Y-142240000D03*
X135255000Y-142240000D03*
X137795000Y-142240000D03*
X140335000Y-142240000D03*
X142875000Y-142240000D03*
X145415000Y-142240000D03*
X147955000Y-142240000D03*
X150495000Y-142240000D03*
X153035000Y-142240000D03*
X155575000Y-142240000D03*
X158115000Y-142240000D03*
X160655000Y-142240000D03*
X163195000Y-142240000D03*
X165735000Y-142240000D03*
X168275000Y-142240000D03*
X170815000Y-142240000D03*
X173355000Y-142240000D03*
X175895000Y-142240000D03*
X178435000Y-142240000D03*
X180975000Y-142240000D03*
X183515000Y-142240000D03*
X186055000Y-142240000D03*
X188595000Y-142240000D03*
X191135000Y-142240000D03*
X193675000Y-142240000D03*
%TD*%
D12*
%TO.C,C7*%
X69215000Y-98385000D03*
X69215000Y-93385000D03*
%TD*%
D13*
%TO.C,RN1*%
X172090000Y-71120000D03*
D14*
X174630000Y-71120000D03*
X177170000Y-71120000D03*
X179710000Y-71120000D03*
X182250000Y-71120000D03*
X184790000Y-71120000D03*
X187330000Y-71120000D03*
X189870000Y-71120000D03*
X192410000Y-71120000D03*
X194950000Y-71120000D03*
%TD*%
D13*
%TO.C,U3*%
X71755000Y-112395000D03*
D14*
X74295000Y-112395000D03*
X76835000Y-112395000D03*
X79375000Y-112395000D03*
X81915000Y-112395000D03*
X84455000Y-112395000D03*
X86995000Y-112395000D03*
X86995000Y-104775000D03*
X84455000Y-104775000D03*
X81915000Y-104775000D03*
X79375000Y-104775000D03*
X76835000Y-104775000D03*
X74295000Y-104775000D03*
X71755000Y-104775000D03*
%TD*%
D15*
%TO.C,J004*%
X203265000Y-104140000D03*
D16*
X110425000Y-104140000D03*
D17*
X120015000Y-104140000D03*
D18*
X122555000Y-104140000D03*
X125095000Y-104140000D03*
X127635000Y-104140000D03*
X130175000Y-104140000D03*
X132715000Y-104140000D03*
X135255000Y-104140000D03*
X137795000Y-104140000D03*
X140335000Y-104140000D03*
X142875000Y-104140000D03*
X145415000Y-104140000D03*
X147955000Y-104140000D03*
X150495000Y-104140000D03*
X153035000Y-104140000D03*
X155575000Y-104140000D03*
X158115000Y-104140000D03*
X160655000Y-104140000D03*
X163195000Y-104140000D03*
X165735000Y-104140000D03*
X168275000Y-104140000D03*
X170815000Y-104140000D03*
X173355000Y-104140000D03*
X175895000Y-104140000D03*
X178435000Y-104140000D03*
X180975000Y-104140000D03*
X183515000Y-104140000D03*
X186055000Y-104140000D03*
X188595000Y-104140000D03*
X191135000Y-104140000D03*
X193675000Y-104140000D03*
%TD*%
D13*
%TO.C,U2*%
X145410000Y-68570000D03*
D14*
X147950000Y-68570000D03*
X150490000Y-68570000D03*
X153030000Y-68570000D03*
X155570000Y-68570000D03*
X158110000Y-68570000D03*
X160650000Y-68570000D03*
X160650000Y-60950000D03*
X158110000Y-60950000D03*
X155570000Y-60950000D03*
X153030000Y-60950000D03*
X150490000Y-60950000D03*
X147950000Y-60950000D03*
X145410000Y-60950000D03*
%TD*%
D13*
%TO.C,C2*%
X100330000Y-66000000D03*
D12*
X100330000Y-61000000D03*
%TD*%
D13*
%TO.C,C1*%
X99695000Y-135215000D03*
D12*
X99695000Y-130215000D03*
%TD*%
D13*
%TO.C,U7*%
X123825000Y-68580000D03*
D14*
X126365000Y-68580000D03*
X128905000Y-68580000D03*
X131445000Y-68580000D03*
X133985000Y-68580000D03*
X136525000Y-68580000D03*
X139065000Y-68580000D03*
X139065000Y-60960000D03*
X136525000Y-60960000D03*
X133985000Y-60960000D03*
X131445000Y-60960000D03*
X128905000Y-60960000D03*
X126365000Y-60960000D03*
X123825000Y-60960000D03*
%TD*%
D12*
%TO.C,C6*%
X69215000Y-80605000D03*
X69215000Y-75605000D03*
%TD*%
D13*
%TO.C,RN5*%
X71760000Y-69215000D03*
D14*
X74300000Y-69215000D03*
X76840000Y-69215000D03*
X79380000Y-69215000D03*
X81920000Y-69215000D03*
X84460000Y-69215000D03*
X87000000Y-69215000D03*
X89540000Y-69215000D03*
X92080000Y-69215000D03*
X94620000Y-69215000D03*
%TD*%
D13*
%TO.C,RN6*%
X71755000Y-84455000D03*
D14*
X74295000Y-84455000D03*
X76835000Y-84455000D03*
X79375000Y-84455000D03*
X81915000Y-84455000D03*
X84455000Y-84455000D03*
X86995000Y-84455000D03*
X89535000Y-84455000D03*
X92075000Y-84455000D03*
X94615000Y-84455000D03*
%TD*%
D19*
%TO.C,E1*%
X175895000Y-56515000D03*
D20*
X178435000Y-56515000D03*
X180975000Y-56515000D03*
%TD*%
D13*
%TO.C,RN2*%
X145420000Y-71120000D03*
D14*
X147960000Y-71120000D03*
X150500000Y-71120000D03*
X153040000Y-71120000D03*
X155580000Y-71120000D03*
X158120000Y-71120000D03*
X160660000Y-71120000D03*
X163200000Y-71120000D03*
X165740000Y-71120000D03*
X168280000Y-71120000D03*
%TD*%
M02*
