%TF.GenerationSoftware,KiCad,Pcbnew,(6.0.7)*%
%TF.CreationDate,2022-10-12T10:44:46-05:00*%
%TF.ProjectId,CompaqPortableIIImemexp,436f6d70-6171-4506-9f72-7461626c6549,rev?*%
%TF.SameCoordinates,Original*%
%TF.FileFunction,Drillmap*%
%TF.FilePolarity,Positive*%
%FSLAX45Y45*%
G04 Gerber Fmt 4.5, Leading zero omitted, Abs format (unit mm)*
G04 Created by KiCad (PCBNEW (6.0.7)) date 2022-10-12 10:44:46*
%MOMM*%
%LPD*%
G01*
G04 APERTURE LIST*
%ADD10C,0.100000*%
%ADD11C,0.200000*%
%ADD12C,0.152400*%
%ADD13C,0.228600*%
%ADD14C,0.400000*%
G04 APERTURE END LIST*
D10*
X6604000Y-5461000D02*
X9144000Y-5461000D01*
X20828000Y-5969000D02*
X20828000Y-14859000D01*
X9398000Y-11684000D02*
X6604000Y-11684000D01*
X19522440Y-5969000D02*
X20828000Y-5969000D01*
X20828000Y-14859000D02*
X9398000Y-14859000D01*
X6604000Y-11684000D02*
X6604000Y-5461000D01*
X9398000Y-14859000D02*
X9398000Y-11684000D01*
X19522440Y-5969000D02*
X19522440Y-5461000D01*
D11*
D12*
X10966300Y-7797800D02*
X11118700Y-7950200D01*
X11118700Y-7797800D02*
X10966300Y-7950200D01*
X10966300Y-9067800D02*
X11118700Y-9220200D01*
X11118700Y-9067800D02*
X10966300Y-9220200D01*
X10966300Y-10337800D02*
X11118700Y-10490200D01*
X11118700Y-10337800D02*
X10966300Y-10490200D01*
X10966300Y-11607800D02*
X11118700Y-11760200D01*
X11118700Y-11607800D02*
X10966300Y-11760200D01*
X10966300Y-12877800D02*
X11118700Y-13030200D01*
X11118700Y-12877800D02*
X10966300Y-13030200D01*
X10966300Y-14147800D02*
X11118700Y-14300200D01*
X11118700Y-14147800D02*
X10966300Y-14300200D01*
D13*
X20440800Y-7874000D02*
G75*
G03*
X20440800Y-7874000I-114300J0D01*
G01*
X20440800Y-9144000D02*
G75*
G03*
X20440800Y-9144000I-114300J0D01*
G01*
X20440800Y-10414000D02*
G75*
G03*
X20440800Y-10414000I-114300J0D01*
G01*
X20440800Y-11684000D02*
G75*
G03*
X20440800Y-11684000I-114300J0D01*
G01*
X20440800Y-12954000D02*
G75*
G03*
X20440800Y-12954000I-114300J0D01*
G01*
X20440800Y-14224000D02*
G75*
G03*
X20440800Y-14224000I-114300J0D01*
G01*
D14*
X9976500Y-14087500D02*
X9976500Y-14487500D01*
X9776500Y-14287500D02*
X10176500Y-14287500D01*
X20320000Y-6277000D02*
X20320000Y-6677000D01*
X20120000Y-6477000D02*
X20520000Y-6477000D01*
D11*
X6856619Y-15174476D02*
X6856619Y-14974476D01*
X6904238Y-14974476D01*
X6932809Y-14984000D01*
X6951857Y-15003048D01*
X6961381Y-15022095D01*
X6970905Y-15060190D01*
X6970905Y-15088762D01*
X6961381Y-15126857D01*
X6951857Y-15145905D01*
X6932809Y-15164952D01*
X6904238Y-15174476D01*
X6856619Y-15174476D01*
X7056619Y-15174476D02*
X7056619Y-15041143D01*
X7056619Y-15079238D02*
X7066143Y-15060190D01*
X7075667Y-15050667D01*
X7094714Y-15041143D01*
X7113762Y-15041143D01*
X7180428Y-15174476D02*
X7180428Y-15041143D01*
X7180428Y-14974476D02*
X7170905Y-14984000D01*
X7180428Y-14993524D01*
X7189952Y-14984000D01*
X7180428Y-14974476D01*
X7180428Y-14993524D01*
X7304238Y-15174476D02*
X7285190Y-15164952D01*
X7275667Y-15145905D01*
X7275667Y-14974476D01*
X7409000Y-15174476D02*
X7389952Y-15164952D01*
X7380428Y-15145905D01*
X7380428Y-14974476D01*
X7637571Y-15174476D02*
X7637571Y-14974476D01*
X7704238Y-15117333D01*
X7770905Y-14974476D01*
X7770905Y-15174476D01*
X7951857Y-15174476D02*
X7951857Y-15069714D01*
X7942333Y-15050667D01*
X7923286Y-15041143D01*
X7885190Y-15041143D01*
X7866143Y-15050667D01*
X7951857Y-15164952D02*
X7932809Y-15174476D01*
X7885190Y-15174476D01*
X7866143Y-15164952D01*
X7856619Y-15145905D01*
X7856619Y-15126857D01*
X7866143Y-15107809D01*
X7885190Y-15098286D01*
X7932809Y-15098286D01*
X7951857Y-15088762D01*
X8047095Y-15041143D02*
X8047095Y-15241143D01*
X8047095Y-15050667D02*
X8066143Y-15041143D01*
X8104238Y-15041143D01*
X8123286Y-15050667D01*
X8132809Y-15060190D01*
X8142333Y-15079238D01*
X8142333Y-15136381D01*
X8132809Y-15155428D01*
X8123286Y-15164952D01*
X8104238Y-15174476D01*
X8066143Y-15174476D01*
X8047095Y-15164952D01*
X8228048Y-15155428D02*
X8237571Y-15164952D01*
X8228048Y-15174476D01*
X8218524Y-15164952D01*
X8228048Y-15155428D01*
X8228048Y-15174476D01*
X8228048Y-15050667D02*
X8237571Y-15060190D01*
X8228048Y-15069714D01*
X8218524Y-15060190D01*
X8228048Y-15050667D01*
X8228048Y-15069714D01*
D12*
X6446600Y-15427800D02*
X6599000Y-15580200D01*
X6599000Y-15427800D02*
X6446600Y-15580200D01*
D11*
X6961381Y-15594476D02*
X6847095Y-15594476D01*
X6904238Y-15594476D02*
X6904238Y-15394476D01*
X6885190Y-15423048D01*
X6866143Y-15442095D01*
X6847095Y-15451619D01*
X7047095Y-15575428D02*
X7056619Y-15584952D01*
X7047095Y-15594476D01*
X7037571Y-15584952D01*
X7047095Y-15575428D01*
X7047095Y-15594476D01*
X7237571Y-15394476D02*
X7142333Y-15394476D01*
X7132809Y-15489714D01*
X7142333Y-15480190D01*
X7161381Y-15470667D01*
X7209000Y-15470667D01*
X7228048Y-15480190D01*
X7237571Y-15489714D01*
X7247095Y-15508762D01*
X7247095Y-15556381D01*
X7237571Y-15575428D01*
X7228048Y-15584952D01*
X7209000Y-15594476D01*
X7161381Y-15594476D01*
X7142333Y-15584952D01*
X7132809Y-15575428D01*
X7323286Y-15413524D02*
X7332809Y-15404000D01*
X7351857Y-15394476D01*
X7399476Y-15394476D01*
X7418524Y-15404000D01*
X7428048Y-15413524D01*
X7437571Y-15432571D01*
X7437571Y-15451619D01*
X7428048Y-15480190D01*
X7313762Y-15594476D01*
X7437571Y-15594476D01*
X7609000Y-15461143D02*
X7609000Y-15594476D01*
X7561381Y-15384952D02*
X7513762Y-15527809D01*
X7637571Y-15527809D01*
X7713762Y-15594476D02*
X7713762Y-15461143D01*
X7713762Y-15480190D02*
X7723286Y-15470667D01*
X7742333Y-15461143D01*
X7770905Y-15461143D01*
X7789952Y-15470667D01*
X7799476Y-15489714D01*
X7799476Y-15594476D01*
X7799476Y-15489714D02*
X7809000Y-15470667D01*
X7828048Y-15461143D01*
X7856619Y-15461143D01*
X7875667Y-15470667D01*
X7885190Y-15489714D01*
X7885190Y-15594476D01*
X7980428Y-15594476D02*
X7980428Y-15461143D01*
X7980428Y-15480190D02*
X7989952Y-15470667D01*
X8009000Y-15461143D01*
X8037571Y-15461143D01*
X8056619Y-15470667D01*
X8066143Y-15489714D01*
X8066143Y-15594476D01*
X8066143Y-15489714D02*
X8075667Y-15470667D01*
X8094714Y-15461143D01*
X8123286Y-15461143D01*
X8142333Y-15470667D01*
X8151857Y-15489714D01*
X8151857Y-15594476D01*
X8542333Y-15384952D02*
X8370905Y-15642095D01*
X8799476Y-15394476D02*
X8818524Y-15394476D01*
X8837571Y-15404000D01*
X8847095Y-15413524D01*
X8856619Y-15432571D01*
X8866143Y-15470667D01*
X8866143Y-15518286D01*
X8856619Y-15556381D01*
X8847095Y-15575428D01*
X8837571Y-15584952D01*
X8818524Y-15594476D01*
X8799476Y-15594476D01*
X8780429Y-15584952D01*
X8770905Y-15575428D01*
X8761381Y-15556381D01*
X8751857Y-15518286D01*
X8751857Y-15470667D01*
X8761381Y-15432571D01*
X8770905Y-15413524D01*
X8780429Y-15404000D01*
X8799476Y-15394476D01*
X8951857Y-15575428D02*
X8961381Y-15584952D01*
X8951857Y-15594476D01*
X8942333Y-15584952D01*
X8951857Y-15575428D01*
X8951857Y-15594476D01*
X9085190Y-15394476D02*
X9104238Y-15394476D01*
X9123286Y-15404000D01*
X9132810Y-15413524D01*
X9142333Y-15432571D01*
X9151857Y-15470667D01*
X9151857Y-15518286D01*
X9142333Y-15556381D01*
X9132810Y-15575428D01*
X9123286Y-15584952D01*
X9104238Y-15594476D01*
X9085190Y-15594476D01*
X9066143Y-15584952D01*
X9056619Y-15575428D01*
X9047095Y-15556381D01*
X9037571Y-15518286D01*
X9037571Y-15470667D01*
X9047095Y-15432571D01*
X9056619Y-15413524D01*
X9066143Y-15404000D01*
X9085190Y-15394476D01*
X9323286Y-15394476D02*
X9285190Y-15394476D01*
X9266143Y-15404000D01*
X9256619Y-15413524D01*
X9237571Y-15442095D01*
X9228048Y-15480190D01*
X9228048Y-15556381D01*
X9237571Y-15575428D01*
X9247095Y-15584952D01*
X9266143Y-15594476D01*
X9304238Y-15594476D01*
X9323286Y-15584952D01*
X9332810Y-15575428D01*
X9342333Y-15556381D01*
X9342333Y-15508762D01*
X9332810Y-15489714D01*
X9323286Y-15480190D01*
X9304238Y-15470667D01*
X9266143Y-15470667D01*
X9247095Y-15480190D01*
X9237571Y-15489714D01*
X9228048Y-15508762D01*
X9466143Y-15394476D02*
X9485190Y-15394476D01*
X9504238Y-15404000D01*
X9513762Y-15413524D01*
X9523286Y-15432571D01*
X9532810Y-15470667D01*
X9532810Y-15518286D01*
X9523286Y-15556381D01*
X9513762Y-15575428D01*
X9504238Y-15584952D01*
X9485190Y-15594476D01*
X9466143Y-15594476D01*
X9447095Y-15584952D01*
X9437571Y-15575428D01*
X9428048Y-15556381D01*
X9418524Y-15518286D01*
X9418524Y-15470667D01*
X9428048Y-15432571D01*
X9437571Y-15413524D01*
X9447095Y-15404000D01*
X9466143Y-15394476D01*
X9656619Y-15394476D02*
X9675667Y-15394476D01*
X9694714Y-15404000D01*
X9704238Y-15413524D01*
X9713762Y-15432571D01*
X9723286Y-15470667D01*
X9723286Y-15518286D01*
X9713762Y-15556381D01*
X9704238Y-15575428D01*
X9694714Y-15584952D01*
X9675667Y-15594476D01*
X9656619Y-15594476D01*
X9637571Y-15584952D01*
X9628048Y-15575428D01*
X9618524Y-15556381D01*
X9609000Y-15518286D01*
X9609000Y-15470667D01*
X9618524Y-15432571D01*
X9628048Y-15413524D01*
X9637571Y-15404000D01*
X9656619Y-15394476D01*
X9799476Y-15394476D02*
X9799476Y-15432571D01*
X9875667Y-15394476D02*
X9875667Y-15432571D01*
X10170905Y-15670667D02*
X10161381Y-15661143D01*
X10142333Y-15632571D01*
X10132810Y-15613524D01*
X10123286Y-15584952D01*
X10113762Y-15537333D01*
X10113762Y-15499238D01*
X10123286Y-15451619D01*
X10132810Y-15423048D01*
X10142333Y-15404000D01*
X10161381Y-15375428D01*
X10170905Y-15365905D01*
X10332810Y-15394476D02*
X10294714Y-15394476D01*
X10275667Y-15404000D01*
X10266143Y-15413524D01*
X10247095Y-15442095D01*
X10237571Y-15480190D01*
X10237571Y-15556381D01*
X10247095Y-15575428D01*
X10256619Y-15584952D01*
X10275667Y-15594476D01*
X10313762Y-15594476D01*
X10332810Y-15584952D01*
X10342333Y-15575428D01*
X10351857Y-15556381D01*
X10351857Y-15508762D01*
X10342333Y-15489714D01*
X10332810Y-15480190D01*
X10313762Y-15470667D01*
X10275667Y-15470667D01*
X10256619Y-15480190D01*
X10247095Y-15489714D01*
X10237571Y-15508762D01*
X10589952Y-15594476D02*
X10589952Y-15394476D01*
X10675667Y-15594476D02*
X10675667Y-15489714D01*
X10666143Y-15470667D01*
X10647095Y-15461143D01*
X10618524Y-15461143D01*
X10599476Y-15470667D01*
X10589952Y-15480190D01*
X10799476Y-15594476D02*
X10780429Y-15584952D01*
X10770905Y-15575428D01*
X10761381Y-15556381D01*
X10761381Y-15499238D01*
X10770905Y-15480190D01*
X10780429Y-15470667D01*
X10799476Y-15461143D01*
X10828048Y-15461143D01*
X10847095Y-15470667D01*
X10856619Y-15480190D01*
X10866143Y-15499238D01*
X10866143Y-15556381D01*
X10856619Y-15575428D01*
X10847095Y-15584952D01*
X10828048Y-15594476D01*
X10799476Y-15594476D01*
X10980429Y-15594476D02*
X10961381Y-15584952D01*
X10951857Y-15565905D01*
X10951857Y-15394476D01*
X11132810Y-15584952D02*
X11113762Y-15594476D01*
X11075667Y-15594476D01*
X11056619Y-15584952D01*
X11047095Y-15565905D01*
X11047095Y-15489714D01*
X11056619Y-15470667D01*
X11075667Y-15461143D01*
X11113762Y-15461143D01*
X11132810Y-15470667D01*
X11142333Y-15489714D01*
X11142333Y-15508762D01*
X11047095Y-15527809D01*
X11218524Y-15584952D02*
X11237571Y-15594476D01*
X11275667Y-15594476D01*
X11294714Y-15584952D01*
X11304238Y-15565905D01*
X11304238Y-15556381D01*
X11294714Y-15537333D01*
X11275667Y-15527809D01*
X11247095Y-15527809D01*
X11228048Y-15518286D01*
X11218524Y-15499238D01*
X11218524Y-15489714D01*
X11228048Y-15470667D01*
X11247095Y-15461143D01*
X11275667Y-15461143D01*
X11294714Y-15470667D01*
X11370905Y-15670667D02*
X11380428Y-15661143D01*
X11399476Y-15632571D01*
X11409000Y-15613524D01*
X11418524Y-15584952D01*
X11428048Y-15537333D01*
X11428048Y-15499238D01*
X11418524Y-15451619D01*
X11409000Y-15423048D01*
X11399476Y-15404000D01*
X11380428Y-15375428D01*
X11370905Y-15365905D01*
X11732809Y-15670667D02*
X11723286Y-15661143D01*
X11704238Y-15632571D01*
X11694714Y-15613524D01*
X11685190Y-15584952D01*
X11675667Y-15537333D01*
X11675667Y-15499238D01*
X11685190Y-15451619D01*
X11694714Y-15423048D01*
X11704238Y-15404000D01*
X11723286Y-15375428D01*
X11732809Y-15365905D01*
X11809000Y-15461143D02*
X11809000Y-15594476D01*
X11809000Y-15480190D02*
X11818524Y-15470667D01*
X11837571Y-15461143D01*
X11866143Y-15461143D01*
X11885190Y-15470667D01*
X11894714Y-15489714D01*
X11894714Y-15594476D01*
X12018524Y-15594476D02*
X11999476Y-15584952D01*
X11989952Y-15575428D01*
X11980428Y-15556381D01*
X11980428Y-15499238D01*
X11989952Y-15480190D01*
X11999476Y-15470667D01*
X12018524Y-15461143D01*
X12047095Y-15461143D01*
X12066143Y-15470667D01*
X12075667Y-15480190D01*
X12085190Y-15499238D01*
X12085190Y-15556381D01*
X12075667Y-15575428D01*
X12066143Y-15584952D01*
X12047095Y-15594476D01*
X12018524Y-15594476D01*
X12142333Y-15461143D02*
X12218524Y-15461143D01*
X12170905Y-15394476D02*
X12170905Y-15565905D01*
X12180428Y-15584952D01*
X12199476Y-15594476D01*
X12218524Y-15594476D01*
X12437571Y-15461143D02*
X12437571Y-15661143D01*
X12437571Y-15470667D02*
X12456619Y-15461143D01*
X12494714Y-15461143D01*
X12513762Y-15470667D01*
X12523286Y-15480190D01*
X12532809Y-15499238D01*
X12532809Y-15556381D01*
X12523286Y-15575428D01*
X12513762Y-15584952D01*
X12494714Y-15594476D01*
X12456619Y-15594476D01*
X12437571Y-15584952D01*
X12647095Y-15594476D02*
X12628048Y-15584952D01*
X12618524Y-15565905D01*
X12618524Y-15394476D01*
X12809000Y-15594476D02*
X12809000Y-15489714D01*
X12799476Y-15470667D01*
X12780428Y-15461143D01*
X12742333Y-15461143D01*
X12723286Y-15470667D01*
X12809000Y-15584952D02*
X12789952Y-15594476D01*
X12742333Y-15594476D01*
X12723286Y-15584952D01*
X12713762Y-15565905D01*
X12713762Y-15546857D01*
X12723286Y-15527809D01*
X12742333Y-15518286D01*
X12789952Y-15518286D01*
X12809000Y-15508762D01*
X12875667Y-15461143D02*
X12951857Y-15461143D01*
X12904238Y-15394476D02*
X12904238Y-15565905D01*
X12913762Y-15584952D01*
X12932809Y-15594476D01*
X12951857Y-15594476D01*
X13094714Y-15584952D02*
X13075667Y-15594476D01*
X13037571Y-15594476D01*
X13018524Y-15584952D01*
X13009000Y-15565905D01*
X13009000Y-15489714D01*
X13018524Y-15470667D01*
X13037571Y-15461143D01*
X13075667Y-15461143D01*
X13094714Y-15470667D01*
X13104238Y-15489714D01*
X13104238Y-15508762D01*
X13009000Y-15527809D01*
X13275667Y-15594476D02*
X13275667Y-15394476D01*
X13275667Y-15584952D02*
X13256619Y-15594476D01*
X13218524Y-15594476D01*
X13199476Y-15584952D01*
X13189952Y-15575428D01*
X13180428Y-15556381D01*
X13180428Y-15499238D01*
X13189952Y-15480190D01*
X13199476Y-15470667D01*
X13218524Y-15461143D01*
X13256619Y-15461143D01*
X13275667Y-15470667D01*
X13351857Y-15670667D02*
X13361381Y-15661143D01*
X13380428Y-15632571D01*
X13389952Y-15613524D01*
X13399476Y-15584952D01*
X13409000Y-15537333D01*
X13409000Y-15499238D01*
X13399476Y-15451619D01*
X13389952Y-15423048D01*
X13380428Y-15404000D01*
X13361381Y-15375428D01*
X13351857Y-15365905D01*
X6599000Y-15776400D02*
G75*
G03*
X6599000Y-15776400I-100000J0D01*
G01*
X6847095Y-15685924D02*
X6856619Y-15676400D01*
X6875667Y-15666876D01*
X6923286Y-15666876D01*
X6942333Y-15676400D01*
X6951857Y-15685924D01*
X6961381Y-15704971D01*
X6961381Y-15724019D01*
X6951857Y-15752590D01*
X6837571Y-15866876D01*
X6961381Y-15866876D01*
X7047095Y-15847828D02*
X7056619Y-15857352D01*
X7047095Y-15866876D01*
X7037571Y-15857352D01*
X7047095Y-15847828D01*
X7047095Y-15866876D01*
X7132809Y-15685924D02*
X7142333Y-15676400D01*
X7161381Y-15666876D01*
X7209000Y-15666876D01*
X7228048Y-15676400D01*
X7237571Y-15685924D01*
X7247095Y-15704971D01*
X7247095Y-15724019D01*
X7237571Y-15752590D01*
X7123286Y-15866876D01*
X7247095Y-15866876D01*
X7361381Y-15752590D02*
X7342333Y-15743067D01*
X7332809Y-15733543D01*
X7323286Y-15714495D01*
X7323286Y-15704971D01*
X7332809Y-15685924D01*
X7342333Y-15676400D01*
X7361381Y-15666876D01*
X7399476Y-15666876D01*
X7418524Y-15676400D01*
X7428048Y-15685924D01*
X7437571Y-15704971D01*
X7437571Y-15714495D01*
X7428048Y-15733543D01*
X7418524Y-15743067D01*
X7399476Y-15752590D01*
X7361381Y-15752590D01*
X7342333Y-15762114D01*
X7332809Y-15771638D01*
X7323286Y-15790686D01*
X7323286Y-15828781D01*
X7332809Y-15847828D01*
X7342333Y-15857352D01*
X7361381Y-15866876D01*
X7399476Y-15866876D01*
X7418524Y-15857352D01*
X7428048Y-15847828D01*
X7437571Y-15828781D01*
X7437571Y-15790686D01*
X7428048Y-15771638D01*
X7418524Y-15762114D01*
X7399476Y-15752590D01*
X7609000Y-15666876D02*
X7570905Y-15666876D01*
X7551857Y-15676400D01*
X7542333Y-15685924D01*
X7523286Y-15714495D01*
X7513762Y-15752590D01*
X7513762Y-15828781D01*
X7523286Y-15847828D01*
X7532809Y-15857352D01*
X7551857Y-15866876D01*
X7589952Y-15866876D01*
X7609000Y-15857352D01*
X7618524Y-15847828D01*
X7628048Y-15828781D01*
X7628048Y-15781162D01*
X7618524Y-15762114D01*
X7609000Y-15752590D01*
X7589952Y-15743067D01*
X7551857Y-15743067D01*
X7532809Y-15752590D01*
X7523286Y-15762114D01*
X7513762Y-15781162D01*
X7713762Y-15866876D02*
X7713762Y-15733543D01*
X7713762Y-15752590D02*
X7723286Y-15743067D01*
X7742333Y-15733543D01*
X7770905Y-15733543D01*
X7789952Y-15743067D01*
X7799476Y-15762114D01*
X7799476Y-15866876D01*
X7799476Y-15762114D02*
X7809000Y-15743067D01*
X7828048Y-15733543D01*
X7856619Y-15733543D01*
X7875667Y-15743067D01*
X7885190Y-15762114D01*
X7885190Y-15866876D01*
X7980428Y-15866876D02*
X7980428Y-15733543D01*
X7980428Y-15752590D02*
X7989952Y-15743067D01*
X8009000Y-15733543D01*
X8037571Y-15733543D01*
X8056619Y-15743067D01*
X8066143Y-15762114D01*
X8066143Y-15866876D01*
X8066143Y-15762114D02*
X8075667Y-15743067D01*
X8094714Y-15733543D01*
X8123286Y-15733543D01*
X8142333Y-15743067D01*
X8151857Y-15762114D01*
X8151857Y-15866876D01*
X8542333Y-15657352D02*
X8370905Y-15914495D01*
X8799476Y-15666876D02*
X8818524Y-15666876D01*
X8837571Y-15676400D01*
X8847095Y-15685924D01*
X8856619Y-15704971D01*
X8866143Y-15743067D01*
X8866143Y-15790686D01*
X8856619Y-15828781D01*
X8847095Y-15847828D01*
X8837571Y-15857352D01*
X8818524Y-15866876D01*
X8799476Y-15866876D01*
X8780429Y-15857352D01*
X8770905Y-15847828D01*
X8761381Y-15828781D01*
X8751857Y-15790686D01*
X8751857Y-15743067D01*
X8761381Y-15704971D01*
X8770905Y-15685924D01*
X8780429Y-15676400D01*
X8799476Y-15666876D01*
X8951857Y-15847828D02*
X8961381Y-15857352D01*
X8951857Y-15866876D01*
X8942333Y-15857352D01*
X8951857Y-15847828D01*
X8951857Y-15866876D01*
X9085190Y-15666876D02*
X9104238Y-15666876D01*
X9123286Y-15676400D01*
X9132810Y-15685924D01*
X9142333Y-15704971D01*
X9151857Y-15743067D01*
X9151857Y-15790686D01*
X9142333Y-15828781D01*
X9132810Y-15847828D01*
X9123286Y-15857352D01*
X9104238Y-15866876D01*
X9085190Y-15866876D01*
X9066143Y-15857352D01*
X9056619Y-15847828D01*
X9047095Y-15828781D01*
X9037571Y-15790686D01*
X9037571Y-15743067D01*
X9047095Y-15704971D01*
X9056619Y-15685924D01*
X9066143Y-15676400D01*
X9085190Y-15666876D01*
X9247095Y-15866876D02*
X9285190Y-15866876D01*
X9304238Y-15857352D01*
X9313762Y-15847828D01*
X9332810Y-15819257D01*
X9342333Y-15781162D01*
X9342333Y-15704971D01*
X9332810Y-15685924D01*
X9323286Y-15676400D01*
X9304238Y-15666876D01*
X9266143Y-15666876D01*
X9247095Y-15676400D01*
X9237571Y-15685924D01*
X9228048Y-15704971D01*
X9228048Y-15752590D01*
X9237571Y-15771638D01*
X9247095Y-15781162D01*
X9266143Y-15790686D01*
X9304238Y-15790686D01*
X9323286Y-15781162D01*
X9332810Y-15771638D01*
X9342333Y-15752590D01*
X9466143Y-15666876D02*
X9485190Y-15666876D01*
X9504238Y-15676400D01*
X9513762Y-15685924D01*
X9523286Y-15704971D01*
X9532810Y-15743067D01*
X9532810Y-15790686D01*
X9523286Y-15828781D01*
X9513762Y-15847828D01*
X9504238Y-15857352D01*
X9485190Y-15866876D01*
X9466143Y-15866876D01*
X9447095Y-15857352D01*
X9437571Y-15847828D01*
X9428048Y-15828781D01*
X9418524Y-15790686D01*
X9418524Y-15743067D01*
X9428048Y-15704971D01*
X9437571Y-15685924D01*
X9447095Y-15676400D01*
X9466143Y-15666876D01*
X9656619Y-15666876D02*
X9675667Y-15666876D01*
X9694714Y-15676400D01*
X9704238Y-15685924D01*
X9713762Y-15704971D01*
X9723286Y-15743067D01*
X9723286Y-15790686D01*
X9713762Y-15828781D01*
X9704238Y-15847828D01*
X9694714Y-15857352D01*
X9675667Y-15866876D01*
X9656619Y-15866876D01*
X9637571Y-15857352D01*
X9628048Y-15847828D01*
X9618524Y-15828781D01*
X9609000Y-15790686D01*
X9609000Y-15743067D01*
X9618524Y-15704971D01*
X9628048Y-15685924D01*
X9637571Y-15676400D01*
X9656619Y-15666876D01*
X9799476Y-15666876D02*
X9799476Y-15704971D01*
X9875667Y-15666876D02*
X9875667Y-15704971D01*
X10170905Y-15943067D02*
X10161381Y-15933543D01*
X10142333Y-15904971D01*
X10132810Y-15885924D01*
X10123286Y-15857352D01*
X10113762Y-15809733D01*
X10113762Y-15771638D01*
X10123286Y-15724019D01*
X10132810Y-15695448D01*
X10142333Y-15676400D01*
X10161381Y-15647828D01*
X10170905Y-15638305D01*
X10332810Y-15666876D02*
X10294714Y-15666876D01*
X10275667Y-15676400D01*
X10266143Y-15685924D01*
X10247095Y-15714495D01*
X10237571Y-15752590D01*
X10237571Y-15828781D01*
X10247095Y-15847828D01*
X10256619Y-15857352D01*
X10275667Y-15866876D01*
X10313762Y-15866876D01*
X10332810Y-15857352D01*
X10342333Y-15847828D01*
X10351857Y-15828781D01*
X10351857Y-15781162D01*
X10342333Y-15762114D01*
X10332810Y-15752590D01*
X10313762Y-15743067D01*
X10275667Y-15743067D01*
X10256619Y-15752590D01*
X10247095Y-15762114D01*
X10237571Y-15781162D01*
X10589952Y-15866876D02*
X10589952Y-15666876D01*
X10675667Y-15866876D02*
X10675667Y-15762114D01*
X10666143Y-15743067D01*
X10647095Y-15733543D01*
X10618524Y-15733543D01*
X10599476Y-15743067D01*
X10589952Y-15752590D01*
X10799476Y-15866876D02*
X10780429Y-15857352D01*
X10770905Y-15847828D01*
X10761381Y-15828781D01*
X10761381Y-15771638D01*
X10770905Y-15752590D01*
X10780429Y-15743067D01*
X10799476Y-15733543D01*
X10828048Y-15733543D01*
X10847095Y-15743067D01*
X10856619Y-15752590D01*
X10866143Y-15771638D01*
X10866143Y-15828781D01*
X10856619Y-15847828D01*
X10847095Y-15857352D01*
X10828048Y-15866876D01*
X10799476Y-15866876D01*
X10980429Y-15866876D02*
X10961381Y-15857352D01*
X10951857Y-15838305D01*
X10951857Y-15666876D01*
X11132810Y-15857352D02*
X11113762Y-15866876D01*
X11075667Y-15866876D01*
X11056619Y-15857352D01*
X11047095Y-15838305D01*
X11047095Y-15762114D01*
X11056619Y-15743067D01*
X11075667Y-15733543D01*
X11113762Y-15733543D01*
X11132810Y-15743067D01*
X11142333Y-15762114D01*
X11142333Y-15781162D01*
X11047095Y-15800209D01*
X11218524Y-15857352D02*
X11237571Y-15866876D01*
X11275667Y-15866876D01*
X11294714Y-15857352D01*
X11304238Y-15838305D01*
X11304238Y-15828781D01*
X11294714Y-15809733D01*
X11275667Y-15800209D01*
X11247095Y-15800209D01*
X11228048Y-15790686D01*
X11218524Y-15771638D01*
X11218524Y-15762114D01*
X11228048Y-15743067D01*
X11247095Y-15733543D01*
X11275667Y-15733543D01*
X11294714Y-15743067D01*
X11370905Y-15943067D02*
X11380428Y-15933543D01*
X11399476Y-15904971D01*
X11409000Y-15885924D01*
X11418524Y-15857352D01*
X11428048Y-15809733D01*
X11428048Y-15771638D01*
X11418524Y-15724019D01*
X11409000Y-15695448D01*
X11399476Y-15676400D01*
X11380428Y-15647828D01*
X11370905Y-15638305D01*
X11732809Y-15943067D02*
X11723286Y-15933543D01*
X11704238Y-15904971D01*
X11694714Y-15885924D01*
X11685190Y-15857352D01*
X11675667Y-15809733D01*
X11675667Y-15771638D01*
X11685190Y-15724019D01*
X11694714Y-15695448D01*
X11704238Y-15676400D01*
X11723286Y-15647828D01*
X11732809Y-15638305D01*
X11809000Y-15733543D02*
X11809000Y-15866876D01*
X11809000Y-15752590D02*
X11818524Y-15743067D01*
X11837571Y-15733543D01*
X11866143Y-15733543D01*
X11885190Y-15743067D01*
X11894714Y-15762114D01*
X11894714Y-15866876D01*
X12018524Y-15866876D02*
X11999476Y-15857352D01*
X11989952Y-15847828D01*
X11980428Y-15828781D01*
X11980428Y-15771638D01*
X11989952Y-15752590D01*
X11999476Y-15743067D01*
X12018524Y-15733543D01*
X12047095Y-15733543D01*
X12066143Y-15743067D01*
X12075667Y-15752590D01*
X12085190Y-15771638D01*
X12085190Y-15828781D01*
X12075667Y-15847828D01*
X12066143Y-15857352D01*
X12047095Y-15866876D01*
X12018524Y-15866876D01*
X12142333Y-15733543D02*
X12218524Y-15733543D01*
X12170905Y-15666876D02*
X12170905Y-15838305D01*
X12180428Y-15857352D01*
X12199476Y-15866876D01*
X12218524Y-15866876D01*
X12437571Y-15733543D02*
X12437571Y-15933543D01*
X12437571Y-15743067D02*
X12456619Y-15733543D01*
X12494714Y-15733543D01*
X12513762Y-15743067D01*
X12523286Y-15752590D01*
X12532809Y-15771638D01*
X12532809Y-15828781D01*
X12523286Y-15847828D01*
X12513762Y-15857352D01*
X12494714Y-15866876D01*
X12456619Y-15866876D01*
X12437571Y-15857352D01*
X12647095Y-15866876D02*
X12628048Y-15857352D01*
X12618524Y-15838305D01*
X12618524Y-15666876D01*
X12809000Y-15866876D02*
X12809000Y-15762114D01*
X12799476Y-15743067D01*
X12780428Y-15733543D01*
X12742333Y-15733543D01*
X12723286Y-15743067D01*
X12809000Y-15857352D02*
X12789952Y-15866876D01*
X12742333Y-15866876D01*
X12723286Y-15857352D01*
X12713762Y-15838305D01*
X12713762Y-15819257D01*
X12723286Y-15800209D01*
X12742333Y-15790686D01*
X12789952Y-15790686D01*
X12809000Y-15781162D01*
X12875667Y-15733543D02*
X12951857Y-15733543D01*
X12904238Y-15666876D02*
X12904238Y-15838305D01*
X12913762Y-15857352D01*
X12932809Y-15866876D01*
X12951857Y-15866876D01*
X13094714Y-15857352D02*
X13075667Y-15866876D01*
X13037571Y-15866876D01*
X13018524Y-15857352D01*
X13009000Y-15838305D01*
X13009000Y-15762114D01*
X13018524Y-15743067D01*
X13037571Y-15733543D01*
X13075667Y-15733543D01*
X13094714Y-15743067D01*
X13104238Y-15762114D01*
X13104238Y-15781162D01*
X13009000Y-15800209D01*
X13275667Y-15866876D02*
X13275667Y-15666876D01*
X13275667Y-15857352D02*
X13256619Y-15866876D01*
X13218524Y-15866876D01*
X13199476Y-15857352D01*
X13189952Y-15847828D01*
X13180428Y-15828781D01*
X13180428Y-15771638D01*
X13189952Y-15752590D01*
X13199476Y-15743067D01*
X13218524Y-15733543D01*
X13256619Y-15733543D01*
X13275667Y-15743067D01*
X13351857Y-15943067D02*
X13361381Y-15933543D01*
X13380428Y-15904971D01*
X13389952Y-15885924D01*
X13399476Y-15857352D01*
X13409000Y-15809733D01*
X13409000Y-15771638D01*
X13399476Y-15724019D01*
X13389952Y-15695448D01*
X13380428Y-15676400D01*
X13361381Y-15647828D01*
X13351857Y-15638305D01*
X6499000Y-15996400D02*
X6499000Y-16196400D01*
X6399000Y-16096400D02*
X6599000Y-16096400D01*
X6942333Y-16053543D02*
X6942333Y-16186876D01*
X6894714Y-15977352D02*
X6847095Y-16120209D01*
X6970905Y-16120209D01*
X7047095Y-16167828D02*
X7056619Y-16177352D01*
X7047095Y-16186876D01*
X7037571Y-16177352D01*
X7047095Y-16167828D01*
X7047095Y-16186876D01*
X7180428Y-15986876D02*
X7199476Y-15986876D01*
X7218524Y-15996400D01*
X7228048Y-16005924D01*
X7237571Y-16024971D01*
X7247095Y-16063067D01*
X7247095Y-16110686D01*
X7237571Y-16148781D01*
X7228048Y-16167828D01*
X7218524Y-16177352D01*
X7199476Y-16186876D01*
X7180428Y-16186876D01*
X7161381Y-16177352D01*
X7151857Y-16167828D01*
X7142333Y-16148781D01*
X7132809Y-16110686D01*
X7132809Y-16063067D01*
X7142333Y-16024971D01*
X7151857Y-16005924D01*
X7161381Y-15996400D01*
X7180428Y-15986876D01*
X7370905Y-15986876D02*
X7389952Y-15986876D01*
X7409000Y-15996400D01*
X7418524Y-16005924D01*
X7428048Y-16024971D01*
X7437571Y-16063067D01*
X7437571Y-16110686D01*
X7428048Y-16148781D01*
X7418524Y-16167828D01*
X7409000Y-16177352D01*
X7389952Y-16186876D01*
X7370905Y-16186876D01*
X7351857Y-16177352D01*
X7342333Y-16167828D01*
X7332809Y-16148781D01*
X7323286Y-16110686D01*
X7323286Y-16063067D01*
X7332809Y-16024971D01*
X7342333Y-16005924D01*
X7351857Y-15996400D01*
X7370905Y-15986876D01*
X7561381Y-15986876D02*
X7580428Y-15986876D01*
X7599476Y-15996400D01*
X7609000Y-16005924D01*
X7618524Y-16024971D01*
X7628048Y-16063067D01*
X7628048Y-16110686D01*
X7618524Y-16148781D01*
X7609000Y-16167828D01*
X7599476Y-16177352D01*
X7580428Y-16186876D01*
X7561381Y-16186876D01*
X7542333Y-16177352D01*
X7532809Y-16167828D01*
X7523286Y-16148781D01*
X7513762Y-16110686D01*
X7513762Y-16063067D01*
X7523286Y-16024971D01*
X7532809Y-16005924D01*
X7542333Y-15996400D01*
X7561381Y-15986876D01*
X7713762Y-16186876D02*
X7713762Y-16053543D01*
X7713762Y-16072590D02*
X7723286Y-16063067D01*
X7742333Y-16053543D01*
X7770905Y-16053543D01*
X7789952Y-16063067D01*
X7799476Y-16082114D01*
X7799476Y-16186876D01*
X7799476Y-16082114D02*
X7809000Y-16063067D01*
X7828048Y-16053543D01*
X7856619Y-16053543D01*
X7875667Y-16063067D01*
X7885190Y-16082114D01*
X7885190Y-16186876D01*
X7980428Y-16186876D02*
X7980428Y-16053543D01*
X7980428Y-16072590D02*
X7989952Y-16063067D01*
X8009000Y-16053543D01*
X8037571Y-16053543D01*
X8056619Y-16063067D01*
X8066143Y-16082114D01*
X8066143Y-16186876D01*
X8066143Y-16082114D02*
X8075667Y-16063067D01*
X8094714Y-16053543D01*
X8123286Y-16053543D01*
X8142333Y-16063067D01*
X8151857Y-16082114D01*
X8151857Y-16186876D01*
X8542333Y-15977352D02*
X8370905Y-16234495D01*
X8799476Y-15986876D02*
X8818524Y-15986876D01*
X8837571Y-15996400D01*
X8847095Y-16005924D01*
X8856619Y-16024971D01*
X8866143Y-16063067D01*
X8866143Y-16110686D01*
X8856619Y-16148781D01*
X8847095Y-16167828D01*
X8837571Y-16177352D01*
X8818524Y-16186876D01*
X8799476Y-16186876D01*
X8780429Y-16177352D01*
X8770905Y-16167828D01*
X8761381Y-16148781D01*
X8751857Y-16110686D01*
X8751857Y-16063067D01*
X8761381Y-16024971D01*
X8770905Y-16005924D01*
X8780429Y-15996400D01*
X8799476Y-15986876D01*
X8951857Y-16167828D02*
X8961381Y-16177352D01*
X8951857Y-16186876D01*
X8942333Y-16177352D01*
X8951857Y-16167828D01*
X8951857Y-16186876D01*
X9151857Y-16186876D02*
X9037571Y-16186876D01*
X9094714Y-16186876D02*
X9094714Y-15986876D01*
X9075667Y-16015448D01*
X9056619Y-16034495D01*
X9037571Y-16044019D01*
X9332810Y-15986876D02*
X9237571Y-15986876D01*
X9228048Y-16082114D01*
X9237571Y-16072590D01*
X9256619Y-16063067D01*
X9304238Y-16063067D01*
X9323286Y-16072590D01*
X9332810Y-16082114D01*
X9342333Y-16101162D01*
X9342333Y-16148781D01*
X9332810Y-16167828D01*
X9323286Y-16177352D01*
X9304238Y-16186876D01*
X9256619Y-16186876D01*
X9237571Y-16177352D01*
X9228048Y-16167828D01*
X9409000Y-15986876D02*
X9542333Y-15986876D01*
X9456619Y-16186876D01*
X9713762Y-15986876D02*
X9618524Y-15986876D01*
X9609000Y-16082114D01*
X9618524Y-16072590D01*
X9637571Y-16063067D01*
X9685190Y-16063067D01*
X9704238Y-16072590D01*
X9713762Y-16082114D01*
X9723286Y-16101162D01*
X9723286Y-16148781D01*
X9713762Y-16167828D01*
X9704238Y-16177352D01*
X9685190Y-16186876D01*
X9637571Y-16186876D01*
X9618524Y-16177352D01*
X9609000Y-16167828D01*
X9799476Y-15986876D02*
X9799476Y-16024971D01*
X9875667Y-15986876D02*
X9875667Y-16024971D01*
X10170905Y-16263067D02*
X10161381Y-16253543D01*
X10142333Y-16224971D01*
X10132810Y-16205924D01*
X10123286Y-16177352D01*
X10113762Y-16129733D01*
X10113762Y-16091638D01*
X10123286Y-16044019D01*
X10132810Y-16015448D01*
X10142333Y-15996400D01*
X10161381Y-15967828D01*
X10170905Y-15958305D01*
X10237571Y-16005924D02*
X10247095Y-15996400D01*
X10266143Y-15986876D01*
X10313762Y-15986876D01*
X10332810Y-15996400D01*
X10342333Y-16005924D01*
X10351857Y-16024971D01*
X10351857Y-16044019D01*
X10342333Y-16072590D01*
X10228048Y-16186876D01*
X10351857Y-16186876D01*
X10589952Y-16186876D02*
X10589952Y-15986876D01*
X10675667Y-16186876D02*
X10675667Y-16082114D01*
X10666143Y-16063067D01*
X10647095Y-16053543D01*
X10618524Y-16053543D01*
X10599476Y-16063067D01*
X10589952Y-16072590D01*
X10799476Y-16186876D02*
X10780429Y-16177352D01*
X10770905Y-16167828D01*
X10761381Y-16148781D01*
X10761381Y-16091638D01*
X10770905Y-16072590D01*
X10780429Y-16063067D01*
X10799476Y-16053543D01*
X10828048Y-16053543D01*
X10847095Y-16063067D01*
X10856619Y-16072590D01*
X10866143Y-16091638D01*
X10866143Y-16148781D01*
X10856619Y-16167828D01*
X10847095Y-16177352D01*
X10828048Y-16186876D01*
X10799476Y-16186876D01*
X10980429Y-16186876D02*
X10961381Y-16177352D01*
X10951857Y-16158305D01*
X10951857Y-15986876D01*
X11132810Y-16177352D02*
X11113762Y-16186876D01*
X11075667Y-16186876D01*
X11056619Y-16177352D01*
X11047095Y-16158305D01*
X11047095Y-16082114D01*
X11056619Y-16063067D01*
X11075667Y-16053543D01*
X11113762Y-16053543D01*
X11132810Y-16063067D01*
X11142333Y-16082114D01*
X11142333Y-16101162D01*
X11047095Y-16120209D01*
X11218524Y-16177352D02*
X11237571Y-16186876D01*
X11275667Y-16186876D01*
X11294714Y-16177352D01*
X11304238Y-16158305D01*
X11304238Y-16148781D01*
X11294714Y-16129733D01*
X11275667Y-16120209D01*
X11247095Y-16120209D01*
X11228048Y-16110686D01*
X11218524Y-16091638D01*
X11218524Y-16082114D01*
X11228048Y-16063067D01*
X11247095Y-16053543D01*
X11275667Y-16053543D01*
X11294714Y-16063067D01*
X11370905Y-16263067D02*
X11380428Y-16253543D01*
X11399476Y-16224971D01*
X11409000Y-16205924D01*
X11418524Y-16177352D01*
X11428048Y-16129733D01*
X11428048Y-16091638D01*
X11418524Y-16044019D01*
X11409000Y-16015448D01*
X11399476Y-15996400D01*
X11380428Y-15967828D01*
X11370905Y-15958305D01*
X11732809Y-16263067D02*
X11723286Y-16253543D01*
X11704238Y-16224971D01*
X11694714Y-16205924D01*
X11685190Y-16177352D01*
X11675667Y-16129733D01*
X11675667Y-16091638D01*
X11685190Y-16044019D01*
X11694714Y-16015448D01*
X11704238Y-15996400D01*
X11723286Y-15967828D01*
X11732809Y-15958305D01*
X11809000Y-16053543D02*
X11809000Y-16186876D01*
X11809000Y-16072590D02*
X11818524Y-16063067D01*
X11837571Y-16053543D01*
X11866143Y-16053543D01*
X11885190Y-16063067D01*
X11894714Y-16082114D01*
X11894714Y-16186876D01*
X12018524Y-16186876D02*
X11999476Y-16177352D01*
X11989952Y-16167828D01*
X11980428Y-16148781D01*
X11980428Y-16091638D01*
X11989952Y-16072590D01*
X11999476Y-16063067D01*
X12018524Y-16053543D01*
X12047095Y-16053543D01*
X12066143Y-16063067D01*
X12075667Y-16072590D01*
X12085190Y-16091638D01*
X12085190Y-16148781D01*
X12075667Y-16167828D01*
X12066143Y-16177352D01*
X12047095Y-16186876D01*
X12018524Y-16186876D01*
X12142333Y-16053543D02*
X12218524Y-16053543D01*
X12170905Y-15986876D02*
X12170905Y-16158305D01*
X12180428Y-16177352D01*
X12199476Y-16186876D01*
X12218524Y-16186876D01*
X12437571Y-16053543D02*
X12437571Y-16253543D01*
X12437571Y-16063067D02*
X12456619Y-16053543D01*
X12494714Y-16053543D01*
X12513762Y-16063067D01*
X12523286Y-16072590D01*
X12532809Y-16091638D01*
X12532809Y-16148781D01*
X12523286Y-16167828D01*
X12513762Y-16177352D01*
X12494714Y-16186876D01*
X12456619Y-16186876D01*
X12437571Y-16177352D01*
X12647095Y-16186876D02*
X12628048Y-16177352D01*
X12618524Y-16158305D01*
X12618524Y-15986876D01*
X12809000Y-16186876D02*
X12809000Y-16082114D01*
X12799476Y-16063067D01*
X12780428Y-16053543D01*
X12742333Y-16053543D01*
X12723286Y-16063067D01*
X12809000Y-16177352D02*
X12789952Y-16186876D01*
X12742333Y-16186876D01*
X12723286Y-16177352D01*
X12713762Y-16158305D01*
X12713762Y-16139257D01*
X12723286Y-16120209D01*
X12742333Y-16110686D01*
X12789952Y-16110686D01*
X12809000Y-16101162D01*
X12875667Y-16053543D02*
X12951857Y-16053543D01*
X12904238Y-15986876D02*
X12904238Y-16158305D01*
X12913762Y-16177352D01*
X12932809Y-16186876D01*
X12951857Y-16186876D01*
X13094714Y-16177352D02*
X13075667Y-16186876D01*
X13037571Y-16186876D01*
X13018524Y-16177352D01*
X13009000Y-16158305D01*
X13009000Y-16082114D01*
X13018524Y-16063067D01*
X13037571Y-16053543D01*
X13075667Y-16053543D01*
X13094714Y-16063067D01*
X13104238Y-16082114D01*
X13104238Y-16101162D01*
X13009000Y-16120209D01*
X13275667Y-16186876D02*
X13275667Y-15986876D01*
X13275667Y-16177352D02*
X13256619Y-16186876D01*
X13218524Y-16186876D01*
X13199476Y-16177352D01*
X13189952Y-16167828D01*
X13180428Y-16148781D01*
X13180428Y-16091638D01*
X13189952Y-16072590D01*
X13199476Y-16063067D01*
X13218524Y-16053543D01*
X13256619Y-16053543D01*
X13275667Y-16063067D01*
X13351857Y-16263067D02*
X13361381Y-16253543D01*
X13380428Y-16224971D01*
X13389952Y-16205924D01*
X13399476Y-16177352D01*
X13409000Y-16129733D01*
X13409000Y-16091638D01*
X13399476Y-16044019D01*
X13389952Y-16015448D01*
X13380428Y-15996400D01*
X13361381Y-15967828D01*
X13351857Y-15958305D01*
M02*
