M48
; DRILL file {KiCad (6.0.7)} date Wed Oct 12 10:44:47 2022
; FORMAT={-:-/ absolute / metric / decimal}
; #@! TF.CreationDate,2022-10-12T10:44:47-05:00
; #@! TF.GenerationSoftware,Kicad,Pcbnew,(6.0.7)
; #@! TF.FileFunction,Plated,1,4,PTH
FMAT,2
METRIC
; #@! TA.AperFunction,Plated,PTH,ViaDrill
T1C0.381
; #@! TA.AperFunction,Plated,PTH,ComponentDrill
T2C0.800
; #@! TA.AperFunction,Plated,PTH,ComponentDrill
T3C0.813
; #@! TA.AperFunction,Plated,PTH,ComponentDrill
T4C1.000
%
G90
G05
T1
X73.025Y-76.835
X74.295Y-79.375
X75.565Y-57.785
X93.345Y-55.245
X96.52Y-55.245
X96.52Y-127.0
X97.155Y-78.74
X97.79Y-128.27
X99.695Y-56.515
X100.33Y-80.645
X100.965Y-55.245
X102.87Y-90.805
X104.14Y-83.185
X106.045Y-56.515
X106.68Y-69.215
X106.68Y-73.025
X107.315Y-55.245
X107.95Y-66.04
X108.585Y-107.95
X109.22Y-62.865
X109.855Y-98.425
X114.935Y-131.445
X116.205Y-82.55
X116.205Y-118.11
X117.475Y-99.06
X117.475Y-121.92
X118.745Y-56.515
X118.745Y-64.77
X118.745Y-97.79
X120.015Y-55.245
X121.285Y-56.515
X121.285Y-63.5
X122.555Y-55.245
X122.555Y-86.36
X123.825Y-56.515
X125.095Y-55.245
X125.095Y-66.04
X125.095Y-74.93
X126.365Y-56.515
X126.365Y-86.36
X127.635Y-55.245
X128.905Y-56.515
X128.905Y-93.345
X130.175Y-55.245
X130.175Y-67.31
X130.175Y-69.85
X131.445Y-56.515
X131.445Y-76.2
X132.715Y-55.245
X132.715Y-67.31
X132.715Y-85.09
X133.985Y-56.515
X133.985Y-66.04
X133.985Y-99.06
X135.255Y-55.245
X136.525Y-56.515
X136.525Y-93.345
X137.795Y-55.245
X137.795Y-84.455
X139.065Y-115.57
X141.605Y-56.515
X141.605Y-83.185
X142.875Y-72.39
X142.875Y-86.36
X145.415Y-65.405
X146.685Y-56.515
X146.685Y-80.01
X147.955Y-55.245
X147.955Y-73.66
X149.225Y-56.515
X150.495Y-55.245
X150.495Y-86.36
X151.765Y-56.515
X151.765Y-82.55
X153.035Y-55.245
X154.305Y-56.515
X156.845Y-83.185
X158.115Y-74.93
X158.115Y-87.63
X159.385Y-56.515
X161.925Y-56.515
X161.925Y-86.36
X163.195Y-55.245
X163.195Y-74.93
X164.465Y-56.515
X164.465Y-97.79
X165.735Y-55.245
X167.005Y-56.515
X167.005Y-66.04
X168.275Y-55.245
X168.275Y-88.9
X169.545Y-56.515
X169.545Y-75.565
X170.815Y-55.245
X172.085Y-56.515
X172.085Y-64.77
X173.355Y-55.245
X174.625Y-80.01
X175.895Y-73.025
X178.435Y-62.23
X178.435Y-69.85
X179.705Y-81.28
X180.975Y-76.835
X184.785Y-56.515
X184.785Y-63.5
X184.785Y-83.185
X186.055Y-124.46
X187.325Y-56.515
X188.595Y-55.245
X189.865Y-56.515
X191.135Y-55.245
T2
X69.215Y-60.365
X69.215Y-65.365
X69.215Y-75.605
X69.215Y-80.605
X69.215Y-93.385
X69.215Y-98.385
X69.215Y-106.125
X69.215Y-111.125
X71.75Y-92.065
X71.75Y-99.685
X71.755Y-74.295
X71.755Y-81.915
X71.755Y-84.455
X71.755Y-104.775
X71.755Y-112.395
X71.76Y-59.045
X71.76Y-66.665
X71.76Y-69.215
X74.29Y-92.065
X74.29Y-99.685
X74.295Y-74.295
X74.295Y-81.915
X74.295Y-84.455
X74.295Y-104.775
X74.295Y-112.395
X74.3Y-59.045
X74.3Y-66.665
X74.3Y-69.215
X76.83Y-92.065
X76.83Y-99.685
X76.835Y-74.295
X76.835Y-81.915
X76.835Y-84.455
X76.835Y-104.775
X76.835Y-112.395
X76.84Y-59.045
X76.84Y-66.665
X76.84Y-69.215
X79.37Y-92.065
X79.37Y-99.685
X79.375Y-74.295
X79.375Y-81.915
X79.375Y-84.455
X79.375Y-104.775
X79.375Y-112.395
X79.38Y-59.045
X79.38Y-66.665
X79.38Y-69.215
X81.91Y-92.065
X81.91Y-99.685
X81.915Y-74.295
X81.915Y-81.915
X81.915Y-84.455
X81.915Y-104.775
X81.915Y-112.395
X81.92Y-59.045
X81.92Y-66.665
X81.92Y-69.215
X84.45Y-92.065
X84.45Y-99.685
X84.455Y-74.295
X84.455Y-81.915
X84.455Y-84.455
X84.455Y-104.775
X84.455Y-112.395
X84.46Y-59.045
X84.46Y-66.665
X84.46Y-69.215
X86.99Y-92.065
X86.99Y-99.685
X86.995Y-74.295
X86.995Y-81.915
X86.995Y-84.455
X86.995Y-104.775
X86.995Y-112.395
X87.0Y-59.045
X87.0Y-66.665
X87.0Y-69.215
X89.535Y-74.295
X89.535Y-81.915
X89.535Y-84.455
X89.54Y-59.045
X89.54Y-66.665
X89.54Y-69.215
X92.075Y-74.295
X92.075Y-81.915
X92.075Y-84.455
X92.08Y-59.045
X92.08Y-66.665
X92.08Y-69.215
X94.615Y-74.295
X94.615Y-81.915
X94.615Y-84.455
X94.62Y-59.045
X94.62Y-66.665
X94.62Y-69.215
X99.695Y-101.6
X99.695Y-104.14
X99.695Y-106.68
X99.695Y-109.22
X99.695Y-111.76
X99.695Y-114.3
X99.695Y-116.84
X99.695Y-119.38
X99.695Y-121.92
X99.695Y-124.46
X99.695Y-130.215
X99.695Y-135.215
X100.33Y-61.0
X100.33Y-66.0
X118.75Y-71.12
X121.29Y-71.12
X123.825Y-60.96
X123.825Y-68.58
X123.83Y-71.12
X126.365Y-60.96
X126.365Y-68.58
X126.37Y-71.12
X128.905Y-60.96
X128.905Y-68.58
X128.91Y-71.12
X131.445Y-60.96
X131.445Y-68.58
X131.45Y-71.12
X133.985Y-60.96
X133.985Y-68.58
X133.99Y-71.12
X136.525Y-60.96
X136.525Y-68.58
X136.53Y-71.12
X139.065Y-60.96
X139.065Y-68.58
X139.07Y-71.12
X141.61Y-71.12
X142.24Y-62.31
X142.24Y-67.31
X145.41Y-60.95
X145.41Y-68.57
X145.42Y-71.12
X147.95Y-60.95
X147.95Y-68.57
X147.96Y-71.12
X150.49Y-60.95
X150.49Y-68.57
X150.5Y-71.12
X153.03Y-60.95
X153.03Y-68.57
X153.04Y-71.12
X155.57Y-60.95
X155.57Y-68.57
X155.58Y-71.12
X158.11Y-60.95
X158.11Y-68.57
X158.12Y-71.12
X160.65Y-60.95
X160.65Y-68.57
X160.66Y-71.12
X163.2Y-71.12
X163.83Y-62.27
X163.83Y-67.27
X165.74Y-71.12
X167.01Y-60.95
X167.01Y-68.57
X168.28Y-71.12
X169.55Y-60.95
X169.55Y-68.57
X172.09Y-60.95
X172.09Y-68.57
X172.09Y-71.12
X174.63Y-60.95
X174.63Y-68.57
X174.63Y-71.12
X177.17Y-60.95
X177.17Y-68.57
X177.17Y-71.12
X179.71Y-60.95
X179.71Y-68.57
X179.71Y-71.12
X182.25Y-60.95
X182.25Y-68.57
X182.25Y-71.12
X184.79Y-60.95
X184.79Y-68.57
X184.79Y-71.12
X187.33Y-60.95
X187.33Y-68.57
X187.33Y-71.12
X189.87Y-60.95
X189.87Y-68.57
X189.87Y-71.12
X192.41Y-71.12
X194.95Y-71.12
X196.719Y-62.404
X196.719Y-67.404
T3
X120.015Y-78.74
X120.015Y-91.44
X120.015Y-104.14
X120.015Y-116.84
X120.015Y-129.54
X120.015Y-142.24
X122.555Y-78.74
X122.555Y-91.44
X122.555Y-104.14
X122.555Y-116.84
X122.555Y-129.54
X122.555Y-142.24
X125.095Y-78.74
X125.095Y-91.44
X125.095Y-104.14
X125.095Y-116.84
X125.095Y-129.54
X125.095Y-142.24
X127.635Y-78.74
X127.635Y-91.44
X127.635Y-104.14
X127.635Y-116.84
X127.635Y-129.54
X127.635Y-142.24
X130.175Y-78.74
X130.175Y-91.44
X130.175Y-104.14
X130.175Y-116.84
X130.175Y-129.54
X130.175Y-142.24
X132.715Y-78.74
X132.715Y-91.44
X132.715Y-104.14
X132.715Y-116.84
X132.715Y-129.54
X132.715Y-142.24
X135.255Y-78.74
X135.255Y-91.44
X135.255Y-104.14
X135.255Y-116.84
X135.255Y-129.54
X135.255Y-142.24
X137.795Y-78.74
X137.795Y-91.44
X137.795Y-104.14
X137.795Y-116.84
X137.795Y-129.54
X137.795Y-142.24
X140.335Y-78.74
X140.335Y-91.44
X140.335Y-104.14
X140.335Y-116.84
X140.335Y-129.54
X140.335Y-142.24
X142.875Y-78.74
X142.875Y-91.44
X142.875Y-104.14
X142.875Y-116.84
X142.875Y-129.54
X142.875Y-142.24
X145.415Y-78.74
X145.415Y-91.44
X145.415Y-104.14
X145.415Y-116.84
X145.415Y-129.54
X145.415Y-142.24
X147.955Y-78.74
X147.955Y-91.44
X147.955Y-104.14
X147.955Y-116.84
X147.955Y-129.54
X147.955Y-142.24
X150.495Y-78.74
X150.495Y-91.44
X150.495Y-104.14
X150.495Y-116.84
X150.495Y-129.54
X150.495Y-142.24
X153.035Y-78.74
X153.035Y-91.44
X153.035Y-104.14
X153.035Y-116.84
X153.035Y-129.54
X153.035Y-142.24
X155.575Y-78.74
X155.575Y-91.44
X155.575Y-104.14
X155.575Y-116.84
X155.575Y-129.54
X155.575Y-142.24
X158.115Y-78.74
X158.115Y-91.44
X158.115Y-104.14
X158.115Y-116.84
X158.115Y-129.54
X158.115Y-142.24
X160.655Y-78.74
X160.655Y-91.44
X160.655Y-104.14
X160.655Y-116.84
X160.655Y-129.54
X160.655Y-142.24
X163.195Y-78.74
X163.195Y-91.44
X163.195Y-104.14
X163.195Y-116.84
X163.195Y-129.54
X163.195Y-142.24
X165.735Y-78.74
X165.735Y-91.44
X165.735Y-104.14
X165.735Y-116.84
X165.735Y-129.54
X165.735Y-142.24
X168.275Y-78.74
X168.275Y-91.44
X168.275Y-104.14
X168.275Y-116.84
X168.275Y-129.54
X168.275Y-142.24
X170.815Y-78.74
X170.815Y-91.44
X170.815Y-104.14
X170.815Y-116.84
X170.815Y-129.54
X170.815Y-142.24
X173.355Y-78.74
X173.355Y-91.44
X173.355Y-104.14
X173.355Y-116.84
X173.355Y-129.54
X173.355Y-142.24
X175.895Y-78.74
X175.895Y-91.44
X175.895Y-104.14
X175.895Y-116.84
X175.895Y-129.54
X175.895Y-142.24
X178.435Y-78.74
X178.435Y-91.44
X178.435Y-104.14
X178.435Y-116.84
X178.435Y-129.54
X178.435Y-142.24
X180.975Y-78.74
X180.975Y-91.44
X180.975Y-104.14
X180.975Y-116.84
X180.975Y-129.54
X180.975Y-142.24
X183.515Y-78.74
X183.515Y-91.44
X183.515Y-104.14
X183.515Y-116.84
X183.515Y-129.54
X183.515Y-142.24
X186.055Y-78.74
X186.055Y-91.44
X186.055Y-104.14
X186.055Y-116.84
X186.055Y-129.54
X186.055Y-142.24
X188.595Y-78.74
X188.595Y-91.44
X188.595Y-104.14
X188.595Y-116.84
X188.595Y-129.54
X188.595Y-142.24
X191.135Y-78.74
X191.135Y-91.44
X191.135Y-104.14
X191.135Y-116.84
X191.135Y-129.54
X191.135Y-142.24
X193.675Y-78.74
X193.675Y-91.44
X193.675Y-104.14
X193.675Y-116.84
X193.675Y-129.54
X193.675Y-142.24
T4
X175.895Y-56.515
X178.435Y-56.515
X180.975Y-56.515
T0
M30
